STARTFONT 2.3
FONT -FontForge-Source Code Pro-Book-R-Normal--9-90-72-72-M-50-ISO10646-1
SIZE 9 72 72  4
FONTBOUNDINGBOX 11 17 -3 -5
COMMENT "Generated by fontforge, http://fontforge.sourceforge.net"
COMMENT "Copyright 2010, 2012 Adobe Systems Incorporated (http://www.adobe.com/), with Reserved Font Name `Source'."
STARTPROPERTIES 42
FOUNDRY "FontForge"
FAMILY_NAME "Source Code Pro"
WEIGHT_NAME "Book"
SLANT "R"
SETWIDTH_NAME "Normal"
ADD_STYLE_NAME ""
PIXEL_SIZE 9
POINT_SIZE 90
RESOLUTION_X 72
RESOLUTION_Y 72
SPACING "M"
AVERAGE_WIDTH 50
CHARSET_REGISTRY "ISO10646"
CHARSET_ENCODING "1"
FONTNAME_REGISTRY ""
CHARSET_COLLECTIONS "ASCII ISOLatin1Encoding ISO8859-2 ISO8859-9 ISO8859-4 ISO10646-1"
BITS_PER_PIXEL 4
FONT_NAME "SourceCodePro-It"
FACE_NAME "Source Code Pro Italic"
COPYRIGHT "Copyright 2010, 2012 Adobe Systems Incorporated (http://www.adobe.com/), with Reserved Font Name `Source'."
FONT_VERSION "1.050;PS 1.000;hotconv 16.6.51;makeotf.lib2.5.65220"
FONT_ASCENT 7
FONT_DESCENT 2
UNDERLINE_POSITION -1
UNDERLINE_THICKNESS 1
X_HEIGHT 3
CAP_HEIGHT 5
RAW_ASCENT 750
RAW_DESCENT 250
ITALIC_ANGLE 5056
NORM_SPACE 5
RELATIVE_WEIGHT 40
RELATIVE_SETWIDTH 50
SUPERSCRIPT_X 0
SUPERSCRIPT_Y 3
SUPERSCRIPT_SIZE 5
SUBSCRIPT_X 0
SUBSCRIPT_Y 0
SUBSCRIPT_SIZE 5
FIGURE_WIDTH 5
AVG_LOWERCASE_WIDTH 50
AVG_UPPERCASE_WIDTH 50
ENDPROPERTIES
CHARS 1269
STARTCHAR space
ENCODING 32
SWIDTH 600 0
DWIDTH 5 0
BBX 1 1 0 0
BITMAP
00
ENDCHAR
STARTCHAR exclam
ENCODING 33
SWIDTH 600 0
DWIDTH 5 0
BBX 3 6 1 0
BITMAP
0190
0460
0620
0800
0000
3A00
ENDCHAR
STARTCHAR quotedbl
ENCODING 34
SWIDTH 600 0
DWIDTH 5 0
BBX 4 3 1 3
BITMAP
3B2C
5748
6353
ENDCHAR
STARTCHAR numbersign
ENCODING 35
SWIDTH 600 0
DWIDTH 5 0
BBX 5 6 0 0
BITMAP
007070
007250
0CFFD0
5FFF50
072500
256100
ENDCHAR
STARTCHAR dollar
ENCODING 36
SWIDTH 600 0
DWIDTH 5 0
BBX 5 8 0 -1
BITMAP
000700
05ED20
0A2350
05A200
002A20
451840
0AFB10
025000
ENDCHAR
STARTCHAR percent
ENCODING 37
SWIDTH 600 0
DWIDTH 5 0
BBX 7 6 -1 0
BITMAP
08E50000
09370530
0CC24400
0003DA00
02682A00
1707E600
ENDCHAR
STARTCHAR ampersand
ENCODING 38
SWIDTH 600 0
DWIDTH 5 0
BBX 5 6 0 0
BITMAP
02DC00
074800
079220
579090
B16B30
7EC890
ENDCHAR
STARTCHAR quotesingle
ENCODING 39
SWIDTH 600 0
DWIDTH 5 0
BBX 2 3 2 3
BITMAP
2C
48
63
ENDCHAR
STARTCHAR parenleft
ENCODING 40
SWIDTH 600 0
DWIDTH 5 0
BBX 4 8 1 -1
BITMAP
0028
0290
0910
1900
3700
3700
0A00
0540
ENDCHAR
STARTCHAR parenright
ENCODING 41
SWIDTH 600 0
DWIDTH 5 0
BBX 4 9 0 -3
BITMAP
0180
0063
0028
0018
0036
0091
0470
5800
1000
ENDCHAR
STARTCHAR asterisk
ENCODING 42
SWIDTH 600 0
DWIDTH 5 0
BBX 4 5 1 1
BITMAP
0120
1531
AEC5
2D50
8180
ENDCHAR
STARTCHAR plus
ENCODING 43
SWIDTH 600 0
DWIDTH 5 0
BBX 5 5 0 0
BITMAP
006000
008000
3FFF90
008000
006000
ENDCHAR
STARTCHAR comma
ENCODING 44
SWIDTH 600 0
DWIDTH 5 0
BBX 3 3 0 -2
BITMAP
03D0
04C0
2C30
ENDCHAR
STARTCHAR hyphen
ENCODING 45
SWIDTH 600 0
DWIDTH 5 0
BBX 5 1 0 2
BITMAP
3FFF90
ENDCHAR
STARTCHAR period
ENCODING 46
SWIDTH 600 0
DWIDTH 5 0
BBX 2 1 1 0
BITMAP
4C
ENDCHAR
STARTCHAR slash
ENCODING 47
SWIDTH 600 0
DWIDTH 5 0
BBX 6 8 0 -2
BITMAP
000091
000460
000900
005400
019000
073000
180000
810000
ENDCHAR
STARTCHAR zero
ENCODING 48
SWIDTH 600 0
DWIDTH 5 0
BBX 5 6 0 0
BITMAP
03DE40
0C32B0
4600A0
63A3A0
571950
1BE800
ENDCHAR
STARTCHAR one
ENCODING 49
SWIDTH 600 0
DWIDTH 5 0
BBX 5 6 0 0
BITMAP
029B00
002800
005500
008200
00A000
9FFF40
ENDCHAR
STARTCHAR two
ENCODING 50
SWIDTH 600 0
DWIDTH 5 0
BBX 5 6 0 0
BITMAP
03DD30
072670
000620
005400
183000
9FFF60
ENDCHAR
STARTCHAR three
ENCODING 51
SWIDTH 600 0
DWIDTH 5 0
BBX 5 6 0 0
BITMAP
03DE50
042580
01FA00
001930
631940
1CE900
ENDCHAR
STARTCHAR four
ENCODING 52
SWIDTH 600 0
DWIDTH 5 0
BBX 5 6 0 0
BITMAP
000880
006860
056730
480910
CFFFC0
000900
ENDCHAR
STARTCHAR five
ENCODING 53
SWIDTH 600 0
DWIDTH 5 0
BBX 5 6 0 0
BITMAP
07FFC0
0A1000
0BDD20
000670
631940
2CE800
ENDCHAR
STARTCHAR six
ENCODING 54
SWIDTH 600 0
DWIDTH 5 0
BBX 5 6 0 0
BITMAP
02BE70
0B4150
3BDD30
5A2480
571760
0AEA00
ENDCHAR
STARTCHAR seven
ENCODING 55
SWIDTH 600 0
DWIDTH 5 0
BBX 5 6 1 0
BITMAP
EFFF20
004700
029000
0A1000
290000
740000
ENDCHAR
STARTCHAR eight
ENCODING 56
SWIDTH 600 0
DWIDTH 5 0
BBX 5 6 0 0
BITMAP
04DE50
0631A0
099690
592810
660750
1BFC20
ENDCHAR
STARTCHAR nine
ENCODING 57
SWIDTH 600 0
DWIDTH 5 0
BBX 5 6 0 0
BITMAP
05DD30
0B13A0
2914A0
0AE990
322B30
2DD500
ENDCHAR
STARTCHAR colon
ENCODING 58
SWIDTH 600 0
DWIDTH 5 0
BBX 3 4 1 0
BITMAP
0960
0000
0000
4C00
ENDCHAR
STARTCHAR semicolon
ENCODING 59
SWIDTH 600 0
DWIDTH 5 0
BBX 4 6 0 -2
BITMAP
0096
0000
0000
03D0
04C0
2C30
ENDCHAR
STARTCHAR less
ENCODING 60
SWIDTH 600 0
DWIDTH 5 0
BBX 4 7 1 -1
BITMAP
0035
04B1
6B10
C100
6A10
04B1
0035
ENDCHAR
STARTCHAR equal
ENCODING 61
SWIDTH 600 0
DWIDTH 5 0
BBX 5 3 0 1
BITMAP
3FFF90
000000
3FFF90
ENDCHAR
STARTCHAR greater
ENCODING 62
SWIDTH 600 0
DWIDTH 5 0
BBX 4 7 1 -1
BITMAP
8000
7900
06A1
0085
06A1
7900
8000
ENDCHAR
STARTCHAR question
ENCODING 63
SWIDTH 600 0
DWIDTH 5 0
BBX 4 6 1 0
BITMAP
0AE6
3438
0161
0900
0000
5800
ENDCHAR
STARTCHAR at
ENCODING 64
SWIDTH 600 0
DWIDTH 5 0
BBX 6 8 0 -2
BITMAP
02BEB0
0B5072
564CE0
91A280
81DB80
900000
761300
1AE700
ENDCHAR
STARTCHAR A
ENCODING 65
SWIDTH 600 0
DWIDTH 5 0
BBX 6 6 -1 0
BITMAP
0004C0
000A90
005682
00C173
06FFF5
1C2047
ENDCHAR
STARTCHAR B
ENCODING 66
SWIDTH 600 0
DWIDTH 5 0
BBX 5 6 0 0
BITMAP
08FE80
0A01B0
0EDD30
292580
550590
8FEB10
ENDCHAR
STARTCHAR C
ENCODING 67
SWIDTH 600 0
DWIDTH 5 0
BBX 6 6 0 0
BITMAP
019E90
0A7151
2A0000
470000
2B1230
08EC10
ENDCHAR
STARTCHAR D
ENCODING 68
SWIDTH 600 0
DWIDTH 5 0
BBX 5 6 0 0
BITMAP
0BFC40
0C04C0
2900B0
5600B0
822A60
BFE700
ENDCHAR
STARTCHAR E
ENCODING 69
SWIDTH 600 0
DWIDTH 5 0
BBX 6 6 0 0
BITMAP
05FFF4
082000
0BFF50
0A0000
270000
5FFF50
ENDCHAR
STARTCHAR F
ENCODING 70
SWIDTH 600 0
DWIDTH 5 0
BBX 6 6 0 0
BITMAP
03FFF6
064000
09FF60
0A0000
0A0000
370000
ENDCHAR
STARTCHAR G
ENCODING 71
SWIDTH 600 0
DWIDTH 5 0
BBX 5 6 0 0
BITMAP
01BE80
0B6160
480000
650FC0
5A1280
0AED30
ENDCHAR
STARTCHAR H
ENCODING 72
SWIDTH 600 0
DWIDTH 5 0
BBX 6 6 0 0
BITMAP
0A0083
0900B0
2FFFC0
550290
820560
A00730
ENDCHAR
STARTCHAR I
ENCODING 73
SWIDTH 600 0
DWIDTH 5 0
BBX 6 6 0 0
BITMAP
08FFF1
004600
008300
00A000
00A000
9FFF00
ENDCHAR
STARTCHAR J
ENCODING 74
SWIDTH 600 0
DWIDTH 5 0
BBX 5 6 0 0
BITMAP
06FFB0
000180
000550
000820
622C00
3ED400
ENDCHAR
STARTCHAR K
ENCODING 75
SWIDTH 600 0
DWIDTH 5 0
BBX 6 6 0 0
BITMAP
082092
0A1920
0BB400
2D5900
560A10
830570
ENDCHAR
STARTCHAR L
ENCODING 76
SWIDTH 600 0
DWIDTH 5 0
BBX 4 6 1 0
BITMAP
1A00
3700
6300
9100
9000
FFF9
ENDCHAR
STARTCHAR M
ENCODING 77
SWIDTH 600 0
DWIDTH 5 0
BBX 6 6 0 0
BITMAP
0C30C3
0C55C0
3879A0
64D490
814460
A00730
ENDCHAR
STARTCHAR N
ENCODING 78
SWIDTH 600 0
DWIDTH 5 0
BBX 6 6 0 0
BITMAP
0A4082
0A80A0
1890A0
466490
732B60
A00C30
ENDCHAR
STARTCHAR O
ENCODING 79
SWIDTH 600 0
DWIDTH 5 0
BBX 6 6 0 0
BITMAP
03DE60
1C31C0
7500A1
9200B0
761870
1CE900
ENDCHAR
STARTCHAR P
ENCODING 80
SWIDTH 600 0
DWIDTH 5 0
BBX 6 6 0 0
BITMAP
07FF90
0A21B2
0B02C0
1FFD50
480000
740000
ENDCHAR
STARTCHAR Q
ENCODING 81
SWIDTH 600 0
DWIDTH 5 0
BBX 6 8 0 -2
BITMAP
03DE60
1C31C0
6500A1
9200B0
861880
2CFA00
01C100
006E60
ENDCHAR
STARTCHAR R
ENCODING 82
SWIDTH 600 0
DWIDTH 5 0
BBX 5 6 0 0
BITMAP
09FE80
0A02C0
0FFC40
365600
641B00
910A10
ENDCHAR
STARTCHAR S
ENCODING 83
SWIDTH 600 0
DWIDTH 5 0
BBX 5 6 0 0
BITMAP
04DD30
0A3260
05A200
002B20
641940
1BEA00
ENDCHAR
STARTCHAR T
ENCODING 84
SWIDTH 600 0
DWIDTH 5 0
BBX 6 6 0 0
BITMAP
1FFFF8
004600
007300
00A000
00A000
029000
ENDCHAR
STARTCHAR U
ENCODING 85
SWIDTH 600 0
DWIDTH 5 0
BBX 6 6 0 0
BITMAP
0A0073
0A00A0
2800B0
550290
681A40
1CE900
ENDCHAR
STARTCHAR V
ENCODING 86
SWIDTH 600 0
DWIDTH 5 0
BBX 5 6 1 0
BITMAP
B00560
A00A00
A05600
82A000
785000
5B0000
ENDCHAR
STARTCHAR W
ENCODING 87
SWIDTH 600 0
DWIDTH 5 0
BBX 6 6 0 0
BITMAP
370019
462155
559591
668790
6A1A60
780E10
ENDCHAR
STARTCHAR X
ENCODING 88
SWIDTH 600 0
DWIDTH 5 0
BBX 6 6 0 0
BITMAP
0920A2
038740
00B700
03C600
1A1B00
920930
ENDCHAR
STARTCHAR Y
ENCODING 89
SWIDTH 600 0
DWIDTH 5 0
BBX 5 6 1 0
BITMAP
B00750
922A00
57B200
1E7000
0B0000
190000
ENDCHAR
STARTCHAR Z
ENCODING 90
SWIDTH 600 0
DWIDTH 5 0
BBX 6 6 0 0
BITMAP
0CFFF3
000480
004800
039000
390000
CFFF60
ENDCHAR
STARTCHAR bracketleft
ENCODING 91
SWIDTH 600 0
DWIDTH 5 0
BBX 5 9 1 -2
BITMAP
06FF20
081000
090000
080000
170000
440000
610000
700000
CFA000
ENDCHAR
STARTCHAR backslash
ENCODING 92
SWIDTH 600 0
DWIDTH 5 0
BBX 3 8 1 -2
BITMAP
3600
0800
0800
0800
0810
0530
0260
0080
ENDCHAR
STARTCHAR bracketright
ENCODING 93
SWIDTH 600 0
DWIDTH 5 0
BBX 5 9 0 -2
BITMAP
05FF10
000700
000700
000700
003500
006300
008000
009000
CFA000
ENDCHAR
STARTCHAR asciicircum
ENCODING 94
SWIDTH 600 0
DWIDTH 5 0
BBX 4 3 1 3
BITMAP
0B30
4480
9072
ENDCHAR
STARTCHAR underscore
ENCODING 95
SWIDTH 600 0
DWIDTH 5 0
BBX 6 1 -1 -1
BITMAP
3FFFF2
ENDCHAR
STARTCHAR grave
ENCODING 96
SWIDTH 600 0
DWIDTH 5 0
BBX 2 2 2 5
BITMAP
63
18
ENDCHAR
STARTCHAR a
ENCODING 97
SWIDTH 600 0
DWIDTH 5 0
BBX 5 4 0 0
BITMAP
07EDB0
4A13A0
751970
3EDB30
ENDCHAR
STARTCHAR b
ENCODING 98
SWIDTH 600 0
DWIDTH 5 0
BBX 5 6 0 0
BITMAP
073000
0A0000
0CBE60
2C32B0
571590
8BEA10
ENDCHAR
STARTCHAR c
ENCODING 99
SWIDTH 600 0
DWIDTH 5 0
BBX 5 4 0 0
BITMAP
05DE50
3A2150
580420
1BEA00
ENDCHAR
STARTCHAR d
ENCODING 100
SWIDTH 600 0
DWIDTH 5 0
BBX 6 6 0 0
BITMAP
000064
000091
07EDB0
4A13A0
751960
3EDB30
ENDCHAR
STARTCHAR e
ENCODING 101
SWIDTH 600 0
DWIDTH 5 0
BBX 5 4 0 0
BITMAP
06DE50
3FFFA0
671420
1CE900
ENDCHAR
STARTCHAR f
ENCODING 102
SWIDTH 600 0
DWIDTH 5 0
BBX 5 6 1 0
BITMAP
01CE50
076120
DFFD00
0A0000
190000
550000
ENDCHAR
STARTCHAR g
ENCODING 103
SWIDTH 600 0
DWIDTH 5 0
BBX 5 6 0 -2
BITMAP
07EDA0
3A13A0
740770
3EED40
423B10
6ED500
ENDCHAR
STARTCHAR h
ENCODING 104
SWIDTH 600 0
DWIDTH 5 0
BBX 5 6 0 0
BITMAP
073000
0A0000
0CAE80
2D41A0
560270
920640
ENDCHAR
STARTCHAR i
ENCODING 105
SWIDTH 600 0
DWIDTH 5 0
BBX 4 6 1 0
BITMAP
0480
0000
FF30
0800
0A11
0CE2
ENDCHAR
STARTCHAR j
ENCODING 106
SWIDTH 600 0
DWIDTH 5 0
BBX 6 8 -1 -2
BITMAP
000093
000000
00BFD0
000090
000370
000740
021C10
1CE600
ENDCHAR
STARTCHAR k
ENCODING 107
SWIDTH 600 0
DWIDTH 5 0
BBX 5 6 0 0
BITMAP
064000
091000
0A0580
1A9700
4C3A00
740650
ENDCHAR
STARTCHAR l
ENCODING 108
SWIDTH 600 0
DWIDTH 5 0
BBX 4 6 1 0
BITMAP
AF60
0620
0800
0800
2810
2DD1
ENDCHAR
STARTCHAR m
ENCODING 109
SWIDTH 600 0
DWIDTH 5 0
BBX 6 4 0 0
BITMAP
4CEAE1
7786A0
A1A090
B09280
ENDCHAR
STARTCHAR n
ENCODING 110
SWIDTH 600 0
DWIDTH 5 0
BBX 5 4 0 0
BITMAP
0AAE80
2D41A0
560270
820640
ENDCHAR
STARTCHAR o
ENCODING 111
SWIDTH 600 0
DWIDTH 5 0
BBX 5 4 0 0
BITMAP
08ED40
6812A0
851680
2CEA10
ENDCHAR
STARTCHAR p
ENCODING 112
SWIDTH 600 0
DWIDTH 5 0
BBX 5 6 0 -2
BITMAP
0BBE60
2C32B0
571590
8BEB10
A00000
A00000
ENDCHAR
STARTCHAR q
ENCODING 113
SWIDTH 600 0
DWIDTH 5 0
BBX 5 6 0 -2
BITMAP
07EDB0
4A13A0
751970
3EDB40
000A10
000A00
ENDCHAR
STARTCHAR r
ENCODING 114
SWIDTH 600 0
DWIDTH 5 0
BBX 5 4 0 0
BITMAP
057DC0
09B210
0B0000
1A0000
ENDCHAR
STARTCHAR s
ENCODING 115
SWIDTH 600 0
DWIDTH 5 0
BBX 5 4 0 0
BITMAP
08EC20
096440
343A20
1AFC10
ENDCHAR
STARTCHAR t
ENCODING 116
SWIDTH 600 0
DWIDTH 5 0
BBX 5 5 0 0
BITMAP
009000
4EFFD0
037000
074210
05EC20
ENDCHAR
STARTCHAR u
ENCODING 117
SWIDTH 600 0
DWIDTH 5 0
BBX 5 4 0 0
BITMAP
0A00B0
360290
753B60
5EC930
ENDCHAR
STARTCHAR v
ENCODING 118
SWIDTH 600 0
DWIDTH 5 0
BBX 6 4 0 0
BITMAP
1900A1
0A0740
093800
05B100
ENDCHAR
STARTCHAR w
ENCODING 119
SWIDTH 600 0
DWIDTH 5 0
BBX 6 4 0 0
BITMAP
917445
82A590
884970
792D10
ENDCHAR
STARTCHAR x
ENCODING 120
SWIDTH 600 0
DWIDTH 5 0
BBX 5 4 0 0
BITMAP
092570
01B700
06A500
660A10
ENDCHAR
STARTCHAR y
ENCODING 121
SWIDTH 600 0
DWIDTH 5 0
BBX 7 6 -1 -2
BITMAP
02900A10
00A06400
00929000
006B1000
00550000
4E800000
ENDCHAR
STARTCHAR z
ENCODING 122
SWIDTH 600 0
DWIDTH 5 0
BBX 5 4 0 0
BITMAP
0EFFC0
003710
164000
AFFF30
ENDCHAR
STARTCHAR braceleft
ENCODING 123
SWIDTH 600 0
DWIDTH 5 0
BBX 5 9 1 -2
BITMAP
00BF30
039000
054000
1A1000
E80000
180000
060000
360000
3EB000
ENDCHAR
STARTCHAR bar
ENCODING 124
SWIDTH 600 0
DWIDTH 5 0
BBX 1 9 2 -2
BITMAP
90
90
90
90
90
90
90
90
90
ENDCHAR
STARTCHAR braceright
ENCODING 125
SWIDTH 600 0
DWIDTH 5 0
BBX 5 9 0 -2
BITMAP
06F700
001800
002400
005400
004F40
00A200
009000
058000
DD2000
ENDCHAR
STARTCHAR asciitilde
ENCODING 126
SWIDTH 600 0
DWIDTH 5 0
BBX 5 2 0 2
BITMAP
0CA270
266E30
ENDCHAR
STARTCHAR uni00A0
ENCODING 160
SWIDTH 600 0
DWIDTH 5 0
BBX 1 1 0 0
BITMAP
00
ENDCHAR
STARTCHAR exclamdown
ENCODING 161
SWIDTH 600 0
DWIDTH 5 0
BBX 3 6 1 -2
BITMAP
0850
0000
0800
0800
3600
7400
ENDCHAR
STARTCHAR cent
ENCODING 162
SWIDTH 600 0
DWIDTH 5 0
BBX 5 7 0 -1
BITMAP
000600
02CE50
0B5620
1A4200
1C7300
08F900
007000
ENDCHAR
STARTCHAR sterling
ENCODING 163
SWIDTH 600 0
DWIDTH 5 0
BBX 5 6 0 0
BITMAP
00AE60
048150
054000
4FFF00
062000
BFFF20
ENDCHAR
STARTCHAR currency
ENCODING 164
SWIDTH 600 0
DWIDTH 5 0
BBX 6 6 0 0
BITMAP
030021
0ADD90
0B2570
0B1840
4CED20
300130
ENDCHAR
STARTCHAR yen
ENCODING 165
SWIDTH 600 0
DWIDTH 5 0
BBX 6 6 0 0
BITMAP
080062
024110
5FADA0
00A000
8FFF70
01A000
ENDCHAR
STARTCHAR brokenbar
ENCODING 166
SWIDTH 600 0
DWIDTH 5 0
BBX 1 9 2 -2
BITMAP
90
90
90
90
00
90
90
90
90
ENDCHAR
STARTCHAR section
ENCODING 167
SWIDTH 600 0
DWIDTH 5 0
BBX 5 7 0 -1
BITMAP
01DD20
059230
0D5200
070430
005960
243B10
1BE500
ENDCHAR
STARTCHAR dieresis
ENCODING 168
SWIDTH 600 0
DWIDTH 5 0
BBX 3 1 2 5
BITMAP
A370
ENDCHAR
STARTCHAR copyright
ENCODING 169
SWIDTH 600 0
DWIDTH 5 0
BBX 6 6 0 0
BITMAP
04DE80
3A2192
74DE33
66E671
831680
2DE900
ENDCHAR
STARTCHAR ordfeminine
ENCODING 170
SWIDTH 600 0
DWIDTH 5 0
BBX 4 3 1 3
BITMAP
0BC6
5654
3E71
ENDCHAR
STARTCHAR guillemotleft
ENCODING 171
SWIDTH 600 0
DWIDTH 5 0
BBX 5 4 0 0
BITMAP
036260
2A2A00
382900
080700
ENDCHAR
STARTCHAR logicalnot
ENCODING 172
SWIDTH 600 0
DWIDTH 5 0
BBX 5 3 0 0
BITMAP
3FFF90
000080
000080
ENDCHAR
STARTCHAR uni00AD
ENCODING 173
SWIDTH 600 0
DWIDTH 5 0
BBX 5 1 0 2
BITMAP
3FFF90
ENDCHAR
STARTCHAR registered
ENCODING 174
SWIDTH 600 0
DWIDTH 5 0
BBX 4 4 1 3
BITMAP
0AE6
5417
67F7
3EC2
ENDCHAR
STARTCHAR macron
ENCODING 175
SWIDTH 600 0
DWIDTH 5 0
BBX 3 1 2 5
BITMAP
DF60
ENDCHAR
STARTCHAR degree
ENCODING 176
SWIDTH 600 0
DWIDTH 5 0
BBX 3 2 2 4
BITMAP
AE20
CD10
ENDCHAR
STARTCHAR plusminus
ENCODING 177
SWIDTH 600 0
DWIDTH 5 0
BBX 5 6 0 0
BITMAP
008000
008000
3FFF90
008000
000000
3FFF90
ENDCHAR
STARTCHAR two.sups
ENCODING 178
SWIDTH 600 0
DWIDTH 5 0
BBX 4 4 1 3
BITMAP
06E3
0352
0430
5FF0
ENDCHAR
STARTCHAR three.sups
ENCODING 179
SWIDTH 600 0
DWIDTH 5 0
BBX 4 4 1 3
BITMAP
07E3
06C1
2291
1CB0
ENDCHAR
STARTCHAR acute
ENCODING 180
SWIDTH 600 0
DWIDTH 5 0
BBX 3 2 2 5
BITMAP
0550
2800
ENDCHAR
STARTCHAR uni00B5
ENCODING 181
SWIDTH 600 0
DWIDTH 5 0
BBX 5 6 0 -2
BITMAP
0A00A0
360280
652B40
8EC880
900000
900000
ENDCHAR
STARTCHAR paragraph
ENCODING 182
SWIDTH 600 0
DWIDTH 5 0
BBX 5 7 0 -1
BITMAP
05DAA0
1FF890
2FF860
07C740
000910
000A00
000A00
ENDCHAR
STARTCHAR periodcentered
ENCODING 183
SWIDTH 600 0
DWIDTH 5 0
BBX 2 1 2 2
BITMAP
D2
ENDCHAR
STARTCHAR cedilla
ENCODING 184
SWIDTH 600 0
DWIDTH 5 0
BBX 3 4 0 -4
BITMAP
0340
0760
0380
1D20
ENDCHAR
STARTCHAR one.sups
ENCODING 185
SWIDTH 600 0
DWIDTH 5 0
BBX 4 4 1 3
BITMAP
06B0
0070
0260
6FF4
ENDCHAR
STARTCHAR ordmasculine
ENCODING 186
SWIDTH 600 0
DWIDTH 5 0
BBX 4 3 1 3
BITMAP
0AE4
4647
2EC2
ENDCHAR
STARTCHAR guillemotright
ENCODING 187
SWIDTH 600 0
DWIDTH 5 0
BBX 5 4 0 0
BITMAP
080800
083740
0A2930
535300
ENDCHAR
STARTCHAR onequarter
ENCODING 188
SWIDTH 600 0
DWIDTH 5 0
BBX 7 6 -1 0
BITMAP
05B00000
00700530
02604400
00006100
02635400
170AFB00
ENDCHAR
STARTCHAR onehalf
ENCODING 189
SWIDTH 600 0
DWIDTH 5 0
BBX 7 6 -1 0
BITMAP
05B00000
00700530
02604400
0001C800
02614200
1708FA00
ENDCHAR
STARTCHAR threequarters
ENCODING 190
SWIDTH 600 0
DWIDTH 5 0
BBX 7 6 -1 0
BITMAP
04E20000
06D00530
0AD14400
00006100
02635400
170AFB00
ENDCHAR
STARTCHAR questiondown
ENCODING 191
SWIDTH 600 0
DWIDTH 5 0
BBX 4 6 0 -2
BITMAP
0068
0000
0081
0620
6524
4EC1
ENDCHAR
STARTCHAR Agrave
ENCODING 192
SWIDTH 600 0
DWIDTH 5 0
BBX 6 8 -1 0
BITMAP
000640
000090
0004C0
000A90
005682
00C173
06FFF5
1C2047
ENDCHAR
STARTCHAR Aacute
ENCODING 193
SWIDTH 600 0
DWIDTH 5 0
BBX 6 8 -1 0
BITMAP
000064
000000
0004C0
000A90
005682
00C173
06FFF5
1C2047
ENDCHAR
STARTCHAR Acircumflex
ENCODING 194
SWIDTH 600 0
DWIDTH 5 0
BBX 6 7 -1 0
BITMAP
000575
0004C0
000A90
005682
00C173
06FFF5
1C2047
ENDCHAR
STARTCHAR Atilde
ENCODING 195
SWIDTH 600 0
DWIDTH 5 0
BBX 7 8 -1 0
BITMAP
000AA710
00178B00
0004C000
000A9000
00568200
00C17300
06FFF500
1C204700
ENDCHAR
STARTCHAR Adieresis
ENCODING 196
SWIDTH 600 0
DWIDTH 5 0
BBX 6 7 -1 0
BITMAP
000809
0004C0
000A90
005682
00C173
06FFF5
1C2047
ENDCHAR
STARTCHAR Aring
ENCODING 197
SWIDTH 600 0
DWIDTH 5 0
BBX 6 9 -1 0
BITMAP
0001D4
000456
0002E2
0004C0
000A90
005682
00C173
06FFF5
1C2047
ENDCHAR
STARTCHAR AE
ENCODING 198
SWIDTH 600 0
DWIDTH 5 0
BBX 7 6 -1 0
BITMAP
0004EFC0
000A9000
0075EE00
02B26000
0AFF3000
4A08FC00
ENDCHAR
STARTCHAR Ccedilla
ENCODING 199
SWIDTH 600 0
DWIDTH 5 0
BBX 6 10 0 -4
BITMAP
019E90
0A7151
2A0000
470000
2B1230
08EC10
006000
00D000
00A000
087000
ENDCHAR
STARTCHAR Egrave
ENCODING 200
SWIDTH 600 0
DWIDTH 5 0
BBX 6 8 0 0
BITMAP
001800
000720
05FFF4
082000
0BFF50
0A0000
270000
5FFF50
ENDCHAR
STARTCHAR Eacute
ENCODING 201
SWIDTH 600 0
DWIDTH 5 0
BBX 6 8 0 0
BITMAP
000470
000000
05FFF4
082000
0BFF50
0A0000
270000
5FFF50
ENDCHAR
STARTCHAR Ecircumflex
ENCODING 202
SWIDTH 600 0
DWIDTH 5 0
BBX 6 7 0 0
BITMAP
003780
05FFF4
082000
0BFF50
0A0000
270000
5FFF50
ENDCHAR
STARTCHAR Edieresis
ENCODING 203
SWIDTH 600 0
DWIDTH 5 0
BBX 6 7 0 0
BITMAP
004480
05FFF4
082000
0BFF50
0A0000
270000
5FFF50
ENDCHAR
STARTCHAR Igrave
ENCODING 204
SWIDTH 600 0
DWIDTH 5 0
BBX 6 8 0 0
BITMAP
006400
000900
08FFF1
004600
008300
00A000
00A000
9FFF00
ENDCHAR
STARTCHAR Iacute
ENCODING 205
SWIDTH 600 0
DWIDTH 5 0
BBX 6 8 0 0
BITMAP
000640
000000
08FFF1
004600
008300
00A000
00A000
9FFF00
ENDCHAR
STARTCHAR Icircumflex
ENCODING 206
SWIDTH 600 0
DWIDTH 5 0
BBX 6 7 0 0
BITMAP
005750
08FFF1
004600
008300
00A000
00A000
9FFF00
ENDCHAR
STARTCHAR Idieresis
ENCODING 207
SWIDTH 600 0
DWIDTH 5 0
BBX 6 7 0 0
BITMAP
008090
08FFF1
004600
008300
00A000
00A000
9FFF00
ENDCHAR
STARTCHAR Eth
ENCODING 208
SWIDTH 600 0
DWIDTH 5 0
BBX 6 6 0 0
BITMAP
09FD50
0B03D0
AFE091
3700B0
641880
9FE800
ENDCHAR
STARTCHAR Ntilde
ENCODING 209
SWIDTH 600 0
DWIDTH 5 0
BBX 6 8 0 0
BITMAP
00AA71
0178B0
0A4082
0A80A0
1890A0
466490
732B60
A00C30
ENDCHAR
STARTCHAR Ograve
ENCODING 210
SWIDTH 600 0
DWIDTH 5 0
BBX 6 8 0 0
BITMAP
006400
000900
03DE60
1C31C0
7500A1
9200B0
761870
1CE900
ENDCHAR
STARTCHAR Oacute
ENCODING 211
SWIDTH 600 0
DWIDTH 5 0
BBX 6 8 0 0
BITMAP
000640
000000
03DE60
1C31C0
7500A1
9200B0
761870
1CE900
ENDCHAR
STARTCHAR Ocircumflex
ENCODING 212
SWIDTH 600 0
DWIDTH 5 0
BBX 6 7 0 0
BITMAP
005750
03DE60
1C31C0
7500A1
9200B0
761870
1CE900
ENDCHAR
STARTCHAR Otilde
ENCODING 213
SWIDTH 600 0
DWIDTH 5 0
BBX 6 8 0 0
BITMAP
00AA71
0178B0
03DE60
1C31C0
7500A1
9200B0
761870
1CE900
ENDCHAR
STARTCHAR Odieresis
ENCODING 214
SWIDTH 600 0
DWIDTH 5 0
BBX 6 7 0 0
BITMAP
008090
03DE60
1C31C0
7500A1
9200B0
761870
1CE900
ENDCHAR
STARTCHAR multiply
ENCODING 215
SWIDTH 600 0
DWIDTH 5 0
BBX 4 4 1 1
BITMAP
7054
4970
3A70
7053
ENDCHAR
STARTCHAR Oslash
ENCODING 216
SWIDTH 600 0
DWIDTH 5 0
BBX 6 8 0 -1
BITMAP
000001
03DEA5
1C35D0
7538A1
9490C0
7A1870
ACE900
100000
ENDCHAR
STARTCHAR Ugrave
ENCODING 217
SWIDTH 600 0
DWIDTH 5 0
BBX 6 8 0 0
BITMAP
006400
000900
0A0073
0A00A0
2800B0
550290
681A40
1CE900
ENDCHAR
STARTCHAR Uacute
ENCODING 218
SWIDTH 600 0
DWIDTH 5 0
BBX 6 8 0 0
BITMAP
000640
000000
0A0073
0A00A0
2800B0
550290
681A40
1CE900
ENDCHAR
STARTCHAR Ucircumflex
ENCODING 219
SWIDTH 600 0
DWIDTH 5 0
BBX 6 7 0 0
BITMAP
005750
0A0073
0A00A0
2800B0
550290
681A40
1CE900
ENDCHAR
STARTCHAR Udieresis
ENCODING 220
SWIDTH 600 0
DWIDTH 5 0
BBX 6 7 0 0
BITMAP
008090
0A0073
0A00A0
2800B0
550290
681A40
1CE900
ENDCHAR
STARTCHAR Yacute
ENCODING 221
SWIDTH 600 0
DWIDTH 5 0
BBX 5 8 1 0
BITMAP
007400
000000
B00750
922A00
57B200
1E7000
0B0000
190000
ENDCHAR
STARTCHAR Thorn
ENCODING 222
SWIDTH 600 0
DWIDTH 5 0
BBX 5 6 0 0
BITMAP
083000
0BFE70
0B01B0
2903B0
5FFC30
830000
ENDCHAR
STARTCHAR germandbls
ENCODING 223
SWIDTH 600 0
DWIDTH 5 0
BBX 5 6 0 0
BITMAP
02CE50
0A4370
0B1700
391910
6531A0
92BE60
ENDCHAR
STARTCHAR agrave
ENCODING 224
SWIDTH 600 0
DWIDTH 5 0
BBX 5 7 0 0
BITMAP
004500
000900
000000
07EDB0
4A13A0
751970
3EDB30
ENDCHAR
STARTCHAR aacute
ENCODING 225
SWIDTH 600 0
DWIDTH 5 0
BBX 5 7 0 0
BITMAP
000470
001900
000000
07EDB0
4A13A0
751970
3EDB30
ENDCHAR
STARTCHAR acircumflex
ENCODING 226
SWIDTH 600 0
DWIDTH 5 0
BBX 5 7 0 0
BITMAP
003D30
008170
000000
07EDB0
4A13A0
751970
3EDB30
ENDCHAR
STARTCHAR atilde
ENCODING 227
SWIDTH 600 0
DWIDTH 5 0
BBX 5 7 0 0
BITMAP
007660
0167A0
000000
07EDB0
4A13A0
751970
3EDB30
ENDCHAR
STARTCHAR adieresis
ENCODING 228
SWIDTH 600 0
DWIDTH 5 0
BBX 5 6 0 0
BITMAP
009180
000000
07EDB0
4A13A0
751970
3EDB30
ENDCHAR
STARTCHAR aring
ENCODING 229
SWIDTH 600 0
DWIDTH 5 0
BBX 5 8 0 0
BITMAP
003E30
007560
004D20
000000
07EDB0
4A13A0
751970
3EDB30
ENDCHAR
STARTCHAR ae
ENCODING 230
SWIDTH 600 0
DWIDTH 5 0
BBX 7 4 -1 0
BITMAP
03DBAE30
026CDD50
1B9C3400
1EC9E700
ENDCHAR
STARTCHAR ccedilla
ENCODING 231
SWIDTH 600 0
DWIDTH 5 0
BBX 5 8 0 -4
BITMAP
05DE50
3A2150
580420
1BEA00
006000
03B000
01A000
0A5000
ENDCHAR
STARTCHAR egrave
ENCODING 232
SWIDTH 600 0
DWIDTH 5 0
BBX 5 7 0 0
BITMAP
005400
000900
000000
06DE50
3FFFA0
671420
1CE900
ENDCHAR
STARTCHAR eacute
ENCODING 233
SWIDTH 600 0
DWIDTH 5 0
BBX 5 7 0 0
BITMAP
000460
001800
000000
06DE50
3FFFA0
671420
1CE900
ENDCHAR
STARTCHAR ecircumflex
ENCODING 234
SWIDTH 600 0
DWIDTH 5 0
BBX 5 7 0 0
BITMAP
004D20
008160
000000
06DE50
3FFFA0
671420
1CE900
ENDCHAR
STARTCHAR edieresis
ENCODING 235
SWIDTH 600 0
DWIDTH 5 0
BBX 5 6 0 0
BITMAP
00A280
000000
06DE50
3FFFA0
671420
1CE900
ENDCHAR
STARTCHAR igrave
ENCODING 236
SWIDTH 600 0
DWIDTH 5 0
BBX 4 7 1 0
BITMAP
0820
0270
0000
FF30
0800
0A11
0CE2
ENDCHAR
STARTCHAR iacute
ENCODING 237
SWIDTH 600 0
DWIDTH 5 0
BBX 4 7 1 0
BITMAP
0073
0460
0000
FF30
0800
0A11
0CE2
ENDCHAR
STARTCHAR icircumflex
ENCODING 238
SWIDTH 600 0
DWIDTH 5 0
BBX 4 7 1 0
BITMAP
07C0
2634
0000
FF30
0800
0A11
0CE2
ENDCHAR
STARTCHAR idieresis
ENCODING 239
SWIDTH 600 0
DWIDTH 5 0
BBX 4 6 1 0
BITMAP
1954
0000
FF30
0800
0A11
0CE2
ENDCHAR
STARTCHAR eth
ENCODING 240
SWIDTH 600 0
DWIDTH 5 0
BBX 6 6 0 0
BITMAP
006771
007850
09EBA0
7714B0
941580
3DEA10
ENDCHAR
STARTCHAR ntilde
ENCODING 241
SWIDTH 600 0
DWIDTH 5 0
BBX 5 7 0 0
BITMAP
007660
0168A0
000000
0AAE80
2D41A0
560270
820640
ENDCHAR
STARTCHAR ograve
ENCODING 242
SWIDTH 600 0
DWIDTH 5 0
BBX 5 7 0 0
BITMAP
006300
001800
000000
08ED40
6812A0
851680
2CEA10
ENDCHAR
STARTCHAR oacute
ENCODING 243
SWIDTH 600 0
DWIDTH 5 0
BBX 5 7 0 0
BITMAP
000550
002800
000000
08ED40
6812A0
851680
2CEA10
ENDCHAR
STARTCHAR ocircumflex
ENCODING 244
SWIDTH 600 0
DWIDTH 5 0
BBX 5 7 0 0
BITMAP
005D10
018260
000000
08ED40
6812A0
851680
2CEA10
ENDCHAR
STARTCHAR otilde
ENCODING 245
SWIDTH 600 0
DWIDTH 5 0
BBX 5 7 0 0
BITMAP
008560
025A80
000000
08ED40
6812A0
851680
2CEA10
ENDCHAR
STARTCHAR odieresis
ENCODING 246
SWIDTH 600 0
DWIDTH 5 0
BBX 5 6 0 0
BITMAP
00A370
000000
08ED40
6812A0
851680
2CEA10
ENDCHAR
STARTCHAR divide
ENCODING 247
SWIDTH 600 0
DWIDTH 5 0
BBX 5 5 0 0
BITMAP
009100
000000
3FFF90
000000
009100
ENDCHAR
STARTCHAR oslash
ENCODING 248
SWIDTH 600 0
DWIDTH 5 0
BBX 5 6 0 -1
BITMAP
000010
08EDA0
6958A0
886780
9CEA10
100000
ENDCHAR
STARTCHAR ugrave
ENCODING 249
SWIDTH 600 0
DWIDTH 5 0
BBX 5 7 0 0
BITMAP
007300
001800
000000
0A00B0
360290
753B60
5EC930
ENDCHAR
STARTCHAR uacute
ENCODING 250
SWIDTH 600 0
DWIDTH 5 0
BBX 5 7 0 0
BITMAP
000550
003800
000000
0A00B0
360290
753B60
5EC930
ENDCHAR
STARTCHAR ucircumflex
ENCODING 251
SWIDTH 600 0
DWIDTH 5 0
BBX 5 7 0 0
BITMAP
005D10
018260
000000
0A00B0
360290
753B60
5EC930
ENDCHAR
STARTCHAR udieresis
ENCODING 252
SWIDTH 600 0
DWIDTH 5 0
BBX 5 6 0 0
BITMAP
00A360
000000
0A00B0
360290
753B60
5EC930
ENDCHAR
STARTCHAR yacute
ENCODING 253
SWIDTH 600 0
DWIDTH 5 0
BBX 7 9 -1 -2
BITMAP
00006400
00037000
00000000
02900A10
00A06400
00929000
006B1000
00550000
4E800000
ENDCHAR
STARTCHAR thorn
ENCODING 254
SWIDTH 600 0
DWIDTH 5 0
BBX 5 8 0 -2
BITMAP
073000
0A0000
0CBE60
2C32B0
571590
8BEB10
A00000
A00000
ENDCHAR
STARTCHAR ydieresis
ENCODING 255
SWIDTH 600 0
DWIDTH 5 0
BBX 7 8 -1 -2
BITMAP
00094500
00000000
02900A10
00A06400
00929000
006B1000
00550000
4E800000
ENDCHAR
STARTCHAR Amacron
ENCODING 256
SWIDTH 600 0
DWIDTH 5 0
BBX 6 7 -1 0
BITMAP
000AFA
0004C0
000A90
005682
00C173
06FFF5
1C2047
ENDCHAR
STARTCHAR amacron
ENCODING 257
SWIDTH 600 0
DWIDTH 5 0
BBX 5 6 0 0
BITMAP
00BF80
000000
07EDB0
4A13A0
751970
3EDB30
ENDCHAR
STARTCHAR Abreve
ENCODING 258
SWIDTH 600 0
DWIDTH 5 0
BBX 6 8 -1 0
BITMAP
000819
0006E5
0004C0
000A90
005682
00C173
06FFF5
1C2047
ENDCHAR
STARTCHAR abreve
ENCODING 259
SWIDTH 600 0
DWIDTH 5 0
BBX 5 7 0 0
BITMAP
009190
007E50
000000
07EDB0
4A13A0
751970
3EDB30
ENDCHAR
STARTCHAR Aogonek
ENCODING 260
SWIDTH 600 0
DWIDTH 5 0
BBX 6 8 -1 -2
BITMAP
0004C0
000A90
005682
00C173
06FFF5
1C2047
000061
0000D6
ENDCHAR
STARTCHAR aogonek
ENCODING 261
SWIDTH 600 0
DWIDTH 5 0
BBX 5 6 0 -2
BITMAP
07EDA0
4A13A0
751960
3EDB30
003400
006D00
ENDCHAR
STARTCHAR Cacute
ENCODING 262
SWIDTH 600 0
DWIDTH 5 0
BBX 6 8 0 0
BITMAP
000470
000000
019E90
0A7151
2A0000
470000
2B1230
08EC10
ENDCHAR
STARTCHAR cacute
ENCODING 263
SWIDTH 600 0
DWIDTH 5 0
BBX 5 7 0 0
BITMAP
000380
000910
000000
05DE50
3A2150
580420
1BEA00
ENDCHAR
STARTCHAR Ccircumflex
ENCODING 264
SWIDTH 600 0
DWIDTH 5 0
BBX 6 7 0 0
BITMAP
003780
019E90
0A7151
2A0000
470000
2B1230
08EC10
ENDCHAR
STARTCHAR ccircumflex
ENCODING 265
SWIDTH 600 0
DWIDTH 5 0
BBX 5 7 0 0
BITMAP
002D40
008170
000000
05DE50
3A2150
580420
1BEA00
ENDCHAR
STARTCHAR Cdotaccent
ENCODING 266
SWIDTH 600 0
DWIDTH 5 0
BBX 6 7 0 0
BITMAP
000730
019E90
0A7151
2A0000
470000
2B1230
08EC10
ENDCHAR
STARTCHAR cdotaccent
ENCODING 267
SWIDTH 600 0
DWIDTH 5 0
BBX 5 6 0 0
BITMAP
000C00
000000
05DE50
3A2150
580420
1BEA00
ENDCHAR
STARTCHAR Ccaron
ENCODING 268
SWIDTH 600 0
DWIDTH 5 0
BBX 6 8 0 0
BITMAP
002871
000000
019E90
0A7151
2A0000
470000
2B1230
08EC10
ENDCHAR
STARTCHAR ccaron
ENCODING 269
SWIDTH 600 0
DWIDTH 5 0
BBX 5 7 0 0
BITMAP
007180
003D30
000000
05DE50
3A2150
580420
1BEA00
ENDCHAR
STARTCHAR Dcaron
ENCODING 270
SWIDTH 600 0
DWIDTH 5 0
BBX 5 8 0 0
BITMAP
005750
000000
0BFC40
0C04C0
2900B0
5600B0
822A60
BFE700
ENDCHAR
STARTCHAR dcaron
ENCODING 271
SWIDTH 600 0
DWIDTH 5 0
BBX 7 7 0 0
BITMAP
00000360
0000A710
0000A000
08EB9000
58175000
942C2000
4ECC0000
ENDCHAR
STARTCHAR Dcroat
ENCODING 272
SWIDTH 600 0
DWIDTH 5 0
BBX 6 6 0 0
BITMAP
09FD50
0B03D0
AFE091
3700B0
641880
9FE800
ENDCHAR
STARTCHAR dcroat
ENCODING 273
SWIDTH 600 0
DWIDTH 5 0
BBX 6 6 0 0
BITMAP
000064
001ADB
0000A0
1AEDA0
772970
4EDC30
ENDCHAR
STARTCHAR Emacron
ENCODING 274
SWIDTH 600 0
DWIDTH 5 0
BBX 6 7 0 0
BITMAP
005FF0
05FFF4
082000
0BFF50
0A0000
270000
5FFF50
ENDCHAR
STARTCHAR emacron
ENCODING 275
SWIDTH 600 0
DWIDTH 5 0
BBX 5 6 0 0
BITMAP
00CF80
000000
06DE50
3FFFA0
671420
1CE900
ENDCHAR
STARTCHAR Ebreve
ENCODING 276
SWIDTH 600 0
DWIDTH 5 0
BBX 6 8 0 0
BITMAP
005372
002E90
05FFF4
082000
0BFF50
0A0000
270000
5FFF50
ENDCHAR
STARTCHAR ebreve
ENCODING 277
SWIDTH 600 0
DWIDTH 5 0
BBX 5 7 0 0
BITMAP
009190
008E40
000000
06DE50
3FFFA0
671420
1CE900
ENDCHAR
STARTCHAR Edotaccent
ENCODING 278
SWIDTH 600 0
DWIDTH 5 0
BBX 6 7 0 0
BITMAP
000730
05FFF4
082000
0BFF50
0A0000
270000
5FFF50
ENDCHAR
STARTCHAR edotaccent
ENCODING 279
SWIDTH 600 0
DWIDTH 5 0
BBX 5 6 0 0
BITMAP
001B00
000000
06DE50
3FFFA0
671420
1CE900
ENDCHAR
STARTCHAR Eogonek
ENCODING 280
SWIDTH 600 0
DWIDTH 5 0
BBX 6 8 0 -2
BITMAP
05FFF4
082000
0BFF50
0A0000
270000
5FFF50
003400
006D00
ENDCHAR
STARTCHAR eogonek
ENCODING 281
SWIDTH 600 0
DWIDTH 5 0
BBX 5 6 0 -2
BITMAP
06DE50
3FFFA0
671420
1CF800
004100
009A00
ENDCHAR
STARTCHAR Ecaron
ENCODING 282
SWIDTH 600 0
DWIDTH 5 0
BBX 6 8 0 0
BITMAP
002871
000000
05FFF4
082000
0BFF50
0A0000
270000
5FFF50
ENDCHAR
STARTCHAR ecaron
ENCODING 283
SWIDTH 600 0
DWIDTH 5 0
BBX 5 7 0 0
BITMAP
008180
005C20
000000
06DE50
3FFFA0
671420
1CE900
ENDCHAR
STARTCHAR Gcircumflex
ENCODING 284
SWIDTH 600 0
DWIDTH 5 0
BBX 5 7 0 0
BITMAP
004770
01BE80
0B6160
480000
650FC0
5A1280
0AED30
ENDCHAR
STARTCHAR gcircumflex
ENCODING 285
SWIDTH 600 0
DWIDTH 5 0
BBX 5 9 0 -2
BITMAP
003D30
008170
000000
07EDA0
3A13A0
740770
3EED40
423B10
6ED500
ENDCHAR
STARTCHAR Gbreve
ENCODING 286
SWIDTH 600 0
DWIDTH 5 0
BBX 6 8 0 0
BITMAP
007281
003E70
01BE80
0B6160
480000
650FC0
5A1280
0AED30
ENDCHAR
STARTCHAR gbreve
ENCODING 287
SWIDTH 600 0
DWIDTH 5 0
BBX 5 9 0 -2
BITMAP
009190
007E50
000000
07EDA0
3A13A0
740770
3EED40
423B10
6ED500
ENDCHAR
STARTCHAR Gdotaccent
ENCODING 288
SWIDTH 600 0
DWIDTH 5 0
BBX 5 7 0 0
BITMAP
000910
01BE80
0B6160
480000
650FC0
5A1280
0AED30
ENDCHAR
STARTCHAR gdotaccent
ENCODING 289
SWIDTH 600 0
DWIDTH 5 0
BBX 5 8 0 -2
BITMAP
000C00
000000
07EDA0
3A13A0
740770
3EED40
423B10
6ED500
ENDCHAR
STARTCHAR uni0122
ENCODING 290
SWIDTH 600 0
DWIDTH 5 0
BBX 5 8 0 -2
BITMAP
01BE80
0B6160
480000
650FC0
5A1280
0AED30
00C100
07B000
ENDCHAR
STARTCHAR uni0123
ENCODING 291
SWIDTH 600 0
DWIDTH 5 0
BBX 5 9 0 -2
BITMAP
000840
002800
000000
07EDA0
3A13A0
740770
3EED40
423B10
6ED500
ENDCHAR
STARTCHAR Hcircumflex
ENCODING 292
SWIDTH 600 0
DWIDTH 5 0
BBX 6 7 0 0
BITMAP
005750
0A0083
0900B0
2FFFC0
550290
820560
A00730
ENDCHAR
STARTCHAR hcircumflex
ENCODING 293
SWIDTH 600 0
DWIDTH 5 0
BBX 5 8 0 0
BITMAP
178200
000000
073000
0A0000
0CAE80
2D41A0
560270
920640
ENDCHAR
STARTCHAR Hbar
ENCODING 294
SWIDTH 600 0
DWIDTH 5 0
BBX 6 6 0 0
BITMAP
0A0083
8FFFFA
1FFFD0
4502A0
820570
A00730
ENDCHAR
STARTCHAR hbar
ENCODING 295
SWIDTH 600 0
DWIDTH 5 0
BBX 5 6 0 0
BITMAP
073000
4FFF00
0B0000
1DBF90
4C3190
830540
ENDCHAR
STARTCHAR Itilde
ENCODING 296
SWIDTH 600 0
DWIDTH 5 0
BBX 6 8 0 0
BITMAP
00AA71
0178B0
08FFF1
004600
008300
00A000
00A000
9FFF00
ENDCHAR
STARTCHAR itilde
ENCODING 297
SWIDTH 600 0
DWIDTH 5 0
BBX 4 7 1 0
BITMAP
1936
53C6
0000
FF30
0800
0A11
0CE2
ENDCHAR
STARTCHAR Imacron
ENCODING 298
SWIDTH 600 0
DWIDTH 5 0
BBX 6 7 0 0
BITMAP
00AFA0
08FFF1
004600
008300
00A000
00A000
9FFF00
ENDCHAR
STARTCHAR imacron
ENCODING 299
SWIDTH 600 0
DWIDTH 5 0
BBX 4 6 1 0
BITMAP
0FF4
0000
FF30
0800
0A11
0CE2
ENDCHAR
STARTCHAR Ibreve
ENCODING 300
SWIDTH 600 0
DWIDTH 5 0
BBX 6 8 0 0
BITMAP
008190
006E50
08FFF1
004600
008300
00A000
00A000
9FFF00
ENDCHAR
STARTCHAR ibreve
ENCODING 301
SWIDTH 600 0
DWIDTH 5 0
BBX 4 7 1 0
BITMAP
2837
0BD2
0000
FF30
0800
0A11
0CE2
ENDCHAR
STARTCHAR Iogonek
ENCODING 302
SWIDTH 600 0
DWIDTH 5 0
BBX 6 8 0 -2
BITMAP
08FFF1
004600
008300
00A000
00A000
9FFF00
062000
0B8000
ENDCHAR
STARTCHAR iogonek
ENCODING 303
SWIDTH 600 0
DWIDTH 5 0
BBX 4 8 1 -2
BITMAP
0480
0000
FF30
0800
0A11
0CB1
0410
08B0
ENDCHAR
STARTCHAR Idotaccent
ENCODING 304
SWIDTH 600 0
DWIDTH 5 0
BBX 6 7 0 0
BITMAP
000A00
08FFF1
004600
008300
00A000
00A000
9FFF00
ENDCHAR
STARTCHAR dotlessi
ENCODING 305
SWIDTH 600 0
DWIDTH 5 0
BBX 4 4 1 0
BITMAP
FF30
0800
0A11
0CE2
ENDCHAR
STARTCHAR IJ
ENCODING 306
SWIDTH 600 0
DWIDTH 5 0
BBX 5 8 0 -2
BITMAP
0830A0
0A00B0
0B02A0
290470
560740
830A10
001C00
00E600
ENDCHAR
STARTCHAR ij
ENCODING 307
SWIDTH 600 0
DWIDTH 5 0
BBX 5 8 0 -2
BITMAP
0570C0
000000
091460
0A0830
190B00
460B00
005800
05E200
ENDCHAR
STARTCHAR Jcircumflex
ENCODING 308
SWIDTH 600 0
DWIDTH 5 0
BBX 5 7 0 0
BITMAP
005750
06FFB0
000180
000550
000820
622C00
3ED400
ENDCHAR
STARTCHAR jcircumflex
ENCODING 309
SWIDTH 600 0
DWIDTH 5 0
BBX 6 9 -1 -2
BITMAP
0001B8
000627
000000
00BFD0
000090
000370
000740
021C10
1CE600
ENDCHAR
STARTCHAR uni0136
ENCODING 310
SWIDTH 600 0
DWIDTH 5 0
BBX 6 8 0 -2
BITMAP
082092
0A1920
0BB400
2D5900
560A10
830570
00D000
08A000
ENDCHAR
STARTCHAR uni0137
ENCODING 311
SWIDTH 600 0
DWIDTH 5 0
BBX 5 8 0 -2
BITMAP
064000
091000
0A0580
1A9700
4C3A00
740650
01C000
099000
ENDCHAR
STARTCHAR kgreenlandic
ENCODING 312
SWIDTH 600 0
DWIDTH 5 0
BBX 5 4 0 0
BITMAP
0A0580
1A8700
4C3A00
740640
ENDCHAR
STARTCHAR Lacute
ENCODING 313
SWIDTH 600 0
DWIDTH 5 0
BBX 4 8 1 0
BITMAP
0550
0000
1A00
3700
6300
9100
9000
FFF9
ENDCHAR
STARTCHAR lacute
ENCODING 314
SWIDTH 600 0
DWIDTH 5 0
BBX 4 9 1 0
BITMAP
0173
0000
0000
AF60
0620
0800
0800
2810
2DD1
ENDCHAR
STARTCHAR uni013B
ENCODING 315
SWIDTH 600 0
DWIDTH 5 0
BBX 4 8 1 -2
BITMAP
1A00
3700
6300
9100
9000
FFF9
0B20
6C10
ENDCHAR
STARTCHAR uni013C
ENCODING 316
SWIDTH 600 0
DWIDTH 5 0
BBX 4 8 1 -2
BITMAP
AF60
0620
0800
0800
2810
2DD1
0940
3D20
ENDCHAR
STARTCHAR Lcaron
ENCODING 317
SWIDTH 600 0
DWIDTH 5 0
BBX 4 7 1 0
BITMAP
0009
1A16
3700
6300
9100
9000
FFF9
ENDCHAR
STARTCHAR lcaron
ENCODING 318
SWIDTH 600 0
DWIDTH 5 0
BBX 5 7 1 0
BITMAP
000910
AF6800
062000
080000
080000
281000
2DD100
ENDCHAR
STARTCHAR Ldot
ENCODING 319
SWIDTH 600 0
DWIDTH 5 0
BBX 4 6 1 0
BITMAP
1A00
3700
6300
910C
9000
FFF9
ENDCHAR
STARTCHAR ldot
ENCODING 320
SWIDTH 600 0
DWIDTH 5 0
BBX 5 6 1 0
BITMAP
FF1000
080000
080000
350660
731000
6E9000
ENDCHAR
STARTCHAR Lslash
ENCODING 321
SWIDTH 600 0
DWIDTH 5 0
BBX 5 6 0 0
BITMAP
01A000
037010
06A710
4C1000
1A0000
0FFF90
ENDCHAR
STARTCHAR lslash
ENCODING 322
SWIDTH 600 0
DWIDTH 5 0
BBX 4 6 1 0
BITMAP
AF60
0644
0940
7900
2810
2DD1
ENDCHAR
STARTCHAR Nacute
ENCODING 323
SWIDTH 600 0
DWIDTH 5 0
BBX 6 8 0 0
BITMAP
000640
000000
0A4082
0A80A0
1890A0
466490
732B60
A00C30
ENDCHAR
STARTCHAR nacute
ENCODING 324
SWIDTH 600 0
DWIDTH 5 0
BBX 5 7 0 0
BITMAP
000460
001900
000000
0AAE80
2D41A0
560270
820640
ENDCHAR
STARTCHAR uni0145
ENCODING 325
SWIDTH 600 0
DWIDTH 5 0
BBX 6 8 0 -2
BITMAP
0A4082
0A80A0
1890A0
466490
732B60
A00C30
049000
0D6000
ENDCHAR
STARTCHAR uni0146
ENCODING 326
SWIDTH 600 0
DWIDTH 5 0
BBX 5 6 0 -2
BITMAP
0AAE80
2D41A0
560270
820640
049000
0C6000
ENDCHAR
STARTCHAR Ncaron
ENCODING 327
SWIDTH 600 0
DWIDTH 5 0
BBX 6 8 0 0
BITMAP
005760
000000
0A4082
0A80A0
1890A0
466490
732B60
A00C30
ENDCHAR
STARTCHAR ncaron
ENCODING 328
SWIDTH 600 0
DWIDTH 5 0
BBX 5 7 0 0
BITMAP
007180
005D20
000000
0AAE80
2D41A0
560270
820640
ENDCHAR
STARTCHAR napostrophe
ENCODING 329
SWIDTH 600 0
DWIDTH 5 0
BBX 6 6 0 0
BITMAP
5C0000
4B0000
C3BBE4
03D356
065073
0910A0
ENDCHAR
STARTCHAR Eng
ENCODING 330
SWIDTH 600 0
DWIDTH 5 0
BBX 5 6 0 0
BITMAP
0BAE80
0D41C0
2900B0
5600B0
830780
A0AC10
ENDCHAR
STARTCHAR eng
ENCODING 331
SWIDTH 600 0
DWIDTH 5 0
BBX 5 6 0 -2
BITMAP
0AAE80
2D41B0
560280
820650
000A20
00BA00
ENDCHAR
STARTCHAR Omacron
ENCODING 332
SWIDTH 600 0
DWIDTH 5 0
BBX 6 7 0 0
BITMAP
00AFA0
03DE60
1C31C0
7500A1
9200B0
761870
1CE900
ENDCHAR
STARTCHAR omacron
ENCODING 333
SWIDTH 600 0
DWIDTH 5 0
BBX 5 6 0 0
BITMAP
00DF60
000000
08ED40
6812A0
851680
2CEA10
ENDCHAR
STARTCHAR Obreve
ENCODING 334
SWIDTH 600 0
DWIDTH 5 0
BBX 6 8 0 0
BITMAP
008190
006E50
03DE60
1C31C0
7500A1
9200B0
761870
1CE900
ENDCHAR
STARTCHAR obreve
ENCODING 335
SWIDTH 600 0
DWIDTH 5 0
BBX 5 7 0 0
BITMAP
009290
009D30
000000
08ED40
6812A0
851680
2CEA10
ENDCHAR
STARTCHAR Ohungarumlaut
ENCODING 336
SWIDTH 600 0
DWIDTH 5 0
BBX 6 8 0 0
BITMAP
000844
004480
03DE60
1C31C0
7500A1
9200B0
761870
1CE900
ENDCHAR
STARTCHAR ohungarumlaut
ENCODING 337
SWIDTH 600 0
DWIDTH 5 0
BBX 6 7 0 0
BITMAP
000871
006360
000000
08ED40
6812A0
851680
2CEA10
ENDCHAR
STARTCHAR OE
ENCODING 338
SWIDTH 600 0
DWIDTH 5 0
BBX 6 6 0 0
BITMAP
04DFFC
2C3800
831FD0
A04500
A47200
3DFFC0
ENDCHAR
STARTCHAR oe
ENCODING 339
SWIDTH 600 0
DWIDTH 5 0
BBX 7 4 -1 0
BITMAP
04DB9E30
0B28FF50
1A1B1200
0BE8E800
ENDCHAR
STARTCHAR Racute
ENCODING 340
SWIDTH 600 0
DWIDTH 5 0
BBX 5 8 0 0
BITMAP
000640
000000
09FE80
0A02C0
0FFC40
365600
641B00
910A10
ENDCHAR
STARTCHAR racute
ENCODING 341
SWIDTH 600 0
DWIDTH 5 0
BBX 5 7 0 0
BITMAP
000290
000910
000000
057DC0
09B210
0B0000
1A0000
ENDCHAR
STARTCHAR uni0156
ENCODING 342
SWIDTH 600 0
DWIDTH 5 0
BBX 5 8 0 -2
BITMAP
09FE80
0A02C0
0FFC40
365600
641B00
910A10
03A000
0B7000
ENDCHAR
STARTCHAR uni0157
ENCODING 343
SWIDTH 600 0
DWIDTH 5 0
BBX 5 6 0 -2
BITMAP
057DC0
09B210
0B0000
1A0000
490000
D60000
ENDCHAR
STARTCHAR Rcaron
ENCODING 344
SWIDTH 600 0
DWIDTH 5 0
BBX 5 8 0 0
BITMAP
005760
000000
09FE80
0A02C0
0FFC40
365600
641B00
910A10
ENDCHAR
STARTCHAR rcaron
ENCODING 345
SWIDTH 600 0
DWIDTH 5 0
BBX 5 7 0 0
BITMAP
006180
002D40
000000
057DC0
09B210
0B0000
1A0000
ENDCHAR
STARTCHAR Sacute
ENCODING 346
SWIDTH 600 0
DWIDTH 5 0
BBX 5 8 0 0
BITMAP
000740
000000
04DD30
0A3260
05A200
002B20
641940
1BEA00
ENDCHAR
STARTCHAR sacute
ENCODING 347
SWIDTH 600 0
DWIDTH 5 0
BBX 5 7 0 0
BITMAP
000550
002800
000000
08EC20
096440
343A20
1AFC10
ENDCHAR
STARTCHAR Scircumflex
ENCODING 348
SWIDTH 600 0
DWIDTH 5 0
BBX 5 7 0 0
BITMAP
006740
04DD30
0A3260
05A200
002B20
641940
1BEA00
ENDCHAR
STARTCHAR scircumflex
ENCODING 349
SWIDTH 600 0
DWIDTH 5 0
BBX 5 7 0 0
BITMAP
005D10
018260
000000
08EC20
096440
343A20
1AFC10
ENDCHAR
STARTCHAR uni015E
ENCODING 350
SWIDTH 600 0
DWIDTH 5 0
BBX 5 10 0 -4
BITMAP
04DD30
0A3260
05A200
002B20
641940
1BEA00
016000
049000
01A000
0C4000
ENDCHAR
STARTCHAR uni015F
ENCODING 351
SWIDTH 600 0
DWIDTH 5 0
BBX 5 8 0 -4
BITMAP
08EC20
096440
343A20
1AFC10
006000
049000
01A000
0C4000
ENDCHAR
STARTCHAR Scaron
ENCODING 352
SWIDTH 600 0
DWIDTH 5 0
BBX 5 8 0 0
BITMAP
006750
000000
04DD30
0A3260
05A200
002B20
641940
1BEA00
ENDCHAR
STARTCHAR scaron
ENCODING 353
SWIDTH 600 0
DWIDTH 5 0
BBX 5 7 0 0
BITMAP
008170
006C10
000000
08EC20
096440
343A20
1AFC10
ENDCHAR
STARTCHAR uni0162
ENCODING 354
SWIDTH 600 0
DWIDTH 5 0
BBX 6 10 0 -4
BITMAP
1FFFF8
004600
007300
00A000
00A000
029000
034000
076000
038000
1D2000
ENDCHAR
STARTCHAR uni0163
ENCODING 355
SWIDTH 600 0
DWIDTH 5 0
BBX 5 9 0 -4
BITMAP
009000
4EFFD0
037000
074210
05EC20
006000
00C100
009200
069000
ENDCHAR
STARTCHAR Tcaron
ENCODING 356
SWIDTH 600 0
DWIDTH 5 0
BBX 6 8 0 0
BITMAP
005760
000000
1FFFF8
004600
007300
00A000
00A000
029000
ENDCHAR
STARTCHAR tcaron
ENCODING 357
SWIDTH 600 0
DWIDTH 5 0
BBX 5 7 0 0
BITMAP
000090
000170
009000
4EFFD0
037000
074210
05EC20
ENDCHAR
STARTCHAR Tbar
ENCODING 358
SWIDTH 600 0
DWIDTH 5 0
BBX 6 6 0 0
BITMAP
1FFFF8
005500
0BFF50
00A000
00B000
029000
ENDCHAR
STARTCHAR tbar
ENCODING 359
SWIDTH 600 0
DWIDTH 5 0
BBX 5 5 0 0
BITMAP
009000
4EFFD0
9FFF50
084210
05EC20
ENDCHAR
STARTCHAR Utilde
ENCODING 360
SWIDTH 600 0
DWIDTH 5 0
BBX 6 8 0 0
BITMAP
00AA71
0178B0
0A0073
0A00A0
2800B0
550290
681A40
1CE900
ENDCHAR
STARTCHAR utilde
ENCODING 361
SWIDTH 600 0
DWIDTH 5 0
BBX 5 7 0 0
BITMAP
008560
034A80
000000
0A00B0
360290
753B60
5EC930
ENDCHAR
STARTCHAR Umacron
ENCODING 362
SWIDTH 600 0
DWIDTH 5 0
BBX 6 7 0 0
BITMAP
00AFA0
0A0073
0A00A0
2800B0
550290
681A40
1CE900
ENDCHAR
STARTCHAR umacron
ENCODING 363
SWIDTH 600 0
DWIDTH 5 0
BBX 5 6 0 0
BITMAP
00DF60
000000
0A00B0
360290
753B60
5EC930
ENDCHAR
STARTCHAR Ubreve
ENCODING 364
SWIDTH 600 0
DWIDTH 5 0
BBX 6 8 0 0
BITMAP
008190
006E50
0A0073
0A00A0
2800B0
550290
681A40
1CE900
ENDCHAR
STARTCHAR ubreve
ENCODING 365
SWIDTH 600 0
DWIDTH 5 0
BBX 5 7 0 0
BITMAP
009280
009D30
000000
0A00B0
360290
753B60
5EC930
ENDCHAR
STARTCHAR Uring
ENCODING 366
SWIDTH 600 0
DWIDTH 5 0
BBX 6 9 0 0
BITMAP
001D40
004560
002E20
0A0073
0A00A0
2800B0
550290
681A40
1CE900
ENDCHAR
STARTCHAR uring
ENCODING 367
SWIDTH 600 0
DWIDTH 5 0
BBX 5 8 0 0
BITMAP
004E20
008630
007D00
000000
0A00B0
360290
753B60
5EC930
ENDCHAR
STARTCHAR Uhungarumlaut
ENCODING 368
SWIDTH 600 0
DWIDTH 5 0
BBX 6 8 0 0
BITMAP
000844
004480
0A0073
0A00A0
2800B0
550290
681A40
1CE900
ENDCHAR
STARTCHAR uhungarumlaut
ENCODING 369
SWIDTH 600 0
DWIDTH 5 0
BBX 6 7 0 0
BITMAP
000871
006360
000000
0A00B0
360290
753B60
5EC930
ENDCHAR
STARTCHAR Uogonek
ENCODING 370
SWIDTH 600 0
DWIDTH 5 0
BBX 6 8 0 -2
BITMAP
0A0073
0A00A0
2800A0
550190
650650
1B9900
062000
0B8000
ENDCHAR
STARTCHAR uogonek
ENCODING 371
SWIDTH 600 0
DWIDTH 5 0
BBX 5 6 0 -2
BITMAP
0A00B0
360290
753B60
5EC930
003400
006D00
ENDCHAR
STARTCHAR Wcircumflex
ENCODING 372
SWIDTH 600 0
DWIDTH 5 0
BBX 6 7 0 0
BITMAP
005750
370019
462155
559591
668790
6A1A60
780E10
ENDCHAR
STARTCHAR wcircumflex
ENCODING 373
SWIDTH 600 0
DWIDTH 5 0
BBX 6 7 0 0
BITMAP
006C10
017250
000000
917445
82A590
884970
792D10
ENDCHAR
STARTCHAR Ycircumflex
ENCODING 374
SWIDTH 600 0
DWIDTH 5 0
BBX 5 7 1 0
BITMAP
067400
B00750
922A00
57B200
1E7000
0B0000
190000
ENDCHAR
STARTCHAR ycircumflex
ENCODING 375
SWIDTH 600 0
DWIDTH 5 0
BBX 7 9 -1 -2
BITMAP
0006C100
00172500
00000000
02900A10
00A06400
00929000
006B1000
00550000
4E800000
ENDCHAR
STARTCHAR Ydieresis
ENCODING 376
SWIDTH 600 0
DWIDTH 5 0
BBX 5 7 1 0
BITMAP
091800
B00750
922A00
57B200
1E7000
0B0000
190000
ENDCHAR
STARTCHAR Zacute
ENCODING 377
SWIDTH 600 0
DWIDTH 5 0
BBX 6 8 0 0
BITMAP
000740
000000
0CFFF3
000480
004800
039000
390000
CFFF60
ENDCHAR
STARTCHAR zacute
ENCODING 378
SWIDTH 600 0
DWIDTH 5 0
BBX 5 7 0 0
BITMAP
000650
003700
000000
0EFFC0
003710
164000
AFFF30
ENDCHAR
STARTCHAR Zdotaccent
ENCODING 379
SWIDTH 600 0
DWIDTH 5 0
BBX 6 7 0 0
BITMAP
000A00
0CFFF3
000480
004800
039000
390000
CFFF60
ENDCHAR
STARTCHAR zdotaccent
ENCODING 380
SWIDTH 600 0
DWIDTH 5 0
BBX 5 6 0 0
BITMAP
002A00
000000
0EFFC0
003710
164000
AFFF30
ENDCHAR
STARTCHAR Zcaron
ENCODING 381
SWIDTH 600 0
DWIDTH 5 0
BBX 6 8 0 0
BITMAP
006750
000000
0CFFF3
000480
004800
039000
390000
CFFF60
ENDCHAR
STARTCHAR zcaron
ENCODING 382
SWIDTH 600 0
DWIDTH 5 0
BBX 5 7 0 0
BITMAP
008270
007B10
000000
0EFFC0
003710
164000
AFFF30
ENDCHAR
STARTCHAR longs
ENCODING 383
SWIDTH 600 0
DWIDTH 5 0
BBX 5 6 1 0
BITMAP
01CE50
077120
DF1000
0A0000
190000
550000
ENDCHAR
STARTCHAR uni0180
ENCODING 384
SWIDTH 600 0
DWIDTH 5 0
BBX 5 6 0 0
BITMAP
073000
4FFF00
0B0000
1DCE80
4B23B0
8CEC20
ENDCHAR
STARTCHAR uni018A
ENCODING 394
SWIDTH 600 0
DWIDTH 5 0
BBX 6 6 0 0
BITMAP
05EE70
38B1C2
80A073
7570A1
064790
09E800
ENDCHAR
STARTCHAR uni018F
ENCODING 399
SWIDTH 600 0
DWIDTH 5 0
BBX 5 6 0 0
BITMAP
01BE70
0331C0
000090
7FFFD0
750560
2DE800
ENDCHAR
STARTCHAR uni0192
ENCODING 402
SWIDTH 600 0
DWIDTH 5 0
BBX 7 7 -1 -1
BITMAP
00009E40
00039110
006FF800
000A0000
00290000
01940000
2EA00000
ENDCHAR
STARTCHAR uni0193
ENCODING 403
SWIDTH 600 0
DWIDTH 5 0
BBX 6 7 0 0
BITMAP
00007C
01BEE1
0B6160
480FC0
650090
5A1470
0AEC20
ENDCHAR
STARTCHAR Ohorn
ENCODING 416
SWIDTH 600 0
DWIDTH 5 0
BBX 6 7 0 0
BITMAP
000008
03DEC5
1C31B0
7500A1
9200C0
761880
1CE900
ENDCHAR
STARTCHAR ohorn
ENCODING 417
SWIDTH 600 0
DWIDTH 5 0
BBX 6 5 0 0
BITMAP
000045
08EDB1
681290
851690
2CEA10
ENDCHAR
STARTCHAR Uhorn
ENCODING 431
SWIDTH 600 0
DWIDTH 5 0
BBX 7 8 0 0
BITMAP
00000350
00000530
0A007300
0A00A000
2800B000
5502A000
681A5000
1CE90000
ENDCHAR
STARTCHAR uhorn
ENCODING 432
SWIDTH 600 0
DWIDTH 5 0
BBX 6 6 0 0
BITMAP
000008
00001B
0A00D6
3602B0
753B70
5EC930
ENDCHAR
STARTCHAR uni01C2
ENCODING 450
SWIDTH 600 0
DWIDTH 5 0
BBX 5 8 0 -2
BITMAP
001900
005500
2EFFA0
00A000
6EFF50
01A000
046000
073000
ENDCHAR
STARTCHAR uni01CD
ENCODING 461
SWIDTH 600 0
DWIDTH 5 0
BBX 6 8 -1 0
BITMAP
000576
000000
0004C0
000A90
005682
00C173
06FFF5
1C2047
ENDCHAR
STARTCHAR uni01CE
ENCODING 462
SWIDTH 600 0
DWIDTH 5 0
BBX 5 7 0 0
BITMAP
007180
004D20
000000
07EDB0
4A13A0
751970
3EDB30
ENDCHAR
STARTCHAR uni01CF
ENCODING 463
SWIDTH 600 0
DWIDTH 5 0
BBX 6 8 0 0
BITMAP
005760
000000
08FFF1
004600
008300
00A000
00A000
9FFF00
ENDCHAR
STARTCHAR uni01D0
ENCODING 464
SWIDTH 600 0
DWIDTH 5 0
BBX 4 7 1 0
BITMAP
0726
08A0
0000
FF30
0800
0A11
0CE2
ENDCHAR
STARTCHAR uni01D1
ENCODING 465
SWIDTH 600 0
DWIDTH 5 0
BBX 6 8 0 0
BITMAP
005760
000000
03DE60
1C31C0
7500A1
9200B0
761870
1CE900
ENDCHAR
STARTCHAR uni01D2
ENCODING 466
SWIDTH 600 0
DWIDTH 5 0
BBX 5 7 0 0
BITMAP
008170
006C10
000000
08ED40
6812A0
851680
2CEA10
ENDCHAR
STARTCHAR uni01D3
ENCODING 467
SWIDTH 600 0
DWIDTH 5 0
BBX 6 8 0 0
BITMAP
005760
000000
0A0073
0A00A0
2800B0
550290
681A40
1CE900
ENDCHAR
STARTCHAR uni01D4
ENCODING 468
SWIDTH 600 0
DWIDTH 5 0
BBX 5 7 0 0
BITMAP
008170
006C10
000000
0A00B0
360290
753B60
5EC930
ENDCHAR
STARTCHAR uni01D5
ENCODING 469
SWIDTH 600 0
DWIDTH 5 0
BBX 6 9 0 0
BITMAP
007FC0
000000
008080
0A0073
0A00A0
2800B0
550290
681A40
1CE900
ENDCHAR
STARTCHAR uni01D6
ENCODING 470
SWIDTH 600 0
DWIDTH 5 0
BBX 5 8 0 0
BITMAP
009FA0
000000
008250
000000
0A00B0
360290
753B60
5EC930
ENDCHAR
STARTCHAR uni01D7
ENCODING 471
SWIDTH 600 0
DWIDTH 5 0
BBX 6 9 0 0
BITMAP
000440
000000
008080
0A0073
0A00A0
2800B0
550290
681A40
1CE900
ENDCHAR
STARTCHAR uni01D8
ENCODING 472
SWIDTH 600 0
DWIDTH 5 0
BBX 5 7 0 0
BITMAP
000520
008250
000000
0A00B0
360290
753B60
5EC930
ENDCHAR
STARTCHAR uni01D9
ENCODING 473
SWIDTH 600 0
DWIDTH 5 0
BBX 6 9 0 0
BITMAP
002860
000000
008080
0A0073
0A00A0
2800B0
550290
681A40
1CE900
ENDCHAR
STARTCHAR uni01DA
ENCODING 474
SWIDTH 600 0
DWIDTH 5 0
BBX 5 8 0 0
BITMAP
004840
000000
008250
000000
0A00B0
360290
753B60
5EC930
ENDCHAR
STARTCHAR uni01DB
ENCODING 475
SWIDTH 600 0
DWIDTH 5 0
BBX 6 9 0 0
BITMAP
001700
000000
008080
0A0073
0A00A0
2800B0
550290
681A40
1CE900
ENDCHAR
STARTCHAR uni01DC
ENCODING 476
SWIDTH 600 0
DWIDTH 5 0
BBX 5 7 0 0
BITMAP
001600
008250
000000
0A00B0
360290
753B60
5EC930
ENDCHAR
STARTCHAR uni01E2
ENCODING 482
SWIDTH 600 0
DWIDTH 5 0
BBX 7 7 -1 0
BITMAP
0000AFA0
0004EFC0
000A9000
0075EE00
02B26000
0AFF3000
4A08FC00
ENDCHAR
STARTCHAR uni01E3
ENCODING 483
SWIDTH 600 0
DWIDTH 5 0
BBX 7 6 -1 0
BITMAP
000DF700
00000000
03DBAE30
026CDD50
1B9C3400
1EC9E700
ENDCHAR
STARTCHAR Gcaron
ENCODING 486
SWIDTH 600 0
DWIDTH 5 0
BBX 5 8 0 0
BITMAP
003870
000000
01BE80
0B6160
480000
650FC0
5A1280
0AED30
ENDCHAR
STARTCHAR gcaron
ENCODING 487
SWIDTH 600 0
DWIDTH 5 0
BBX 5 9 0 -2
BITMAP
007180
004D20
000000
07EDA0
3A13A0
740770
3EED40
423B10
6ED500
ENDCHAR
STARTCHAR uni01EA
ENCODING 490
SWIDTH 600 0
DWIDTH 5 0
BBX 6 8 0 -2
BITMAP
03DE60
1C31C0
7500A1
9200B0
861880
2CF900
061000
0B8000
ENDCHAR
STARTCHAR uni01EB
ENCODING 491
SWIDTH 600 0
DWIDTH 5 0
BBX 5 6 0 -2
BITMAP
08ED40
5812A0
851680
3DFA10
062000
0B8000
ENDCHAR
STARTCHAR uni01F4
ENCODING 500
SWIDTH 600 0
DWIDTH 5 0
BBX 5 8 0 0
BITMAP
000560
000000
01BE80
0B6160
480000
650FC0
5A1280
0AED30
ENDCHAR
STARTCHAR uni01F5
ENCODING 501
SWIDTH 600 0
DWIDTH 5 0
BBX 5 9 0 -2
BITMAP
000470
001900
000000
07EDA0
3A13A0
740770
3EED40
423B10
6ED500
ENDCHAR
STARTCHAR uni01F8
ENCODING 504
SWIDTH 600 0
DWIDTH 5 0
BBX 6 8 0 0
BITMAP
006400
000900
0A4082
0A80A0
1890A0
466490
732B60
A00C30
ENDCHAR
STARTCHAR uni01F9
ENCODING 505
SWIDTH 600 0
DWIDTH 5 0
BBX 5 7 0 0
BITMAP
005500
000900
000000
0AAE80
2D41A0
560270
820640
ENDCHAR
STARTCHAR Aringacute
ENCODING 506
SWIDTH 600 0
DWIDTH 5 0
BBX 6 9 -1 0
BITMAP
000002
000125
0003E4
0004D0
000AA0
005382
00DFF3
064055
1A0047
ENDCHAR
STARTCHAR aringacute
ENCODING 507
SWIDTH 600 0
DWIDTH 5 0
BBX 5 8 0 0
BITMAP
000430
004F40
005E30
000000
07EDB0
4A12A0
751770
3EDB30
ENDCHAR
STARTCHAR AEacute
ENCODING 508
SWIDTH 600 0
DWIDTH 5 0
BBX 7 8 -1 0
BITMAP
00000650
00000000
0004EFC0
000A9000
0075EE00
02B26000
0AFF3000
4A08FC00
ENDCHAR
STARTCHAR aeacute
ENCODING 509
SWIDTH 600 0
DWIDTH 5 0
BBX 7 7 -1 0
BITMAP
00005500
00028000
00000000
03DBAE30
026CDD50
1B9C3400
1EC9E700
ENDCHAR
STARTCHAR Oslashacute
ENCODING 510
SWIDTH 600 0
DWIDTH 5 0
BBX 6 9 0 -1
BITMAP
000640
000001
03DEA5
1C35D0
7538A1
9490C0
7A1870
ACE900
100000
ENDCHAR
STARTCHAR oslashacute
ENCODING 511
SWIDTH 600 0
DWIDTH 5 0
BBX 5 8 0 -1
BITMAP
000550
002800
000010
08EDA0
6958A0
886780
9CEA10
100000
ENDCHAR
STARTCHAR uni0218
ENCODING 536
SWIDTH 600 0
DWIDTH 5 0
BBX 5 8 0 -2
BITMAP
04DD30
0A3260
05A200
002B20
641940
1BEA00
03A000
0B7000
ENDCHAR
STARTCHAR uni0219
ENCODING 537
SWIDTH 600 0
DWIDTH 5 0
BBX 5 6 0 -2
BITMAP
08EC20
096440
343A20
1AFC10
03A000
0B7000
ENDCHAR
STARTCHAR uni021A
ENCODING 538
SWIDTH 600 0
DWIDTH 5 0
BBX 6 8 0 -2
BITMAP
1FFFF8
004600
007300
00A000
00A000
029000
067000
0E4000
ENDCHAR
STARTCHAR uni021B
ENCODING 539
SWIDTH 600 0
DWIDTH 5 0
BBX 5 7 0 -2
BITMAP
009000
4EFFD0
037000
074210
05EC20
00B200
05C100
ENDCHAR
STARTCHAR uni0237
ENCODING 567
SWIDTH 600 0
DWIDTH 5 0
BBX 5 6 -1 -2
BITMAP
00BFD0
000090
000370
000740
021C10
1CE600
ENDCHAR
STARTCHAR uni0243
ENCODING 579
SWIDTH 600 0
DWIDTH 5 0
BBX 5 6 0 0
BITMAP
09FFA0
0CFE30
180580
EFC1A0
641770
8FEA00
ENDCHAR
STARTCHAR uni0250
ENCODING 592
SWIDTH 600 0
DWIDTH 5 0
BBX 5 4 0 0
BITMAP
0BBE80
3FFB40
661500
3EE700
ENDCHAR
STARTCHAR uni0251
ENCODING 593
SWIDTH 600 0
DWIDTH 5 0
BBX 5 4 0 0
BITMAP
07EDB0
4A13A0
751970
3EDB30
ENDCHAR
STARTCHAR uni0252
ENCODING 594
SWIDTH 600 0
DWIDTH 5 0
BBX 5 4 0 0
BITMAP
0BBE60
2C32B0
571590
8BEA10
ENDCHAR
STARTCHAR uni0253
ENCODING 595
SWIDTH 600 0
DWIDTH 5 0
BBX 5 6 0 0
BITMAP
03DC00
0A4100
0CBE60
2C22B0
571590
8BEA10
ENDCHAR
STARTCHAR uni0254
ENCODING 596
SWIDTH 600 0
DWIDTH 5 0
BBX 5 4 0 0
BITMAP
07EC20
051580
511860
4EE800
ENDCHAR
STARTCHAR uni0255
ENCODING 597
SWIDTH 600 0
DWIDTH 5 0
BBX 5 5 0 -1
BITMAP
06DE40
39AF80
4D7650
2CEB10
720000
ENDCHAR
STARTCHAR uni0256
ENCODING 598
SWIDTH 600 0
DWIDTH 5 0
BBX 6 8 0 -2
BITMAP
000064
000091
07EDB0
4A1390
751960
3EDC30
000A10
000890
ENDCHAR
STARTCHAR uni0257
ENCODING 599
SWIDTH 600 0
DWIDTH 5 0
BBX 7 6 0 0
BITMAP
00003E20
00009400
07EDC000
4A13A000
75197000
3EDB3000
ENDCHAR
STARTCHAR uni0258
ENCODING 600
SWIDTH 600 0
DWIDTH 5 0
BBX 5 4 0 0
BITMAP
08EE40
4FFFA0
231680
1CEA10
ENDCHAR
STARTCHAR uni0259
ENCODING 601
SWIDTH 600 0
DWIDTH 5 0
BBX 5 4 0 0
BITMAP
05EE50
0412B0
7FFF80
3DEA10
ENDCHAR
STARTCHAR uni025A
ENCODING 602
SWIDTH 600 0
DWIDTH 5 0
BBX 6 4 0 0
BITMAP
1BE610
147DA8
A56800
AEA100
ENDCHAR
STARTCHAR uni025B
ENCODING 603
SWIDTH 600 0
DWIDTH 5 0
BBX 5 4 0 0
BITMAP
09ED40
1BF950
770310
3DFA10
ENDCHAR
STARTCHAR uni025C
ENCODING 604
SWIDTH 600 0
DWIDTH 5 0
BBX 5 4 0 0
BITMAP
06DE60
05FE20
430850
1BFB10
ENDCHAR
STARTCHAR uni025E
ENCODING 606
SWIDTH 600 0
DWIDTH 5 0
BBX 5 4 0 0
BITMAP
07DE70
58AE30
850760
2CFC20
ENDCHAR
STARTCHAR uni025F
ENCODING 607
SWIDTH 600 0
DWIDTH 5 0
BBX 6 6 -1 -2
BITMAP
00BFC0
00CFFE
000460
000830
021D00
1CE600
ENDCHAR
STARTCHAR uni0260
ENCODING 608
SWIDTH 600 0
DWIDTH 5 0
BBX 6 8 0 -2
BITMAP
00003E
000092
07EDA0
4A1390
751860
3DDC30
412C00
6ED500
ENDCHAR
STARTCHAR uni0261
ENCODING 609
SWIDTH 600 0
DWIDTH 5 0
BBX 5 6 0 -2
BITMAP
07EDA0
3A13A0
740770
3EED40
423B10
6ED500
ENDCHAR
STARTCHAR uni0262
ENCODING 610
SWIDTH 600 0
DWIDTH 5 0
BBX 5 4 0 0
BITMAP
06DE40
3A5FD0
670560
1BEC20
ENDCHAR
STARTCHAR uni0263
ENCODING 611
SWIDTH 600 0
DWIDTH 5 0
BBX 6 6 0 -2
BITMAP
1900A1
0A0730
084800
05C000
08A000
0DA000
ENDCHAR
STARTCHAR uni0264
ENCODING 612
SWIDTH 600 0
DWIDTH 5 0
BBX 5 4 0 0
BITMAP
1E9AD0
048910
191B00
1DE700
ENDCHAR
STARTCHAR uni0265
ENCODING 613
SWIDTH 600 0
DWIDTH 5 0
BBX 5 6 0 -2
BITMAP
0A00B0
3602A0
752B60
5ECA30
000A00
000A00
ENDCHAR
STARTCHAR uni0266
ENCODING 614
SWIDTH 600 0
DWIDTH 5 0
BBX 5 6 0 0
BITMAP
03DC00
0A4100
0CAE80
2D41A0
560270
820640
ENDCHAR
STARTCHAR uni0267
ENCODING 615
SWIDTH 600 0
DWIDTH 5 0
BBX 5 8 0 -2
BITMAP
03DC00
0A4100
0CAE80
2D41A0
560280
820650
000A20
00BA00
ENDCHAR
STARTCHAR uni0268
ENCODING 616
SWIDTH 600 0
DWIDTH 5 0
BBX 5 6 0 0
BITMAP
004800
000000
0FF200
3FFF50
00B110
00CE20
ENDCHAR
STARTCHAR uni026A
ENCODING 618
SWIDTH 600 0
DWIDTH 5 0
BBX 5 4 0 0
BITMAP
0DFFC0
009200
00B000
9FFF00
ENDCHAR
STARTCHAR uni026B
ENCODING 619
SWIDTH 600 0
DWIDTH 5 0
BBX 5 6 0 0
BITMAP
0AF600
017310
0BF630
16EC00
028100
02DD10
ENDCHAR
STARTCHAR uni026C
ENCODING 620
SWIDTH 600 0
DWIDTH 5 0
BBX 5 6 0 0
BITMAP
0AF600
1EC300
37D000
1DFF10
019100
02DD10
ENDCHAR
STARTCHAR uni026D
ENCODING 621
SWIDTH 600 0
DWIDTH 5 0
BBX 3 8 1 -2
BITMAP
AF60
0630
0800
0800
1800
4400
7410
5E90
ENDCHAR
STARTCHAR uni026E
ENCODING 622
SWIDTH 600 0
DWIDTH 5 0
BBX 6 8 0 -2
BITMAP
0A1000
0B0000
1FFFF3
481530
74CE40
A01480
141850
0AE900
ENDCHAR
STARTCHAR uni026F
ENCODING 623
SWIDTH 600 0
DWIDTH 5 0
BBX 6 4 0 0
BITMAP
567392
82A0B0
A3A4A0
CBDB70
ENDCHAR
STARTCHAR uni0270
ENCODING 624
SWIDTH 600 0
DWIDTH 5 0
BBX 6 6 0 -2
BITMAP
557391
81A0C0
A3A5A0
CBDC70
000640
000910
ENDCHAR
STARTCHAR uni0271
ENCODING 625
SWIDTH 600 0
DWIDTH 5 0
BBX 6 6 0 -2
BITMAP
4CEAE1
7786A0
A1A0A0
B09290
000660
005D10
ENDCHAR
STARTCHAR uni0272
ENCODING 626
SWIDTH 600 0
DWIDTH 5 0
BBX 6 6 -1 -2
BITMAP
00AAE8
02D41A
057027
083064
0C0000
B90000
ENDCHAR
STARTCHAR uni0273
ENCODING 627
SWIDTH 600 0
DWIDTH 5 0
BBX 5 6 0 -2
BITMAP
09AE80
2D41A0
560170
820540
000820
0008A0
ENDCHAR
STARTCHAR uni0274
ENCODING 628
SWIDTH 600 0
DWIDTH 5 0
BBX 5 4 0 0
BITMAP
0C3190
0A9460
378930
741E00
ENDCHAR
STARTCHAR uni0275
ENCODING 629
SWIDTH 600 0
DWIDTH 5 0
BBX 5 4 0 0
BITMAP
08ED40
6FFFB0
841680
2CEA10
ENDCHAR
STARTCHAR uni0276
ENCODING 630
SWIDTH 600 0
DWIDTH 5 0
BBX 6 4 0 0
BITMAP
2BFA53
A43FD0
B17300
8FFFD0
ENDCHAR
STARTCHAR uni0278
ENCODING 632
SWIDTH 600 0
DWIDTH 5 0
BBX 5 8 0 -2
BITMAP
000B00
003800
1AEE60
9594C0
B2B3B0
4EFB20
056000
083000
ENDCHAR
STARTCHAR uni0279
ENCODING 633
SWIDTH 600 0
DWIDTH 5 0
BBX 5 4 0 0
BITMAP
000650
000A10
118D00
8E6900
ENDCHAR
STARTCHAR uni027A
ENCODING 634
SWIDTH 600 0
DWIDTH 5 0
BBX 5 6 0 0
BITMAP
0000A0
000290
000650
000A20
118D00
8E6900
ENDCHAR
STARTCHAR uni027B
ENCODING 635
SWIDTH 600 0
DWIDTH 5 0
BBX 4 6 0 -2
BITMAP
001A
0047
11B4
8DB1
00A1
00AA
ENDCHAR
STARTCHAR uni027D
ENCODING 637
SWIDTH 600 0
DWIDTH 5 0
BBX 5 6 0 -2
BITMAP
056CC0
08B210
0B1000
0A0000
2A1100
1DD300
ENDCHAR
STARTCHAR uni027E
ENCODING 638
SWIDTH 600 0
DWIDTH 5 0
BBX 4 4 1 0
BITMAP
1BFC
8701
B000
A000
ENDCHAR
STARTCHAR uni0280
ENCODING 640
SWIDTH 600 0
DWIDTH 5 0
BBX 5 4 0 0
BITMAP
09FE60
0CFC30
192900
460A00
ENDCHAR
STARTCHAR uni0281
ENCODING 641
SWIDTH 600 0
DWIDTH 5 0
BBX 5 4 0 0
BITMAP
083470
0AFF40
580B10
3EFC00
ENDCHAR
STARTCHAR uni0282
ENCODING 642
SWIDTH 600 0
DWIDTH 5 0
BBX 5 6 0 -2
BITMAP
08EC20
096440
443A20
9CFC10
A00000
890000
ENDCHAR
STARTCHAR uni0283
ENCODING 643
SWIDTH 600 0
DWIDTH 5 0
BBX 7 8 -1 -2
BITMAP
0000AE50
0003B120
00066000
00093000
000C0000
001B0000
02680000
1CD20000
ENDCHAR
STARTCHAR uni0284
ENCODING 644
SWIDTH 600 0
DWIDTH 5 0
BBX 7 8 -1 -2
BITMAP
0000AE50
0003A120
00074000
03EFF900
000B0000
001A0000
02670000
1CD20000
ENDCHAR
STARTCHAR uni0287
ENCODING 647
SWIDTH 600 0
DWIDTH 5 0
BBX 5 5 0 -1
BITMAP
0AE800
021A00
003600
9FFF70
009000
ENDCHAR
STARTCHAR uni0288
ENCODING 648
SWIDTH 600 0
DWIDTH 5 0
BBX 5 7 0 -2
BITMAP
009000
4EFFD0
037000
064000
090000
0B1200
09E900
ENDCHAR
STARTCHAR uni0289
ENCODING 649
SWIDTH 600 0
DWIDTH 5 0
BBX 6 4 0 0
BITMAP
0A0280
BFFFF2
382C20
2ECB00
ENDCHAR
STARTCHAR uni028A
ENCODING 650
SWIDTH 600 0
DWIDTH 5 0
BBX 5 4 0 0
BITMAP
2F89F0
170450
661860
3DE900
ENDCHAR
STARTCHAR uni028B
ENCODING 651
SWIDTH 600 0
DWIDTH 5 0
BBX 5 4 0 0
BITMAP
0A0D80
3601A0
661860
3DE800
ENDCHAR
STARTCHAR uni028C
ENCODING 652
SWIDTH 600 0
DWIDTH 5 0
BBX 5 4 0 0
BITMAP
009900
055A00
190910
910650
ENDCHAR
STARTCHAR uni028D
ENCODING 653
SWIDTH 600 0
DWIDTH 5 0
BBX 6 4 -1 0
BITMAP
00B56A
03968A
093B3A
27190A
ENDCHAR
STARTCHAR uni028E
ENCODING 654
SWIDTH 600 0
DWIDTH 5 0
BBX 6 6 0 0
BITMAP
0004D8
001810
009900
055A00
190910
910550
ENDCHAR
STARTCHAR uni028F
ENCODING 655
SWIDTH 600 0
DWIDTH 5 0
BBX 4 4 1 0
BITMAP
B03A
76B1
2F40
1A00
ENDCHAR
STARTCHAR uni0290
ENCODING 656
SWIDTH 600 0
DWIDTH 5 0
BBX 5 6 0 -2
BITMAP
0EFFC0
003710
164000
AFFF30
000920
0007B0
ENDCHAR
STARTCHAR uni0291
ENCODING 657
SWIDTH 600 0
DWIDTH 5 0
BBX 5 5 0 -1
BITMAP
0EFFA0
003DE0
175990
AFFE70
008000
ENDCHAR
STARTCHAR uni0292
ENCODING 658
SWIDTH 600 0
DWIDTH 5 0
BBX 5 6 0 -2
BITMAP
0BFF60
003000
0AFA00
011A20
613B00
7EC300
ENDCHAR
STARTCHAR uni0294
ENCODING 660
SWIDTH 600 0
DWIDTH 5 0
BBX 4 6 1 0
BITMAP
3DE7
522B
0026
0630
1800
5500
ENDCHAR
STARTCHAR uni0295
ENCODING 661
SWIDTH 600 0
DWIDTH 5 0
BBX 5 6 1 0
BITMAP
2CE700
951710
820000
082000
0A1000
0B0000
ENDCHAR
STARTCHAR uni0298
ENCODING 664
SWIDTH 600 0
DWIDTH 5 0
BBX 5 6 0 0
BITMAP
02CE60
0B51B0
3883A0
5401A0
571A50
1CE700
ENDCHAR
STARTCHAR uni0299
ENCODING 665
SWIDTH 600 0
DWIDTH 5 0
BBX 5 4 0 0
BITMAP
0AFF70
0DFE20
180850
4FFB10
ENDCHAR
STARTCHAR uni029C
ENCODING 668
SWIDTH 600 0
DWIDTH 5 0
BBX 5 4 0 0
BITMAP
0901B0
2FFF80
540650
920920
ENDCHAR
STARTCHAR uni029D
ENCODING 669
SWIDTH 600 0
DWIDTH 5 0
BBX 5 9 0 -3
BITMAP
000930
000000
0BFD00
000900
005600
9EC200
A3E000
AD9400
002500
ENDCHAR
STARTCHAR uni029E
ENCODING 670
SWIDTH 600 0
DWIDTH 5 0
BBX 5 6 0 -2
BITMAP
2901A0
085C70
04B840
670A10
000A00
001900
ENDCHAR
STARTCHAR uni029F
ENCODING 671
SWIDTH 600 0
DWIDTH 5 0
BBX 4 4 1 0
BITMAP
4600
8200
9000
EFF6
ENDCHAR
STARTCHAR uni02A1
ENCODING 673
SWIDTH 600 0
DWIDTH 5 0
BBX 5 6 0 0
BITMAP
03DE80
0521B0
002530
3EFF70
029000
055000
ENDCHAR
STARTCHAR uni02A2
ENCODING 674
SWIDTH 600 0
DWIDTH 5 0
BBX 6 6 0 0
BITMAP
03CE70
094171
046000
2EFF80
00A100
00A000
ENDCHAR
STARTCHAR uni02A4
ENCODING 676
SWIDTH 600 0
DWIDTH 5 0
BBX 7 8 -1 -2
BITMAP
0000A000
00037000
04ECFFC0
0B2A3510
2A3CBD10
0DB90930
00041B10
0009E600
ENDCHAR
STARTCHAR uni02A6
ENCODING 678
SWIDTH 600 0
DWIDTH 5 0
BBX 5 6 0 0
BITMAP
021000
091000
7FFFC0
192B30
4603A0
3DFD50
ENDCHAR
STARTCHAR uni02A7
ENCODING 679
SWIDTH 600 0
DWIDTH 5 0
BBX 6 8 0 -2
BITMAP
00006E
0460C1
2FFFA0
090460
090830
1E8B00
002B00
03E500
ENDCHAR
STARTCHAR h.sups
ENCODING 688
SWIDTH 600 0
DWIDTH 5 0
BBX 4 6 1 2
BITMAP
0200
0800
09C7
0A19
2627
2222
ENDCHAR
STARTCHAR j.sups
ENCODING 690
SWIDTH 600 0
DWIDTH 5 0
BBX 4 6 1 2
BITMAP
0063
0000
0DD0
0070
1370
9D20
ENDCHAR
STARTCHAR r.sups
ENCODING 691
SWIDTH 600 0
DWIDTH 5 0
BBX 3 4 2 2
BITMAP
5BB0
8500
8000
4000
ENDCHAR
STARTCHAR w.sups
ENCODING 695
SWIDTH 600 0
DWIDTH 5 0
BBX 5 3 1 3
BITMAP
839620
898900
77A400
ENDCHAR
STARTCHAR y.sups
ENCODING 696
SWIDTH 600 0
DWIDTH 5 0
BBX 4 4 1 2
BITMAP
0817
0671
0850
A900
ENDCHAR
STARTCHAR uni02B9
ENCODING 697
SWIDTH 600 0
DWIDTH 5 0
BBX 2 2 2 4
BITMAP
0A
34
ENDCHAR
STARTCHAR uni02BB
ENCODING 699
SWIDTH 600 0
DWIDTH 5 0
BBX 3 3 2 4
BITMAP
1A40
8700
8800
ENDCHAR
STARTCHAR uni02BC
ENCODING 700
SWIDTH 600 0
DWIDTH 5 0
BBX 2 3 2 3
BITMAP
4D
4C
C3
ENDCHAR
STARTCHAR uni02BE
ENCODING 702
SWIDTH 600 0
DWIDTH 5 0
BBX 3 4 2 4
BITMAP
4900
0910
3900
1000
ENDCHAR
STARTCHAR uni02BF
ENCODING 703
SWIDTH 600 0
DWIDTH 5 0
BBX 3 4 2 4
BITMAP
0110
2810
6500
1C00
ENDCHAR
STARTCHAR uni02C1
ENCODING 705
SWIDTH 600 0
DWIDTH 5 0
BBX 3 4 2 4
BITMAP
3E60
9130
8200
1700
ENDCHAR
STARTCHAR circumflex
ENCODING 710
SWIDTH 600 0
DWIDTH 5 0
BBX 4 2 1 5
BITMAP
05D1
1826
ENDCHAR
STARTCHAR caron
ENCODING 711
SWIDTH 600 0
DWIDTH 5 0
BBX 3 2 2 5
BITMAP
8170
6C10
ENDCHAR
STARTCHAR uni02C8
ENCODING 712
SWIDTH 600 0
DWIDTH 5 0
BBX 2 3 2 3
BITMAP
1B
37
43
ENDCHAR
STARTCHAR uni02C9
ENCODING 713
SWIDTH 600 0
DWIDTH 5 0
BBX 3 1 2 5
BITMAP
DF60
ENDCHAR
STARTCHAR uni02CA
ENCODING 714
SWIDTH 600 0
DWIDTH 5 0
BBX 3 2 2 5
BITMAP
0550
2800
ENDCHAR
STARTCHAR uni02CB
ENCODING 715
SWIDTH 600 0
DWIDTH 5 0
BBX 2 2 2 5
BITMAP
63
18
ENDCHAR
STARTCHAR uni02CC
ENCODING 716
SWIDTH 600 0
DWIDTH 5 0
BBX 2 3 1 -2
BITMAP
17
55
93
ENDCHAR
STARTCHAR uni02D0
ENCODING 720
SWIDTH 600 0
DWIDTH 5 0
BBX 3 4 1 0
BITMAP
0840
0000
0000
3900
ENDCHAR
STARTCHAR uni02D1
ENCODING 721
SWIDTH 600 0
DWIDTH 5 0
BBX 2 1 2 3
BITMAP
84
ENDCHAR
STARTCHAR breve
ENCODING 728
SWIDTH 600 0
DWIDTH 5 0
BBX 3 2 2 5
BITMAP
9290
9D30
ENDCHAR
STARTCHAR dotaccent
ENCODING 729
SWIDTH 600 0
DWIDTH 5 0
BBX 2 1 2 5
BITMAP
2A
ENDCHAR
STARTCHAR ring
ENCODING 730
SWIDTH 600 0
DWIDTH 5 0
BBX 3 3 2 5
BITMAP
4E20
8640
6D10
ENDCHAR
STARTCHAR ogonek
ENCODING 731
SWIDTH 600 0
DWIDTH 5 0
BBX 2 2 1 -2
BITMAP
52
B8
ENDCHAR
STARTCHAR tilde
ENCODING 732
SWIDTH 600 0
DWIDTH 5 0
BBX 4 2 1 5
BITMAP
0856
25A8
ENDCHAR
STARTCHAR hungarumlaut
ENCODING 733
SWIDTH 600 0
DWIDTH 5 0
BBX 4 2 2 5
BITMAP
0871
6360
ENDCHAR
STARTCHAR uni02DE
ENCODING 734
SWIDTH 600 0
DWIDTH 5 0
BBX 3 2 1 2
BITMAP
1950
01D0
ENDCHAR
STARTCHAR uni02E0
ENCODING 736
SWIDTH 600 0
DWIDTH 5 0
BBX 3 4 2 2
BITMAP
7070
7610
3600
C500
ENDCHAR
STARTCHAR l.sups
ENCODING 737
SWIDTH 600 0
DWIDTH 5 0
BBX 3 5 2 3
BITMAP
5D00
0600
0600
2500
3E20
ENDCHAR
STARTCHAR s.sups
ENCODING 738
SWIDTH 600 0
DWIDTH 5 0
BBX 4 3 1 3
BITMAP
09E2
1301
0CD1
ENDCHAR
STARTCHAR x.sups
ENCODING 739
SWIDTH 600 0
DWIDTH 5 0
BBX 4 3 1 3
BITMAP
0854
0690
2670
ENDCHAR
STARTCHAR uni02E4
ENCODING 740
SWIDTH 600 0
DWIDTH 5 0
BBX 3 5 2 3
BITMAP
3E60
9130
8200
1700
3400
ENDCHAR
STARTCHAR uni0300
ENCODING 768
SWIDTH 600 0
DWIDTH 5 0
BBX 2 2 2 5
BITMAP
63
18
ENDCHAR
STARTCHAR uni0301
ENCODING 769
SWIDTH 600 0
DWIDTH 5 0
BBX 3 2 2 5
BITMAP
0550
2800
ENDCHAR
STARTCHAR uni0302
ENCODING 770
SWIDTH 600 0
DWIDTH 5 0
BBX 4 2 1 5
BITMAP
05D1
1826
ENDCHAR
STARTCHAR uni0303
ENCODING 771
SWIDTH 600 0
DWIDTH 5 0
BBX 4 2 1 5
BITMAP
0856
25A8
ENDCHAR
STARTCHAR uni0304
ENCODING 772
SWIDTH 600 0
DWIDTH 5 0
BBX 3 1 2 5
BITMAP
DF60
ENDCHAR
STARTCHAR uni0305
ENCODING 773
SWIDTH 600 0
DWIDTH 5 0
BBX 3 1 2 5
BITMAP
DF60
ENDCHAR
STARTCHAR uni0306
ENCODING 774
SWIDTH 600 0
DWIDTH 5 0
BBX 3 2 2 5
BITMAP
9290
9D30
ENDCHAR
STARTCHAR uni0307
ENCODING 775
SWIDTH 600 0
DWIDTH 5 0
BBX 2 1 2 5
BITMAP
2A
ENDCHAR
STARTCHAR uni0308
ENCODING 776
SWIDTH 600 0
DWIDTH 5 0
BBX 3 1 2 5
BITMAP
A370
ENDCHAR
STARTCHAR uni0309
ENCODING 777
SWIDTH 600 0
DWIDTH 5 0
BBX 2 3 2 5
BITMAP
2C
0B
29
ENDCHAR
STARTCHAR uni030A
ENCODING 778
SWIDTH 600 0
DWIDTH 5 0
BBX 3 3 2 5
BITMAP
4E20
8640
6D10
ENDCHAR
STARTCHAR uni030B
ENCODING 779
SWIDTH 600 0
DWIDTH 5 0
BBX 4 2 2 5
BITMAP
0871
6360
ENDCHAR
STARTCHAR uni030C
ENCODING 780
SWIDTH 600 0
DWIDTH 5 0
BBX 3 2 2 5
BITMAP
8170
6C10
ENDCHAR
STARTCHAR uni030F
ENCODING 783
SWIDTH 600 0
DWIDTH 5 0
BBX 3 2 1 5
BITMAP
4480
1770
ENDCHAR
STARTCHAR uni0310
ENCODING 784
SWIDTH 600 0
DWIDTH 5 0
BBX 3 3 2 5
BITMAP
0900
9390
9E30
ENDCHAR
STARTCHAR uni0311
ENCODING 785
SWIDTH 600 0
DWIDTH 5 0
BBX 4 2 1 5
BITMAP
07E4
1828
ENDCHAR
STARTCHAR uni0312
ENCODING 786
SWIDTH 600 0
DWIDTH 5 0
BBX 2 2 2 5
BITMAP
16
38
ENDCHAR
STARTCHAR uni0313
ENCODING 787
SWIDTH 600 0
DWIDTH 5 0
BBX 2 2 2 5
BITMAP
0B
15
ENDCHAR
STARTCHAR uni0318
ENCODING 792
SWIDTH 600 0
DWIDTH 5 0
BBX 2 3 1 -3
BITMAP
05
C9
04
ENDCHAR
STARTCHAR uni0319
ENCODING 793
SWIDTH 600 0
DWIDTH 5 0
BBX 2 3 1 -3
BITMAP
40
D8
40
ENDCHAR
STARTCHAR uni031A
ENCODING 794
SWIDTH 600 0
DWIDTH 5 0
BBX 2 2 3 4
BITMAP
E7
14
ENDCHAR
STARTCHAR uni031B
ENCODING 795
SWIDTH 600 0
DWIDTH 5 0
BBX 3 2 2 4
BITMAP
0460
1D20
ENDCHAR
STARTCHAR uni031C
ENCODING 796
SWIDTH 600 0
DWIDTH 5 0
BBX 2 3 1 -3
BITMAP
66
90
82
ENDCHAR
STARTCHAR uni031D
ENCODING 797
SWIDTH 600 0
DWIDTH 5 0
BBX 2 1 1 -2
BITMAP
FA
ENDCHAR
STARTCHAR uni031E
ENCODING 798
SWIDTH 600 0
DWIDTH 5 0
BBX 2 1 1 -2
BITMAP
EC
ENDCHAR
STARTCHAR uni031F
ENCODING 799
SWIDTH 600 0
DWIDTH 5 0
BBX 2 3 1 -3
BITMAP
22
FB
40
ENDCHAR
STARTCHAR uni0320
ENCODING 800
SWIDTH 600 0
DWIDTH 5 0
BBX 2 1 1 -2
BITMAP
FB
ENDCHAR
STARTCHAR uni0323
ENCODING 803
SWIDTH 600 0
DWIDTH 5 0
BBX 2 1 1 -2
BITMAP
84
ENDCHAR
STARTCHAR uni0324
ENCODING 804
SWIDTH 600 0
DWIDTH 5 0
BBX 4 1 0 -2
BITMAP
4681
ENDCHAR
STARTCHAR uni0325
ENCODING 805
SWIDTH 600 0
DWIDTH 5 0
BBX 3 3 0 -2
BITMAP
0B90
1890
0D70
ENDCHAR
STARTCHAR uni0326
ENCODING 806
SWIDTH 600 0
DWIDTH 5 0
BBX 2 2 1 -2
BITMAP
67
E4
ENDCHAR
STARTCHAR uni0327
ENCODING 807
SWIDTH 600 0
DWIDTH 5 0
BBX 3 4 0 -4
BITMAP
0340
0760
0380
1D20
ENDCHAR
STARTCHAR uni0328
ENCODING 808
SWIDTH 600 0
DWIDTH 5 0
BBX 2 2 1 -2
BITMAP
52
B8
ENDCHAR
STARTCHAR uni0329
ENCODING 809
SWIDTH 600 0
DWIDTH 5 0
BBX 2 2 1 -3
BITMAP
53
81
ENDCHAR
STARTCHAR uni032A
ENCODING 810
SWIDTH 600 0
DWIDTH 5 0
BBX 3 2 0 -2
BITMAP
2FF0
4250
ENDCHAR
STARTCHAR uni032C
ENCODING 812
SWIDTH 600 0
DWIDTH 5 0
BBX 4 2 0 -2
BITMAP
3453
0B80
ENDCHAR
STARTCHAR uni032E
ENCODING 814
SWIDTH 600 0
DWIDTH 5 0
BBX 4 2 0 -2
BITMAP
5464
2DA0
ENDCHAR
STARTCHAR uni032F
ENCODING 815
SWIDTH 600 0
DWIDTH 5 0
BBX 4 2 0 -2
BITMAP
1CC0
7372
ENDCHAR
STARTCHAR uni0330
ENCODING 816
SWIDTH 600 0
DWIDTH 5 0
BBX 4 2 0 -2
BITMAP
2925
72D3
ENDCHAR
STARTCHAR uni0331
ENCODING 817
SWIDTH 600 0
DWIDTH 5 0
BBX 3 1 0 -2
BITMAP
4FF0
ENDCHAR
STARTCHAR uni0334
ENCODING 820
SWIDTH 600 0
DWIDTH 5 0
BBX 5 3 0 1
BITMAP
011110
0BB630
166C00
ENDCHAR
STARTCHAR uni0339
ENCODING 825
SWIDTH 600 0
DWIDTH 5 0
BBX 2 3 1 -3
BITMAP
74
27
A2
ENDCHAR
STARTCHAR uni033A
ENCODING 826
SWIDTH 600 0
DWIDTH 5 0
BBX 3 2 0 -2
BITMAP
2350
4FD0
ENDCHAR
STARTCHAR uni033B
ENCODING 827
SWIDTH 600 0
DWIDTH 5 0
BBX 3 2 0 -2
BITMAP
2FF0
4FD0
ENDCHAR
STARTCHAR uni033C
ENCODING 828
SWIDTH 600 0
DWIDTH 5 0
BBX 4 2 0 -2
BITMAP
4BC3
7754
ENDCHAR
STARTCHAR uni033D
ENCODING 829
SWIDTH 600 0
DWIDTH 5 0
BBX 2 2 2 4
BITMAP
3A
34
ENDCHAR
STARTCHAR uni0342
ENCODING 834
SWIDTH 600 0
DWIDTH 5 0
BBX 4 2 1 5
BITMAP
0856
25A8
ENDCHAR
STARTCHAR uni0345
ENCODING 837
SWIDTH 600 0
DWIDTH 5 0
BBX 2 1 1 -2
BITMAP
49
ENDCHAR
STARTCHAR uni035F
ENCODING 863
SWIDTH 600 0
DWIDTH 5 0
BBX 10 1 -3 -2
BITMAP
7FFFFFFFF4
ENDCHAR
STARTCHAR uni0361
ENCODING 865
SWIDTH 600 0
DWIDTH 5 0
BBX 9 2 -1 5
BITMAP
03ADFD9200
6842025A20
ENDCHAR
STARTCHAR pi
ENCODING 960
SWIDTH 600 0
DWIDTH 5 0
BBX 6 4 0 0
BITMAP
5FFFF5
090540
090800
460B60
ENDCHAR
STARTCHAR a.sups
ENCODING 7491
SWIDTH 600 0
DWIDTH 5 0
BBX 4 3 1 3
BITMAP
0BC6
5654
3E71
ENDCHAR
STARTCHAR b.sups
ENCODING 7495
SWIDTH 600 0
DWIDTH 5 0
BBX 4 4 1 3
BITMAP
0600
0BD6
2838
2AD2
ENDCHAR
STARTCHAR d.sups
ENCODING 7496
SWIDTH 600 0
DWIDTH 5 0
BBX 4 4 1 3
BITMAP
0006
1BC7
5554
4E70
ENDCHAR
STARTCHAR e.sups
ENCODING 7497
SWIDTH 600 0
DWIDTH 5 0
BBX 4 3 1 3
BITMAP
0AE4
3FF7
1DB0
ENDCHAR
STARTCHAR g.sups
ENCODING 7501
SWIDTH 600 0
DWIDTH 5 0
BBX 4 4 1 2
BITMAP
0BC6
5655
5FE1
5EA0
ENDCHAR
STARTCHAR k.sups
ENCODING 7503
SWIDTH 600 0
DWIDTH 5 0
BBX 4 5 1 3
BITMAP
0210
0810
0845
0CA0
2635
ENDCHAR
STARTCHAR m.sups
ENCODING 7504
SWIDTH 600 0
DWIDTH 5 0
BBX 6 4 0 2
BITMAP
08CBE1
0A2962
084470
133140
ENDCHAR
STARTCHAR o.sups
ENCODING 7506
SWIDTH 600 0
DWIDTH 5 0
BBX 4 3 1 3
BITMAP
0AE4
4647
2EC2
ENDCHAR
STARTCHAR p.sups
ENCODING 7510
SWIDTH 600 0
DWIDTH 5 0
BBX 4 4 1 2
BITMAP
0AD7
1929
4BD3
5100
ENDCHAR
STARTCHAR t.sups
ENCODING 7511
SWIDTH 600 0
DWIDTH 5 0
BBX 3 4 2 3
BITMAP
1600
FFA0
6200
7E20
ENDCHAR
STARTCHAR u.sups
ENCODING 7512
SWIDTH 600 0
DWIDTH 5 0
BBX 4 3 1 3
BITMAP
0718
3565
3EC2
ENDCHAR
STARTCHAR v.sups
ENCODING 7515
SWIDTH 600 0
DWIDTH 5 0
BBX 3 3 2 3
BITMAP
8370
9B00
9600
ENDCHAR
STARTCHAR c.sups
ENCODING 7580
SWIDTH 600 0
DWIDTH 5 0
BBX 4 3 1 3
BITMAP
08E4
1922
0DB0
ENDCHAR
STARTCHAR f.sups
ENCODING 7584
SWIDTH 600 0
DWIDTH 5 0
BBX 4 6 2 2
BITMAP
07E1
0910
BFA0
2600
5300
4000
ENDCHAR
STARTCHAR z.sups
ENCODING 7611
SWIDTH 600 0
DWIDTH 5 0
BBX 4 3 1 3
BITMAP
0EE4
0110
2DF3
ENDCHAR
STARTCHAR uni1E06
ENCODING 7686
SWIDTH 600 0
DWIDTH 5 0
BBX 5 8 0 -2
BITMAP
08FE80
0A01B0
0EDD30
292580
550590
8FEB10
000000
2FF200
ENDCHAR
STARTCHAR uni1E07
ENCODING 7687
SWIDTH 600 0
DWIDTH 5 0
BBX 5 8 0 -2
BITMAP
073000
0A0000
0CBE60
2C32B0
571590
8BEA10
000000
2FF300
ENDCHAR
STARTCHAR uni1E0C
ENCODING 7692
SWIDTH 600 0
DWIDTH 5 0
BBX 5 8 0 -2
BITMAP
0BFC40
0C04C0
2900B0
5600B0
822A60
BFE700
000000
093000
ENDCHAR
STARTCHAR uni1E0D
ENCODING 7693
SWIDTH 600 0
DWIDTH 5 0
BBX 6 8 0 -2
BITMAP
000064
000091
07EDB0
4A13A0
751960
3EDB30
000000
066000
ENDCHAR
STARTCHAR uni1E0E
ENCODING 7694
SWIDTH 600 0
DWIDTH 5 0
BBX 5 8 0 -2
BITMAP
0BFC40
0C04C0
2900B0
5600B0
822A60
BFE700
000000
6FE000
ENDCHAR
STARTCHAR uni1E0F
ENCODING 7695
SWIDTH 600 0
DWIDTH 5 0
BBX 6 8 0 -2
BITMAP
000064
000091
07EDB0
4A13A0
751960
3EDB30
000000
2FF200
ENDCHAR
STARTCHAR uni1E10
ENCODING 7696
SWIDTH 600 0
DWIDTH 5 0
BBX 5 10 0 -4
BITMAP
0BFC40
0C04C0
2900B0
5600B0
822A60
BFE700
052000
094000
056000
3C1000
ENDCHAR
STARTCHAR uni1E11
ENCODING 7697
SWIDTH 600 0
DWIDTH 5 0
BBX 6 10 0 -4
BITMAP
000064
000091
07EDB0
4A13A0
751960
3EDB30
033000
085000
047000
1C2000
ENDCHAR
STARTCHAR uni1E16
ENCODING 7702
SWIDTH 600 0
DWIDTH 5 0
BBX 6 9 0 0
BITMAP
000170
000000
005FF0
05FFF4
082000
0BFF50
0A0000
270000
5FFF50
ENDCHAR
STARTCHAR uni1E17
ENCODING 7703
SWIDTH 600 0
DWIDTH 5 0
BBX 5 8 0 0
BITMAP
000430
000000
00CF80
000000
06DE50
3FFFA0
671420
1CE900
ENDCHAR
STARTCHAR uni1E20
ENCODING 7712
SWIDTH 600 0
DWIDTH 5 0
BBX 5 7 0 0
BITMAP
007FD0
01BE80
0B6160
480000
650FC0
5A1280
0AED30
ENDCHAR
STARTCHAR uni1E21
ENCODING 7713
SWIDTH 600 0
DWIDTH 5 0
BBX 5 8 0 -2
BITMAP
00BF80
000000
07EDA0
3A13A0
740770
3EED40
423B10
6ED500
ENDCHAR
STARTCHAR uni1E24
ENCODING 7716
SWIDTH 600 0
DWIDTH 5 0
BBX 6 8 0 -2
BITMAP
0A0083
0900B0
2FFFC0
550290
820560
A00730
000000
084000
ENDCHAR
STARTCHAR uni1E25
ENCODING 7717
SWIDTH 600 0
DWIDTH 5 0
BBX 5 8 0 -2
BITMAP
073000
0A0000
0CAE80
2D41A0
560270
920640
000000
057000
ENDCHAR
STARTCHAR uni1E26
ENCODING 7718
SWIDTH 600 0
DWIDTH 5 0
BBX 6 7 0 0
BITMAP
008090
0A0083
0900B0
2FFFC0
550290
820560
A00730
ENDCHAR
STARTCHAR uni1E27
ENCODING 7719
SWIDTH 600 0
DWIDTH 5 0
BBX 5 8 0 0
BITMAP
185400
000000
073000
0A0000
0CAE80
2D41A0
560270
920640
ENDCHAR
STARTCHAR uni1E28
ENCODING 7720
SWIDTH 600 0
DWIDTH 5 0
BBX 7 10 -1 -4
BITMAP
00A00830
00900B00
02FFFC00
05502900
08205600
0A007300
06000000
1C000000
1A000000
96000000
ENDCHAR
STARTCHAR uni1E29
ENCODING 7721
SWIDTH 600 0
DWIDTH 5 0
BBX 6 10 -1 -4
BITMAP
007300
00A000
00CAE8
02D41A
056027
092064
060000
0D0000
0A1000
880000
ENDCHAR
STARTCHAR uni1E2A
ENCODING 7722
SWIDTH 600 0
DWIDTH 5 0
BBX 6 8 0 -2
BITMAP
0A0083
0900B0
2FFFC0
550290
820560
B00830
546400
2DA000
ENDCHAR
STARTCHAR uni1E2B
ENCODING 7723
SWIDTH 600 0
DWIDTH 5 0
BBX 5 8 0 -2
BITMAP
073000
0A0000
0CAE80
2D41A0
560270
920640
373700
0CC100
ENDCHAR
STARTCHAR uni1E32
ENCODING 7730
SWIDTH 600 0
DWIDTH 5 0
BBX 6 8 0 -2
BITMAP
082092
0A1920
0BB400
2D5900
560A10
830570
000000
02B000
ENDCHAR
STARTCHAR uni1E33
ENCODING 7731
SWIDTH 600 0
DWIDTH 5 0
BBX 5 8 0 -2
BITMAP
064000
091000
0A0580
1A9700
4C3A00
740650
000000
03A000
ENDCHAR
STARTCHAR uni1E34
ENCODING 7732
SWIDTH 600 0
DWIDTH 5 0
BBX 6 8 0 -2
BITMAP
082092
0A1920
0BB400
2D5900
560A10
830570
000000
0CF800
ENDCHAR
STARTCHAR uni1E35
ENCODING 7733
SWIDTH 600 0
DWIDTH 5 0
BBX 5 8 0 -2
BITMAP
064000
091000
0A0580
1A9700
4C3A00
740650
000000
0DF600
ENDCHAR
STARTCHAR uni1E36
ENCODING 7734
SWIDTH 600 0
DWIDTH 5 0
BBX 4 8 1 -2
BITMAP
1A00
3700
6300
9100
9000
FFF9
0000
0C00
ENDCHAR
STARTCHAR uni1E37
ENCODING 7735
SWIDTH 600 0
DWIDTH 5 0
BBX 4 8 1 -2
BITMAP
AF60
0620
0800
0800
2810
2DD1
0000
0B20
ENDCHAR
STARTCHAR uni1E38
ENCODING 7736
SWIDTH 600 0
DWIDTH 5 0
BBX 4 9 1 -2
BITMAP
8FC0
1A00
3700
6300
9100
9000
FFF9
0000
0C00
ENDCHAR
STARTCHAR uni1E39
ENCODING 7737
SWIDTH 600 0
DWIDTH 5 0
BBX 4 10 1 -2
BITMAP
0DF7
0000
AF60
0620
0800
0800
2810
2DD1
0000
0B20
ENDCHAR
STARTCHAR uni1E3A
ENCODING 7738
SWIDTH 600 0
DWIDTH 5 0
BBX 4 8 1 -2
BITMAP
1A00
3700
6300
9100
9000
FFF9
0000
AFA0
ENDCHAR
STARTCHAR uni1E3B
ENCODING 7739
SWIDTH 600 0
DWIDTH 5 0
BBX 4 8 1 -2
BITMAP
AF60
0620
0800
0800
2810
2DD1
0000
7FC0
ENDCHAR
STARTCHAR uni1E3E
ENCODING 7742
SWIDTH 600 0
DWIDTH 5 0
BBX 6 8 0 0
BITMAP
000640
000000
0C30C3
0C55C0
3879A0
64D490
814460
A00730
ENDCHAR
STARTCHAR uni1E3F
ENCODING 7743
SWIDTH 600 0
DWIDTH 5 0
BBX 6 7 0 0
BITMAP
000460
001900
000000
4CEAE1
7786A0
A1A090
B09280
ENDCHAR
STARTCHAR uni1E40
ENCODING 7744
SWIDTH 600 0
DWIDTH 5 0
BBX 6 7 0 0
BITMAP
000A00
0C30C3
0C55C0
3879A0
64D490
814460
A00730
ENDCHAR
STARTCHAR uni1E41
ENCODING 7745
SWIDTH 600 0
DWIDTH 5 0
BBX 6 6 0 0
BITMAP
001B00
000000
4CEAE1
7786A0
A1A090
B09280
ENDCHAR
STARTCHAR uni1E42
ENCODING 7746
SWIDTH 600 0
DWIDTH 5 0
BBX 6 8 0 -2
BITMAP
0C30C3
0C55C0
3879A0
64D490
814460
A00730
000000
084000
ENDCHAR
STARTCHAR uni1E43
ENCODING 7747
SWIDTH 600 0
DWIDTH 5 0
BBX 6 6 0 -2
BITMAP
4CEAE1
7786A0
A1A090
B09280
000000
075000
ENDCHAR
STARTCHAR uni1E44
ENCODING 7748
SWIDTH 600 0
DWIDTH 5 0
BBX 6 7 0 0
BITMAP
000A00
0A4082
0A80A0
1890A0
466490
732B60
A00C30
ENDCHAR
STARTCHAR uni1E45
ENCODING 7749
SWIDTH 600 0
DWIDTH 5 0
BBX 5 6 0 0
BITMAP
001B00
000000
0AAE80
2D41A0
560270
820640
ENDCHAR
STARTCHAR uni1E46
ENCODING 7750
SWIDTH 600 0
DWIDTH 5 0
BBX 6 8 0 -2
BITMAP
0A4082
0A80A0
1890A0
466490
732B60
A00C30
000000
066000
ENDCHAR
STARTCHAR uni1E47
ENCODING 7751
SWIDTH 600 0
DWIDTH 5 0
BBX 5 6 0 -2
BITMAP
0AAE80
2D41A0
560270
820640
000000
057000
ENDCHAR
STARTCHAR uni1E48
ENCODING 7752
SWIDTH 600 0
DWIDTH 5 0
BBX 6 8 0 -2
BITMAP
0A4082
0A80A0
1890A0
466490
732B60
A00C30
000000
2FF200
ENDCHAR
STARTCHAR uni1E49
ENCODING 7753
SWIDTH 600 0
DWIDTH 5 0
BBX 5 6 0 -2
BITMAP
0AAE80
2D41A0
560270
820640
000000
1FF300
ENDCHAR
STARTCHAR uni1E52
ENCODING 7762
SWIDTH 600 0
DWIDTH 5 0
BBX 6 9 0 0
BITMAP
000350
000000
00AFA0
03DE60
1C31C0
7500A1
9200B0
761870
1CE900
ENDCHAR
STARTCHAR uni1E53
ENCODING 7763
SWIDTH 600 0
DWIDTH 5 0
BBX 5 8 0 0
BITMAP
000520
000000
00DF60
000000
08ED40
6812A0
851680
2CEA10
ENDCHAR
STARTCHAR uni1E58
ENCODING 7768
SWIDTH 600 0
DWIDTH 5 0
BBX 5 7 0 0
BITMAP
000A00
09FE80
0A02C0
0FFC40
365600
641B00
910A10
ENDCHAR
STARTCHAR uni1E59
ENCODING 7769
SWIDTH 600 0
DWIDTH 5 0
BBX 5 6 0 0
BITMAP
000B10
000000
057DC0
09B210
0B0000
1A0000
ENDCHAR
STARTCHAR uni1E5A
ENCODING 7770
SWIDTH 600 0
DWIDTH 5 0
BBX 5 8 0 -2
BITMAP
09FE80
0A02C0
0FFC40
365600
641B00
910A10
000000
057000
ENDCHAR
STARTCHAR uni1E5B
ENCODING 7771
SWIDTH 600 0
DWIDTH 5 0
BBX 5 6 0 -2
BITMAP
057DC0
09B210
0B0000
1A0000
000000
660000
ENDCHAR
STARTCHAR uni1E5C
ENCODING 7772
SWIDTH 600 0
DWIDTH 5 0
BBX 5 9 0 -2
BITMAP
00AFA0
09FE80
0A02C0
0FFC40
365600
641B00
910A10
000000
057000
ENDCHAR
STARTCHAR uni1E5D
ENCODING 7773
SWIDTH 600 0
DWIDTH 5 0
BBX 5 8 0 -2
BITMAP
008FB0
000000
057DC0
09B210
0B0000
1A0000
000000
660000
ENDCHAR
STARTCHAR uni1E5E
ENCODING 7774
SWIDTH 600 0
DWIDTH 5 0
BBX 5 8 0 -2
BITMAP
09FE80
0A02C0
0FFC40
365600
641B00
910A10
000000
1FF400
ENDCHAR
STARTCHAR uni1E5F
ENCODING 7775
SWIDTH 600 0
DWIDTH 5 0
BBX 6 6 -1 -2
BITMAP
0057DC
009B21
00B000
01A000
000000
2FF200
ENDCHAR
STARTCHAR uni1E60
ENCODING 7776
SWIDTH 600 0
DWIDTH 5 0
BBX 5 7 0 0
BITMAP
000A00
04DD30
0A3260
05A200
002B20
641940
1BEA00
ENDCHAR
STARTCHAR uni1E61
ENCODING 7777
SWIDTH 600 0
DWIDTH 5 0
BBX 5 6 0 0
BITMAP
002A00
000000
08EC20
096440
343A20
1AFC10
ENDCHAR
STARTCHAR uni1E62
ENCODING 7778
SWIDTH 600 0
DWIDTH 5 0
BBX 5 8 0 -2
BITMAP
04DD30
0A3260
05A200
002B20
641940
1BEA00
000000
057000
ENDCHAR
STARTCHAR uni1E63
ENCODING 7779
SWIDTH 600 0
DWIDTH 5 0
BBX 5 6 0 -2
BITMAP
08EC20
096440
343A20
1AFC10
000000
058000
ENDCHAR
STARTCHAR uni1E6C
ENCODING 7788
SWIDTH 600 0
DWIDTH 5 0
BBX 6 8 0 -2
BITMAP
1FFFF8
004600
007300
00A000
00A000
029000
000000
084000
ENDCHAR
STARTCHAR uni1E6D
ENCODING 7789
SWIDTH 600 0
DWIDTH 5 0
BBX 5 7 0 -2
BITMAP
009000
4EFFD0
037000
074210
05EC20
000000
00C000
ENDCHAR
STARTCHAR uni1E6E
ENCODING 7790
SWIDTH 600 0
DWIDTH 5 0
BBX 6 8 0 -2
BITMAP
1FFFF8
004600
007300
00A000
00A000
029000
000000
4FF000
ENDCHAR
STARTCHAR uni1E6F
ENCODING 7791
SWIDTH 600 0
DWIDTH 5 0
BBX 5 7 0 -2
BITMAP
009000
4EFFD0
037000
074210
05EC20
000000
09FA00
ENDCHAR
STARTCHAR uni1E7E
ENCODING 7806
SWIDTH 600 0
DWIDTH 5 0
BBX 5 8 1 -2
BITMAP
B00560
A00A00
A05600
82A000
785000
5B0000
000000
840000
ENDCHAR
STARTCHAR uni1E7F
ENCODING 7807
SWIDTH 600 0
DWIDTH 5 0
BBX 6 6 0 -2
BITMAP
1900A1
0A0740
093800
05B100
000000
075000
ENDCHAR
STARTCHAR Wgrave
ENCODING 7808
SWIDTH 600 0
DWIDTH 5 0
BBX 6 8 0 0
BITMAP
006300
001900
370019
462155
559591
668790
6A1A60
780E10
ENDCHAR
STARTCHAR wgrave
ENCODING 7809
SWIDTH 600 0
DWIDTH 5 0
BBX 6 7 0 0
BITMAP
007200
001800
000000
917445
82A590
884970
792D10
ENDCHAR
STARTCHAR Wacute
ENCODING 7810
SWIDTH 600 0
DWIDTH 5 0
BBX 6 8 0 0
BITMAP
000640
000000
370019
462155
559591
668790
6A1A60
780E10
ENDCHAR
STARTCHAR wacute
ENCODING 7811
SWIDTH 600 0
DWIDTH 5 0
BBX 6 7 0 0
BITMAP
000640
003700
000000
917445
82A590
884970
792D10
ENDCHAR
STARTCHAR Wdieresis
ENCODING 7812
SWIDTH 600 0
DWIDTH 5 0
BBX 6 7 0 0
BITMAP
008080
370019
462155
559591
668790
6A1A60
780E10
ENDCHAR
STARTCHAR wdieresis
ENCODING 7813
SWIDTH 600 0
DWIDTH 5 0
BBX 6 6 0 0
BITMAP
009450
000000
917445
82A590
884970
792D10
ENDCHAR
STARTCHAR uni1E8E
ENCODING 7822
SWIDTH 600 0
DWIDTH 5 0
BBX 5 7 1 0
BITMAP
00A000
B00750
922A00
57B200
1E7000
0B0000
190000
ENDCHAR
STARTCHAR uni1E8F
ENCODING 7823
SWIDTH 600 0
DWIDTH 5 0
BBX 7 8 -1 -2
BITMAP
00039000
00000000
02900A10
00A06400
00929000
006B1000
00550000
4E800000
ENDCHAR
STARTCHAR uni1E90
ENCODING 7824
SWIDTH 600 0
DWIDTH 5 0
BBX 6 7 0 0
BITMAP
006740
0CFFF3
000480
004800
039000
390000
CFFF60
ENDCHAR
STARTCHAR uni1E91
ENCODING 7825
SWIDTH 600 0
DWIDTH 5 0
BBX 5 7 0 0
BITMAP
006D10
017250
000000
0EFFC0
003710
164000
AFFF30
ENDCHAR
STARTCHAR uni1E92
ENCODING 7826
SWIDTH 600 0
DWIDTH 5 0
BBX 6 8 0 -2
BITMAP
0CFFF3
000480
004800
039000
390000
CFFF60
000000
048000
ENDCHAR
STARTCHAR uni1E93
ENCODING 7827
SWIDTH 600 0
DWIDTH 5 0
BBX 5 6 0 -2
BITMAP
0EFFC0
003710
164000
AFFF30
000000
057000
ENDCHAR
STARTCHAR uni1E94
ENCODING 7828
SWIDTH 600 0
DWIDTH 5 0
BBX 6 8 0 -2
BITMAP
0CFFF3
000480
004800
039000
390000
CFFF60
000000
0FF500
ENDCHAR
STARTCHAR uni1E95
ENCODING 7829
SWIDTH 600 0
DWIDTH 5 0
BBX 5 6 0 -2
BITMAP
0EFFC0
003710
164000
AFFF30
000000
1FF400
ENDCHAR
STARTCHAR uni1E96
ENCODING 7830
SWIDTH 600 0
DWIDTH 5 0
BBX 5 8 0 -2
BITMAP
073000
0A0000
0CAE80
2D41A0
560270
920640
000000
1FF300
ENDCHAR
STARTCHAR uni1E97
ENCODING 7831
SWIDTH 600 0
DWIDTH 5 0
BBX 5 7 0 0
BITMAP
046810
000000
009000
4EFFD0
037000
074210
05EC20
ENDCHAR
STARTCHAR uni1E9E
ENCODING 7838
SWIDTH 600 0
DWIDTH 5 0
BBX 5 6 0 0
BITMAP
03CF90
0C4560
2A2D20
5604B0
8432B0
A1CE40
ENDCHAR
STARTCHAR uni1EA0
ENCODING 7840
SWIDTH 600 0
DWIDTH 5 0
BBX 6 8 -1 -2
BITMAP
0004C0
000A90
005682
00C173
06FFF5
1C2047
000000
006600
ENDCHAR
STARTCHAR uni1EA1
ENCODING 7841
SWIDTH 600 0
DWIDTH 5 0
BBX 5 6 0 -2
BITMAP
07EDB0
4A13A0
751970
3EDB30
000000
066000
ENDCHAR
STARTCHAR uni1EA2
ENCODING 7842
SWIDTH 600 0
DWIDTH 5 0
BBX 6 9 -1 0
BITMAP
0001C0
0000A1
000190
0004C0
000A90
005682
00C173
06FFF5
1C2047
ENDCHAR
STARTCHAR uni1EA3
ENCODING 7843
SWIDTH 600 0
DWIDTH 5 0
BBX 5 8 0 0
BITMAP
000D10
000920
000A00
000000
07EDB0
4A13A0
751970
3EDB30
ENDCHAR
STARTCHAR uni1EA4
ENCODING 7844
SWIDTH 600 0
DWIDTH 5 0
BBX 7 8 -1 0
BITMAP
00000440
00048400
0004C000
000A9000
00568200
00C17300
06FFF500
1C204700
ENDCHAR
STARTCHAR uni1EA5
ENCODING 7845
SWIDTH 600 0
DWIDTH 5 0
BBX 6 7 0 0
BITMAP
000044
005840
000000
07EDB0
4A13A0
751970
3EDB30
ENDCHAR
STARTCHAR uni1EA6
ENCODING 7846
SWIDTH 600 0
DWIDTH 5 0
BBX 6 8 -1 0
BITMAP
001600
000484
0004C0
000A90
005682
00C173
06FFF5
1C2047
ENDCHAR
STARTCHAR uni1EA7
ENCODING 7847
SWIDTH 600 0
DWIDTH 5 0
BBX 5 7 0 0
BITMAP
043000
005840
000000
07EDB0
4A13A0
751970
3EDB30
ENDCHAR
STARTCHAR uni1EA8
ENCODING 7848
SWIDTH 600 0
DWIDTH 5 0
BBX 7 9 -1 0
BITMAP
00000840
00000370
00048B20
0004C000
000A9000
00568200
00C17300
06FFF500
1C204700
ENDCHAR
STARTCHAR uni1EA9
ENCODING 7849
SWIDTH 600 0
DWIDTH 5 0
BBX 6 8 0 0
BITMAP
000093
000046
0058A2
000000
07EDB0
4A13A0
751970
3EDB30
ENDCHAR
STARTCHAR uni1EAA
ENCODING 7850
SWIDTH 600 0
DWIDTH 5 0
BBX 6 9 -1 0
BITMAP
0005B6
00066B
000484
0004C0
000A90
005682
00C173
06FFF5
1C2047
ENDCHAR
STARTCHAR uni1EAB
ENCODING 7851
SWIDTH 600 0
DWIDTH 5 0
BBX 5 8 0 0
BITMAP
004A60
006790
005840
000000
07EDB0
4A13A0
751970
3EDB30
ENDCHAR
STARTCHAR uni1EAC
ENCODING 7852
SWIDTH 600 0
DWIDTH 5 0
BBX 6 9 -1 -2
BITMAP
000575
0004C0
000A90
005682
00C173
06FFF5
1C2047
000000
006600
ENDCHAR
STARTCHAR uni1EAD
ENCODING 7853
SWIDTH 600 0
DWIDTH 5 0
BBX 5 9 0 -2
BITMAP
003D30
008170
000000
07EDB0
4A13A0
751970
3EDB30
000000
066000
ENDCHAR
STARTCHAR uni1EAE
ENCODING 7854
SWIDTH 600 0
DWIDTH 5 0
BBX 6 9 -1 0
BITMAP
000044
000819
0005E4
0004C0
000A90
005682
00C173
06FFF5
1C2047
ENDCHAR
STARTCHAR uni1EAF
ENCODING 7855
SWIDTH 600 0
DWIDTH 5 0
BBX 5 8 0 0
BITMAP
000440
008190
007E40
000000
07EDB0
4A13A0
751970
3EDB30
ENDCHAR
STARTCHAR uni1EB0
ENCODING 7856
SWIDTH 600 0
DWIDTH 5 0
BBX 6 9 -1 0
BITMAP
000170
000819
0005E4
0004C0
000A90
005682
00C173
06FFF5
1C2047
ENDCHAR
STARTCHAR uni1EB1
ENCODING 7857
SWIDTH 600 0
DWIDTH 5 0
BBX 5 8 0 0
BITMAP
001700
008190
007E40
000000
07EDB0
4A13A0
751970
3EDB30
ENDCHAR
STARTCHAR uni1EB2
ENCODING 7858
SWIDTH 600 0
DWIDTH 5 0
BBX 6 11 -1 0
BITMAP
0000A2
000054
000071
000819
0005E4
0004C0
000A90
005682
00C173
06FFF5
1C2047
ENDCHAR
STARTCHAR uni1EB3
ENCODING 7859
SWIDTH 600 0
DWIDTH 5 0
BBX 5 10 0 0
BITMAP
000B20
000640
000910
008190
007E40
000000
07EDB0
4A13A0
751970
3EDB30
ENDCHAR
STARTCHAR uni1EB4
ENCODING 7860
SWIDTH 600 0
DWIDTH 5 0
BBX 6 9 -1 0
BITMAP
0005B6
000E7F
0005E4
0004C0
000A90
005682
00C173
06FFF5
1C2047
ENDCHAR
STARTCHAR uni1EB5
ENCODING 7861
SWIDTH 600 0
DWIDTH 5 0
BBX 5 8 0 0
BITMAP
005970
00F9F0
007E30
000000
07EDB0
4A13A0
751970
3EDB30
ENDCHAR
STARTCHAR uni1EB6
ENCODING 7862
SWIDTH 600 0
DWIDTH 5 0
BBX 6 10 -1 -2
BITMAP
000819
0006E5
0004C0
000A90
005682
00C173
06FFF5
1C2047
000000
006600
ENDCHAR
STARTCHAR uni1EB7
ENCODING 7863
SWIDTH 600 0
DWIDTH 5 0
BBX 5 9 0 -2
BITMAP
009190
007E50
000000
07EDB0
4A13A0
751970
3EDB30
000000
066000
ENDCHAR
STARTCHAR uni1EB8
ENCODING 7864
SWIDTH 600 0
DWIDTH 5 0
BBX 6 8 0 -2
BITMAP
05FFF4
082000
0BFF50
0A0000
270000
5FFF50
000000
03A000
ENDCHAR
STARTCHAR uni1EB9
ENCODING 7865
SWIDTH 600 0
DWIDTH 5 0
BBX 5 6 0 -2
BITMAP
06DE50
3FFFA0
671420
1CE900
000000
058000
ENDCHAR
STARTCHAR uni1EBA
ENCODING 7866
SWIDTH 600 0
DWIDTH 5 0
BBX 6 9 0 0
BITMAP
000A30
000560
000910
05FFF4
082000
0BFF50
0A0000
270000
5FFF50
ENDCHAR
STARTCHAR uni1EBB
ENCODING 7867
SWIDTH 600 0
DWIDTH 5 0
BBX 5 8 0 0
BITMAP
001C00
000A10
001A00
000000
06DE50
3FFFA0
671420
1CE900
ENDCHAR
STARTCHAR uni1EBC
ENCODING 7868
SWIDTH 600 0
DWIDTH 5 0
BBX 6 8 0 0
BITMAP
006D46
0074D1
05FFF4
082000
0BFF50
0A0000
270000
5FFF50
ENDCHAR
STARTCHAR uni1EBD
ENCODING 7869
SWIDTH 600 0
DWIDTH 5 0
BBX 5 7 0 0
BITMAP
007660
016890
000000
06DE50
3FFFA0
671420
1CE900
ENDCHAR
STARTCHAR uni1EBE
ENCODING 7870
SWIDTH 600 0
DWIDTH 5 0
BBX 6 8 0 0
BITMAP
000026
002770
05FFF4
082000
0BFF50
0A0000
270000
5FFF50
ENDCHAR
STARTCHAR uni1EBF
ENCODING 7871
SWIDTH 600 0
DWIDTH 5 0
BBX 6 7 0 0
BITMAP
000043
006830
000000
06DE50
3FFFA0
671420
1CE900
ENDCHAR
STARTCHAR uni1EC0
ENCODING 7872
SWIDTH 600 0
DWIDTH 5 0
BBX 6 8 0 0
BITMAP
007000
002770
05FFF4
082000
0BFF50
0A0000
270000
5FFF50
ENDCHAR
STARTCHAR uni1EC1
ENCODING 7873
SWIDTH 600 0
DWIDTH 5 0
BBX 5 7 0 0
BITMAP
052000
006830
000000
06DE50
3FFFA0
671420
1CE900
ENDCHAR
STARTCHAR uni1EC2
ENCODING 7874
SWIDTH 600 0
DWIDTH 5 0
BBX 6 9 0 0
BITMAP
000048
000009
0027A6
05FFF4
082000
0BFF50
0A0000
270000
5FFF50
ENDCHAR
STARTCHAR uni1EC3
ENCODING 7875
SWIDTH 600 0
DWIDTH 5 0
BBX 6 8 0 0
BITMAP
000093
000055
0068A1
000000
06DE50
3FFFA0
671420
1CE900
ENDCHAR
STARTCHAR uni1EC4
ENCODING 7876
SWIDTH 600 0
DWIDTH 5 0
BBX 6 9 0 0
BITMAP
001D44
0045D1
002870
05FFF4
082000
0BFF50
0A0000
270000
5FFF50
ENDCHAR
STARTCHAR uni1EC5
ENCODING 7877
SWIDTH 600 0
DWIDTH 5 0
BBX 5 8 0 0
BITMAP
005960
006880
005830
000000
06DE50
3FFFA0
671420
1CE900
ENDCHAR
STARTCHAR uni1EC6
ENCODING 7878
SWIDTH 600 0
DWIDTH 5 0
BBX 6 9 0 -2
BITMAP
003780
05FFF4
082000
0BFF50
0A0000
270000
5FFF50
000000
03A000
ENDCHAR
STARTCHAR uni1EC7
ENCODING 7879
SWIDTH 600 0
DWIDTH 5 0
BBX 5 9 0 -2
BITMAP
004D20
008160
000000
06DE50
3FFFA0
671420
1CE900
000000
058000
ENDCHAR
STARTCHAR uni1EC8
ENCODING 7880
SWIDTH 600 0
DWIDTH 5 0
BBX 6 9 0 0
BITMAP
001C00
000A10
001900
08FFF1
004600
008300
00A000
00A000
9FFF00
ENDCHAR
STARTCHAR uni1EC9
ENCODING 7881
SWIDTH 600 0
DWIDTH 5 0
BBX 4 8 1 0
BITMAP
0490
01B0
0460
0000
FF30
0800
0A11
0CE2
ENDCHAR
STARTCHAR uni1ECA
ENCODING 7882
SWIDTH 600 0
DWIDTH 5 0
BBX 6 8 0 -2
BITMAP
08FFF1
004600
008300
00A000
00A000
9FFF00
000000
084000
ENDCHAR
STARTCHAR uni1ECB
ENCODING 7883
SWIDTH 600 0
DWIDTH 5 0
BBX 4 8 1 -2
BITMAP
0480
0000
FF30
0800
0A11
0CE2
0000
0A30
ENDCHAR
STARTCHAR uni1ECC
ENCODING 7884
SWIDTH 600 0
DWIDTH 5 0
BBX 6 8 0 -2
BITMAP
03DE60
1C31C0
7500A1
9200B0
761870
1CE900
000000
084000
ENDCHAR
STARTCHAR uni1ECD
ENCODING 7885
SWIDTH 600 0
DWIDTH 5 0
BBX 5 6 0 -2
BITMAP
08ED40
6812A0
851680
2CEA10
000000
084000
ENDCHAR
STARTCHAR uni1ECE
ENCODING 7886
SWIDTH 600 0
DWIDTH 5 0
BBX 6 9 0 0
BITMAP
001C00
000A10
001900
03DE60
1C31C0
7500A1
9200B0
761870
1CE900
ENDCHAR
STARTCHAR uni1ECF
ENCODING 7887
SWIDTH 600 0
DWIDTH 5 0
BBX 5 8 0 0
BITMAP
002C00
000B00
002900
000000
08ED40
6812A0
851680
2CEA10
ENDCHAR
STARTCHAR uni1ED0
ENCODING 7888
SWIDTH 600 0
DWIDTH 5 0
BBX 6 8 0 0
BITMAP
000044
004840
03DE60
1C31C0
7500A1
9200B0
761870
1CE900
ENDCHAR
STARTCHAR uni1ED1
ENCODING 7889
SWIDTH 600 0
DWIDTH 5 0
BBX 6 7 0 0
BITMAP
000053
006820
000000
08ED40
6812A0
851680
2CEA10
ENDCHAR
STARTCHAR uni1ED2
ENCODING 7890
SWIDTH 600 0
DWIDTH 5 0
BBX 6 8 0 0
BITMAP
016000
004840
03DE60
1C31C0
7500A1
9200B0
761870
1CE900
ENDCHAR
STARTCHAR uni1ED3
ENCODING 7891
SWIDTH 600 0
DWIDTH 5 0
BBX 5 7 0 0
BITMAP
052000
006820
000000
08ED40
6812A0
851680
2CEA10
ENDCHAR
STARTCHAR uni1ED4
ENCODING 7892
SWIDTH 600 0
DWIDTH 5 0
BBX 6 9 0 0
BITMAP
000084
000037
0048B2
03DE60
1C31C0
7500A1
9200B0
761870
1CE900
ENDCHAR
STARTCHAR uni1ED5
ENCODING 7893
SWIDTH 600 0
DWIDTH 5 0
BBX 6 8 0 0
BITMAP
0000A2
000064
0068A1
000000
08ED40
6812A0
851680
2CEA10
ENDCHAR
STARTCHAR uni1ED6
ENCODING 7894
SWIDTH 600 0
DWIDTH 5 0
BBX 6 9 0 0
BITMAP
005B60
0066B0
004840
03DE60
1C31C0
7500A1
9200B0
761870
1CE900
ENDCHAR
STARTCHAR uni1ED7
ENCODING 7895
SWIDTH 600 0
DWIDTH 5 0
BBX 5 8 0 0
BITMAP
006860
007970
006830
000000
08ED40
6812A0
851680
2CEA10
ENDCHAR
STARTCHAR uni1ED8
ENCODING 7896
SWIDTH 600 0
DWIDTH 5 0
BBX 6 9 0 -2
BITMAP
005750
03DE60
1C31C0
7500A1
9200B0
761870
1CE900
000000
084000
ENDCHAR
STARTCHAR uni1ED9
ENCODING 7897
SWIDTH 600 0
DWIDTH 5 0
BBX 5 9 0 -2
BITMAP
005D10
018260
000000
08ED40
6812A0
851680
2CEA10
000000
084000
ENDCHAR
STARTCHAR uni1EDA
ENCODING 7898
SWIDTH 600 0
DWIDTH 5 0
BBX 6 8 0 0
BITMAP
000640
000008
03DEC5
1C31B0
7500A1
9200C0
761880
1CE900
ENDCHAR
STARTCHAR uni1EDB
ENCODING 7899
SWIDTH 600 0
DWIDTH 5 0
BBX 6 7 0 0
BITMAP
000550
002800
000045
08EDB1
681290
851690
2CEA10
ENDCHAR
STARTCHAR uni1EDC
ENCODING 7900
SWIDTH 600 0
DWIDTH 5 0
BBX 6 8 0 0
BITMAP
006400
000908
03DEC5
1C31B0
7500A1
9200C0
761880
1CE900
ENDCHAR
STARTCHAR uni1EDD
ENCODING 7901
SWIDTH 600 0
DWIDTH 5 0
BBX 6 7 0 0
BITMAP
006300
001800
000045
08EDB1
681290
851690
2CEA10
ENDCHAR
STARTCHAR uni1EDE
ENCODING 7902
SWIDTH 600 0
DWIDTH 5 0
BBX 6 9 0 0
BITMAP
001C00
000A10
001908
03DEC5
1C31B0
7500A1
9200C0
761880
1CE900
ENDCHAR
STARTCHAR uni1EDF
ENCODING 7903
SWIDTH 600 0
DWIDTH 5 0
BBX 6 8 0 0
BITMAP
002C00
000B00
002900
000045
08EDB1
681290
851690
2CEA10
ENDCHAR
STARTCHAR uni1EE0
ENCODING 7904
SWIDTH 600 0
DWIDTH 5 0
BBX 6 8 0 0
BITMAP
01E680
053C68
03DEC5
1C31B0
7500A1
9200C0
761880
1CE900
ENDCHAR
STARTCHAR uni1EE1
ENCODING 7905
SWIDTH 600 0
DWIDTH 5 0
BBX 6 7 0 0
BITMAP
029350
071D40
000045
08EDB1
681290
851690
2CEA10
ENDCHAR
STARTCHAR uni1EE2
ENCODING 7906
SWIDTH 600 0
DWIDTH 5 0
BBX 6 9 0 -2
BITMAP
000008
03DEC5
1C31B0
7500A1
9200C0
761880
1CE900
000000
084000
ENDCHAR
STARTCHAR uni1EE3
ENCODING 7907
SWIDTH 600 0
DWIDTH 5 0
BBX 6 7 0 -2
BITMAP
000045
08EDB1
681290
851690
2CEA10
000000
084000
ENDCHAR
STARTCHAR uni1EE4
ENCODING 7908
SWIDTH 600 0
DWIDTH 5 0
BBX 6 8 0 -2
BITMAP
0A0073
0A00A0
2800B0
550290
681A40
1CE900
000000
084000
ENDCHAR
STARTCHAR uni1EE5
ENCODING 7909
SWIDTH 600 0
DWIDTH 5 0
BBX 5 6 0 -2
BITMAP
0A00B0
360290
753B60
5EC930
000000
066000
ENDCHAR
STARTCHAR uni1EE6
ENCODING 7910
SWIDTH 600 0
DWIDTH 5 0
BBX 6 9 0 0
BITMAP
001C00
000A10
001900
0A0073
0A00A0
2800B0
550290
681A40
1CE900
ENDCHAR
STARTCHAR uni1EE7
ENCODING 7911
SWIDTH 600 0
DWIDTH 5 0
BBX 5 8 0 0
BITMAP
002B00
000B00
002800
000000
0A00B0
360290
753B60
5EC930
ENDCHAR
STARTCHAR uni1EE8
ENCODING 7912
SWIDTH 600 0
DWIDTH 5 0
BBX 7 8 0 0
BITMAP
00064350
00000530
0A007300
0A00A000
2800B000
5502A000
681A5000
1CE90000
ENDCHAR
STARTCHAR uni1EE9
ENCODING 7913
SWIDTH 600 0
DWIDTH 5 0
BBX 6 7 0 0
BITMAP
000550
003808
00001B
0A00D6
3602B0
753B70
5EC930
ENDCHAR
STARTCHAR uni1EEA
ENCODING 7914
SWIDTH 600 0
DWIDTH 5 0
BBX 7 8 0 0
BITMAP
00640350
00090530
0A007300
0A00A000
2800B000
5502A000
681A5000
1CE90000
ENDCHAR
STARTCHAR uni1EEB
ENCODING 7915
SWIDTH 600 0
DWIDTH 5 0
BBX 6 7 0 0
BITMAP
007300
001808
00001B
0A00D6
3602B0
753B70
5EC930
ENDCHAR
STARTCHAR uni1EEC
ENCODING 7916
SWIDTH 600 0
DWIDTH 5 0
BBX 7 9 0 0
BITMAP
001C0000
000A1350
00190530
0A007300
0A00A000
2800B000
5502A000
681A5000
1CE90000
ENDCHAR
STARTCHAR uni1EED
ENCODING 7917
SWIDTH 600 0
DWIDTH 5 0
BBX 6 8 0 0
BITMAP
002B00
000B00
002808
00001B
0A00D6
3602B0
753B70
5EC930
ENDCHAR
STARTCHAR uni1EEE
ENCODING 7918
SWIDTH 600 0
DWIDTH 5 0
BBX 7 8 0 0
BITMAP
00AA7450
0178B530
0A007300
0A00A000
2800B000
5502A000
681A5000
1CE90000
ENDCHAR
STARTCHAR uni1EEF
ENCODING 7919
SWIDTH 600 0
DWIDTH 5 0
BBX 6 7 0 0
BITMAP
008460
044B78
00001B
0A00D6
3602B0
753B70
5EC930
ENDCHAR
STARTCHAR uni1EF0
ENCODING 7920
SWIDTH 600 0
DWIDTH 5 0
BBX 7 10 0 -2
BITMAP
00000350
00000530
0A007300
0A00A000
2800B000
5502A000
681A5000
1CE90000
00000000
08400000
ENDCHAR
STARTCHAR uni1EF1
ENCODING 7921
SWIDTH 600 0
DWIDTH 5 0
BBX 6 8 0 -2
BITMAP
000008
00001B
0A00D6
3602B0
753B70
5EC930
000000
066000
ENDCHAR
STARTCHAR Ygrave
ENCODING 7922
SWIDTH 600 0
DWIDTH 5 0
BBX 5 8 1 0
BITMAP
072000
018000
B00750
922A00
57B200
1E7000
0B0000
190000
ENDCHAR
STARTCHAR ygrave
ENCODING 7923
SWIDTH 600 0
DWIDTH 5 0
BBX 7 9 -1 -2
BITMAP
00072000
00018000
00000000
02900A10
00A06400
00929000
006B1000
00550000
4E800000
ENDCHAR
STARTCHAR uni1EF4
ENCODING 7924
SWIDTH 600 0
DWIDTH 5 0
BBX 5 8 1 -2
BITMAP
B00750
922A00
57B200
1E7000
0B0000
190000
000000
840000
ENDCHAR
STARTCHAR uni1EF5
ENCODING 7925
SWIDTH 600 0
DWIDTH 5 0
BBX 7 6 -1 -2
BITMAP
02900A10
00A06400
00929000
006B1000
00550000
4E81B000
ENDCHAR
STARTCHAR uni1EF6
ENCODING 7926
SWIDTH 600 0
DWIDTH 5 0
BBX 5 9 1 0
BITMAP
03B000
00B000
028000
B00750
922A00
57B200
1E7000
0B0000
190000
ENDCHAR
STARTCHAR uni1EF7
ENCODING 7927
SWIDTH 600 0
DWIDTH 5 0
BBX 7 10 -1 -2
BITMAP
0003A000
0000B000
00037000
00000000
02900A10
00A06400
00929000
006B1000
00550000
4E800000
ENDCHAR
STARTCHAR uni1EF8
ENCODING 7928
SWIDTH 600 0
DWIDTH 5 0
BBX 5 8 1 0
BITMAP
0C9800
259900
B00750
922A00
57B200
1E7000
0B0000
190000
ENDCHAR
STARTCHAR uni1EF9
ENCODING 7929
SWIDTH 600 0
DWIDTH 5 0
BBX 7 9 -1 -2
BITMAP
00084600
0044B700
00000000
02900A10
00A06400
00929000
006B1000
00550000
4E800000
ENDCHAR
STARTCHAR uni2007
ENCODING 8199
SWIDTH 600 0
DWIDTH 5 0
BBX 1 1 0 0
BITMAP
00
ENDCHAR
STARTCHAR uni2010
ENCODING 8208
SWIDTH 600 0
DWIDTH 5 0
BBX 5 1 0 2
BITMAP
3FFF90
ENDCHAR
STARTCHAR figuredash
ENCODING 8210
SWIDTH 600 0
DWIDTH 5 0
BBX 5 1 0 2
BITMAP
6FFF90
ENDCHAR
STARTCHAR endash
ENCODING 8211
SWIDTH 600 0
DWIDTH 5 0
BBX 5 1 0 2
BITMAP
6FFF90
ENDCHAR
STARTCHAR emdash
ENCODING 8212
SWIDTH 600 0
DWIDTH 5 0
BBX 7 1 -1 2
BITMAP
1FFFFF40
ENDCHAR
STARTCHAR uni2015
ENCODING 8213
SWIDTH 600 0
DWIDTH 5 0
BBX 7 1 -1 2
BITMAP
1FFFFF40
ENDCHAR
STARTCHAR uni2016
ENCODING 8214
SWIDTH 600 0
DWIDTH 5 0
BBX 3 9 1 -2
BITMAP
8190
8190
8190
8190
8190
8190
8190
8190
8190
ENDCHAR
STARTCHAR underscoredbl
ENCODING 8215
SWIDTH 600 0
DWIDTH 5 0
BBX 6 2 -1 -2
BITMAP
3FFFF2
6FFFE0
ENDCHAR
STARTCHAR quoteleft
ENCODING 8216
SWIDTH 600 0
DWIDTH 5 0
BBX 3 3 2 4
BITMAP
1A40
8700
8800
ENDCHAR
STARTCHAR quoteright
ENCODING 8217
SWIDTH 600 0
DWIDTH 5 0
BBX 2 3 2 3
BITMAP
4D
4C
C3
ENDCHAR
STARTCHAR quotesinglbase
ENCODING 8218
SWIDTH 600 0
DWIDTH 5 0
BBX 3 3 1 -2
BITMAP
0D40
1B30
8700
ENDCHAR
STARTCHAR quotereversed
ENCODING 8219
SWIDTH 600 0
DWIDTH 5 0
BBX 2 3 2 3
BITMAP
97
B2
57
ENDCHAR
STARTCHAR quotedblleft
ENCODING 8220
SWIDTH 600 0
DWIDTH 5 0
BBX 5 3 1 4
BITMAP
1A4950
878800
988900
ENDCHAR
STARTCHAR quotedblright
ENCODING 8221
SWIDTH 600 0
DWIDTH 5 0
BBX 4 3 1 3
BITMAP
4C3D
4C3C
C3C3
ENDCHAR
STARTCHAR quotedblbase
ENCODING 8222
SWIDTH 600 0
DWIDTH 5 0
BBX 4 3 1 -2
BITMAP
4C3D
4C3C
C3C3
ENDCHAR
STARTCHAR dagger
ENCODING 8224
SWIDTH 600 0
DWIDTH 5 0
BBX 4 8 1 -2
BITMAP
0180
6FF8
0530
0800
0800
0800
3600
1100
ENDCHAR
STARTCHAR daggerdbl
ENCODING 8225
SWIDTH 600 0
DWIDTH 5 0
BBX 5 7 0 -1
BITMAP
001800
06FF90
005300
008100
008000
2FFD00
027000
ENDCHAR
STARTCHAR bullet
ENCODING 8226
SWIDTH 600 0
DWIDTH 5 0
BBX 3 3 1 1
BITMAP
4EA0
AFE0
7E60
ENDCHAR
STARTCHAR ellipsis
ENCODING 8230
SWIDTH 600 0
DWIDTH 5 0
BBX 5 1 0 0
BITMAP
D3A670
ENDCHAR
STARTCHAR uni202F
ENCODING 8239
SWIDTH 600 0
DWIDTH 5 0
BBX 1 1 0 0
BITMAP
00
ENDCHAR
STARTCHAR perthousand
ENCODING 8240
SWIDTH 600 0
DWIDTH 5 0
BBX 6 6 0 0
BITMAP
0BA000
369022
1EC751
8F3D60
979380
BA5E30
ENDCHAR
STARTCHAR uni2032
ENCODING 8242
SWIDTH 600 0
DWIDTH 5 0
BBX 2 2 2 4
BITMAP
0A
34
ENDCHAR
STARTCHAR uni2033
ENCODING 8243
SWIDTH 600 0
DWIDTH 5 0
BBX 4 2 1 4
BITMAP
0928
1762
ENDCHAR
STARTCHAR uni2035
ENCODING 8245
SWIDTH 600 0
DWIDTH 5 0
BBX 2 2 2 4
BITMAP
46
08
ENDCHAR
STARTCHAR guilsinglleft
ENCODING 8249
SWIDTH 600 0
DWIDTH 5 0
BBX 3 4 1 0
BITMAP
0360
2A00
3800
0700
ENDCHAR
STARTCHAR guilsinglright
ENCODING 8250
SWIDTH 600 0
DWIDTH 5 0
BBX 3 4 1 0
BITMAP
0800
0740
0920
5300
ENDCHAR
STARTCHAR exclamdbl
ENCODING 8252
SWIDTH 600 0
DWIDTH 5 0
BBX 5 6 0 0
BITMAP
0470B0
064280
081450
080710
000000
591C00
ENDCHAR
STARTCHAR uni203D
ENCODING 8253
SWIDTH 600 0
DWIDTH 5 0
BBX 4 6 1 0
BITMAP
1BE5
4339
0791
0910
0000
4900
ENDCHAR
STARTCHAR uni203E
ENCODING 8254
SWIDTH 600 0
DWIDTH 5 0
BBX 5 1 1 5
BITMAP
DFFF50
ENDCHAR
STARTCHAR uni203F
ENCODING 8255
SWIDTH 600 0
DWIDTH 5 0
BBX 8 2 -2 -2
BITMAP
76211375
05CED920
ENDCHAR
STARTCHAR fraction
ENCODING 8260
SWIDTH 600 0
DWIDTH 5 0
BBX 7 5 -1 0
BITMAP
00000530
00004400
00000000
02600000
17000000
ENDCHAR
STARTCHAR uni2047
ENCODING 8263
SWIDTH 600 0
DWIDTH 5 0
BBX 6 6 0 0
BITMAP
1DB7E5
12A346
044070
170810
000000
952B00
ENDCHAR
STARTCHAR uni2048
ENCODING 8264
SWIDTH 600 0
DWIDTH 5 0
BBX 5 6 0 0
BITMAP
1DB0B0
12A0A0
044260
170530
000000
950C10
ENDCHAR
STARTCHAR uni2049
ENCODING 8265
SWIDTH 600 0
DWIDTH 5 0
BBX 6 6 0 0
BITMAP
0557E5
082346
090070
080810
000000
672B00
ENDCHAR
STARTCHAR zero.sups
ENCODING 8304
SWIDTH 600 0
DWIDTH 5 0
BBX 4 4 1 3
BITMAP
08E2
2846
4564
1DA0
ENDCHAR
STARTCHAR i.sups
ENCODING 8305
SWIDTH 600 0
DWIDTH 5 0
BBX 4 5 1 3
BITMAP
0090
0000
1F60
0330
04E2
ENDCHAR
STARTCHAR four.sups
ENCODING 8308
SWIDTH 600 0
DWIDTH 5 0
BBX 4 4 1 3
BITMAP
0160
0770
5FF5
0070
ENDCHAR
STARTCHAR five.sups
ENCODING 8309
SWIDTH 600 0
DWIDTH 5 0
BBX 4 4 1 3
BITMAP
07F7
0BD1
2482
1CB0
ENDCHAR
STARTCHAR six.sups
ENCODING 8310
SWIDTH 600 0
DWIDTH 5 0
BBX 4 4 1 3
BITMAP
06E4
0DE2
2872
0CB0
ENDCHAR
STARTCHAR seven.sups
ENCODING 8311
SWIDTH 600 0
DWIDTH 5 0
BBX 3 4 2 3
BITMAP
BF90
0520
2600
7000
ENDCHAR
STARTCHAR eight.sups
ENCODING 8312
SWIDTH 600 0
DWIDTH 5 0
BBX 4 4 1 3
BITMAP
08E3
0BE2
3791
1DB0
ENDCHAR
STARTCHAR nine.sups
ENCODING 8313
SWIDTH 600 0
DWIDTH 5 0
BBX 4 4 1 3
BITMAP
09D2
0955
0CE3
2E90
ENDCHAR
STARTCHAR parenleft.sups
ENCODING 8317
SWIDTH 600 0
DWIDTH 5 0
BBX 3 5 2 3
BITMAP
0610
2600
6200
6100
4300
ENDCHAR
STARTCHAR parenright.sups
ENCODING 8318
SWIDTH 600 0
DWIDTH 5 0
BBX 2 5 2 3
BITMAP
06
08
08
44
70
ENDCHAR
STARTCHAR n.sups
ENCODING 8319
SWIDTH 600 0
DWIDTH 5 0
BBX 4 4 1 2
BITMAP
0BE6
0A18
2626
2222
ENDCHAR
STARTCHAR zero.subs
ENCODING 8320
SWIDTH 600 0
DWIDTH 5 0
BBX 3 4 1 -2
BITMAP
5E60
A190
9370
BD10
ENDCHAR
STARTCHAR one.subs
ENCODING 8321
SWIDTH 600 0
DWIDTH 5 0
BBX 4 4 0 -2
BITMAP
03C1
0070
0080
1FF9
ENDCHAR
STARTCHAR two.subs
ENCODING 8322
SWIDTH 600 0
DWIDTH 5 0
BBX 4 4 0 -2
BITMAP
03E6
0226
0340
1FF4
ENDCHAR
STARTCHAR three.subs
ENCODING 8323
SWIDTH 600 0
DWIDTH 5 0
BBX 3 4 1 -2
BITMAP
3E60
2F20
4550
9D20
ENDCHAR
STARTCHAR four.subs
ENCODING 8324
SWIDTH 600 0
DWIDTH 5 0
BBX 3 4 1 -2
BITMAP
0700
6540
FF90
0700
ENDCHAR
STARTCHAR five.subs
ENCODING 8325
SWIDTH 600 0
DWIDTH 5 0
BBX 3 4 1 -2
BITMAP
3FB0
7E40
5470
9D20
ENDCHAR
STARTCHAR six.subs
ENCODING 8326
SWIDTH 600 0
DWIDTH 5 0
BBX 3 4 1 -2
BITMAP
3D80
AE50
A370
8D20
ENDCHAR
STARTCHAR seven.subs
ENCODING 8327
SWIDTH 600 0
DWIDTH 5 0
BBX 3 4 1 -2
BITMAP
7FE0
0340
0800
4400
ENDCHAR
STARTCHAR eight.subs
ENCODING 8328
SWIDTH 600 0
DWIDTH 5 0
BBX 3 4 1 -2
BITMAP
5E70
7F50
A550
AD20
ENDCHAR
STARTCHAR nine.subs
ENCODING 8329
SWIDTH 600 0
DWIDTH 5 0
BBX 3 4 1 -2
BITMAP
5E50
9290
9E70
CC10
ENDCHAR
STARTCHAR parenleft.subs
ENCODING 8333
SWIDTH 600 0
DWIDTH 5 0
BBX 3 5 1 -2
BITMAP
0340
0800
1600
2500
0600
ENDCHAR
STARTCHAR parenright.subs
ENCODING 8334
SWIDTH 600 0
DWIDTH 5 0
BBX 2 5 1 -2
BITMAP
07
08
08
17
61
ENDCHAR
STARTCHAR uni0259.sups
ENCODING 8340
SWIDTH 600 0
DWIDTH 5 0
BBX 4 3 1 3
BITMAP
09E3
4FF6
2EC1
ENDCHAR
STARTCHAR colonmonetary
ENCODING 8353
SWIDTH 600 0
DWIDTH 5 0
BBX 6 8 0 -1
BITMAP
000440
019EB0
099781
1B4500
384500
1A6540
09EA00
044000
ENDCHAR
STARTCHAR franc
ENCODING 8355
SWIDTH 600 0
DWIDTH 5 0
BBX 6 6 0 0
BITMAP
03FFF4
064000
09FF50
0A0000
AFF200
280000
ENDCHAR
STARTCHAR lira
ENCODING 8356
SWIDTH 600 0
DWIDTH 5 0
BBX 5 6 0 0
BITMAP
00BE70
048160
1FFF20
036000
4FFE00
9EFF30
ENDCHAR
STARTCHAR uni20A6
ENCODING 8358
SWIDTH 600 0
DWIDTH 5 0
BBX 6 6 0 0
BITMAP
068080
077170
6FFFF1
087440
9FFFD0
353C00
ENDCHAR
STARTCHAR peseta
ENCODING 8359
SWIDTH 600 0
DWIDTH 5 0
BBX 6 6 0 0
BITMAP
05FF80
3FFFF5
0A0580
0DFB10
1A0000
460000
ENDCHAR
STARTCHAR uni20A9
ENCODING 8361
SWIDTH 600 0
DWIDTH 5 0
BBX 6 6 0 0
BITMAP
0A2563
096680
8FFFF1
095950
1C2B10
2B3A00
ENDCHAR
STARTCHAR dong
ENCODING 8363
SWIDTH 600 0
DWIDTH 5 0
BBX 6 8 0 0
BITMAP
000090
006FF4
000170
07ED40
1B1910
0CEB00
000000
7FFE00
ENDCHAR
STARTCHAR Euro
ENCODING 8364
SWIDTH 600 0
DWIDTH 5 0
BBX 6 6 0 0
BITMAP
009EB0
087143
6FFF50
0B0000
9FFF50
0AFC10
ENDCHAR
STARTCHAR uni20AE
ENCODING 8366
SWIDTH 600 0
DWIDTH 5 0
BBX 5 6 1 0
BITMAP
BFFF30
047100
1A8200
5C6100
5B0000
190000
ENDCHAR
STARTCHAR uni20B1
ENCODING 8369
SWIDTH 600 0
DWIDTH 5 0
BBX 6 7 0 -1
BITMAP
04FD30
0644A0
2FFFF6
2B77C1
3D8AC2
2E7C30
048300
ENDCHAR
STARTCHAR uni20B2
ENCODING 8370
SWIDTH 600 0
DWIDTH 5 0
BBX 5 8 0 -1
BITMAP
000700
01BF80
0B6160
390000
561F90
4A0460
0AFC20
008000
ENDCHAR
STARTCHAR uni20B4
ENCODING 8372
SWIDTH 600 0
DWIDTH 5 0
BBX 5 6 0 0
BITMAP
00BE60
023480
2FFFE0
02C300
5FFFB0
1DF800
ENDCHAR
STARTCHAR uni20B5
ENCODING 8373
SWIDTH 600 0
DWIDTH 5 0
BBX 6 8 0 -1
BITMAP
000510
009EA0
097751
0B0700
282400
1C6440
08FA10
006000
ENDCHAR
STARTCHAR uni20B8
ENCODING 8376
SWIDTH 600 0
DWIDTH 5 0
BBX 5 6 1 0
BITMAP
BFFF40
000000
EFFF00
073000
0A0000
1A0000
ENDCHAR
STARTCHAR uni20B9
ENCODING 8377
SWIDTH 600 0
DWIDTH 5 0
BBX 6 6 0 0
BITMAP
08FFF3
0BFFE0
002A20
2FD600
01A000
005700
ENDCHAR
STARTCHAR uni20BA
ENCODING 8378
SWIDTH 600 0
DWIDTH 5 0
BBX 5 6 0 0
BITMAP
00A010
04B610
2A9600
3C1090
0A2950
0EC500
ENDCHAR
STARTCHAR uni20BD
ENCODING 8381
SWIDTH 600 0
DWIDTH 5 0
BBX 6 6 0 0
BITMAP
00DFD2
039185
8FFEA0
073000
BFFF60
0A0000
ENDCHAR
STARTCHAR uni2105
ENCODING 8453
SWIDTH 600 0
DWIDTH 5 0
BBX 7 6 -1 0
BITMAP
07E20130
0A211710
0BB03000
0023DA00
04582A00
1507E600
ENDCHAR
STARTCHAR uni2113
ENCODING 8467
SWIDTH 600 0
DWIDTH 5 0
BBX 4 6 1 0
BITMAP
03D8
0A39
0B64
2D60
B730
5E90
ENDCHAR
STARTCHAR uni2116
ENCODING 8470
SWIDTH 600 0
DWIDTH 5 0
BBX 7 6 -1 0
BITMAP
04A1BC80
0785A580
09785E40
0A790000
29788F00
74670000
ENDCHAR
STARTCHAR uni2117
ENCODING 8471
SWIDTH 600 0
DWIDTH 5 0
BBX 6 6 0 0
BITMAP
04DE80
2A2192
70EE53
62FC71
883580
2DE900
ENDCHAR
STARTCHAR uni2120
ENCODING 8480
SWIDTH 600 0
DWIDTH 5 0
BBX 6 3 0 3
BITMAP
1E4B69
284BA6
4E7334
ENDCHAR
STARTCHAR trademark
ENCODING 8482
SWIDTH 600 0
DWIDTH 5 0
BBX 6 3 0 3
BITMAP
5FDB6B
070AB6
072516
ENDCHAR
STARTCHAR uni2126
ENCODING 8486
SWIDTH 600 0
DWIDTH 5 0
BBX 7 6 -1 0
BITMAP
004DE800
02C31C10
07400920
08200900
04506300
3FA4FA00
ENDCHAR
STARTCHAR estimated
ENCODING 8494
SWIDTH 600 0
DWIDTH 5 0
BBX 6 6 0 0
BITMAP
08EB10
681390
A600E0
AFFFF2
670440
08E800
ENDCHAR
STARTCHAR uni2150
ENCODING 8528
SWIDTH 600 0
DWIDTH 5 0
BBX 7 6 -1 0
BITMAP
05B00000
00700530
02604400
0002FF10
02603500
17008000
ENDCHAR
STARTCHAR uni2151
ENCODING 8529
SWIDTH 600 0
DWIDTH 5 0
BBX 7 6 -1 0
BITMAP
05B00000
00700530
02604400
0002E900
0264EB00
1706E500
ENDCHAR
STARTCHAR uni2152
ENCODING 8530
SWIDTH 600 0
DWIDTH 5 0
BBX 6 6 0 0
BITMAP
0B8000
035022
037751
043D60
7C7380
075E30
ENDCHAR
STARTCHAR onethird
ENCODING 8531
SWIDTH 600 0
DWIDTH 5 0
BBX 7 6 -1 0
BITMAP
05B00000
00700530
02604400
0000B900
0262C700
1703E700
ENDCHAR
STARTCHAR twothirds
ENCODING 8532
SWIDTH 600 0
DWIDTH 5 0
BBX 7 6 -1 0
BITMAP
06E10000
04300530
1FF24400
0000B900
0262C700
1703E700
ENDCHAR
STARTCHAR uni2155
ENCODING 8533
SWIDTH 600 0
DWIDTH 5 0
BBX 7 6 -1 0
BITMAP
05B00000
00700530
02604400
0000ED00
0264F800
1704F700
ENDCHAR
STARTCHAR uni2156
ENCODING 8534
SWIDTH 600 0
DWIDTH 5 0
BBX 7 6 -1 0
BITMAP
06E10000
04300530
1FF24400
0000ED00
0264F800
1704F700
ENDCHAR
STARTCHAR uni2157
ENCODING 8535
SWIDTH 600 0
DWIDTH 5 0
BBX 7 6 -1 0
BITMAP
04E20000
06D00530
0AD14400
0000ED00
0264F800
1704F700
ENDCHAR
STARTCHAR uni2158
ENCODING 8536
SWIDTH 600 0
DWIDTH 5 0
BBX 7 6 -1 0
BITMAP
01500000
07500530
2FF44400
0000ED00
0264F800
1704F700
ENDCHAR
STARTCHAR uni2159
ENCODING 8537
SWIDTH 600 0
DWIDTH 5 0
BBX 7 6 -1 0
BITMAP
05B00000
00700530
02604400
0001CC00
0266EA00
1704E800
ENDCHAR
STARTCHAR uni215A
ENCODING 8538
SWIDTH 600 0
DWIDTH 5 0
BBX 7 6 -1 0
BITMAP
07F50000
0CE10530
0CD14400
0001CC00
0266EA00
1704E800
ENDCHAR
STARTCHAR oneeighth
ENCODING 8539
SWIDTH 600 0
DWIDTH 5 0
BBX 7 6 -1 0
BITMAP
05B00000
00700530
02604400
0001DA00
0262F800
1705E700
ENDCHAR
STARTCHAR threeeighths
ENCODING 8540
SWIDTH 600 0
DWIDTH 5 0
BBX 7 6 -1 0
BITMAP
04E20000
06D00530
0AD14400
0001DA00
0262F800
1705E700
ENDCHAR
STARTCHAR fiveeighths
ENCODING 8541
SWIDTH 600 0
DWIDTH 5 0
BBX 7 6 -1 0
BITMAP
07F50000
0CE10530
0CD14400
0001DA00
0262F800
1705E700
ENDCHAR
STARTCHAR seveneighths
ENCODING 8542
SWIDTH 600 0
DWIDTH 5 0
BBX 7 6 -1 0
BITMAP
0AF80000
00710530
05404400
0001DA00
0262F800
1705E700
ENDCHAR
STARTCHAR uni2189
ENCODING 8585
SWIDTH 600 0
DWIDTH 5 0
BBX 7 6 -1 0
BITMAP
08E50000
09370530
0CC24400
0000B900
0262C700
1703E700
ENDCHAR
STARTCHAR uni2190
ENCODING 8592
SWIDTH 600 0
DWIDTH 5 0
BBX 6 5 0 0
BITMAP
028000
170000
AFFFF2
170000
028000
ENDCHAR
STARTCHAR arrowup
ENCODING 8593
SWIDTH 600 0
DWIDTH 5 0
BBX 5 5 0 0
BITMAP
01B400
09A730
529070
009000
009000
ENDCHAR
STARTCHAR uni2192
ENCODING 8594
SWIDTH 600 0
DWIDTH 5 0
BBX 6 5 0 0
BITMAP
004500
000440
BFFFE1
000440
004500
ENDCHAR
STARTCHAR arrowdown
ENCODING 8595
SWIDTH 600 0
DWIDTH 5 0
BBX 5 5 0 0
BITMAP
009000
009000
529070
09A730
01B400
ENDCHAR
STARTCHAR arrowboth
ENCODING 8596
SWIDTH 600 0
DWIDTH 5 0
BBX 6 5 0 0
BITMAP
040310
530070
EFFFF5
530070
040310
ENDCHAR
STARTCHAR arrowupdn
ENCODING 8597
SWIDTH 600 0
DWIDTH 5 0
BBX 5 6 0 -1
BITMAP
01B500
189550
009000
009000
189550
01B500
ENDCHAR
STARTCHAR uni2196
ENCODING 8598
SWIDTH 600 0
DWIDTH 5 0
BBX 5 5 0 0
BITMAP
010000
2E8820
28A100
262A10
130240
ENDCHAR
STARTCHAR uni2197
ENCODING 8599
SWIDTH 600 0
DWIDTH 5 0
BBX 5 4 0 0
BITMAP
088D70
007670
075160
150030
ENDCHAR
STARTCHAR uni2198
ENCODING 8600
SWIDTH 600 0
DWIDTH 5 0
BBX 5 5 0 0
BITMAP
010000
1A1170
01A170
011A70
067740
ENDCHAR
STARTCHAR uni2199
ENCODING 8601
SWIDTH 600 0
DWIDTH 5 0
BBX 5 5 0 0
BITMAP
000010
170750
177500
1C5100
177730
ENDCHAR
STARTCHAR arrowupdnbse
ENCODING 8616
SWIDTH 600 0
DWIDTH 5 0
BBX 5 6 0 -1
BITMAP
02C500
179440
009000
129030
07C820
7FFFD0
ENDCHAR
STARTCHAR uni21D0
ENCODING 8656
SWIDTH 600 0
DWIDTH 5 0
BBX 6 7 0 -1
BITMAP
002000
036000
2DFFF2
920000
2DFFF2
036000
002000
ENDCHAR
STARTCHAR uni21D1
ENCODING 8657
SWIDTH 600 0
DWIDTH 5 0
BBX 5 5 0 0
BITMAP
019400
0B2A30
572770
052700
052700
ENDCHAR
STARTCHAR uni21D2
ENCODING 8658
SWIDTH 600 0
DWIDTH 5 0
BBX 6 7 0 -1
BITMAP
001000
003600
BFFF60
0000A1
BFFF60
003600
002000
ENDCHAR
STARTCHAR uni21D3
ENCODING 8659
SWIDTH 600 0
DWIDTH 5 0
BBX 5 5 0 0
BITMAP
052700
052700
572770
1B2A30
019400
ENDCHAR
STARTCHAR uni2200
ENCODING 8704
SWIDTH 600 0
DWIDTH 5 0
BBX 6 6 0 0
BITMAP
1A0075
0D99C0
0B6B40
090900
096300
079000
ENDCHAR
STARTCHAR partialdiff
ENCODING 8706
SWIDTH 600 0
DWIDTH 5 0
BBX 5 6 0 0
BITMAP
009E70
0031B0
09EBA0
581690
842A30
3ED400
ENDCHAR
STARTCHAR uni2203
ENCODING 8707
SWIDTH 600 0
DWIDTH 5 0
BBX 5 6 0 0
BITMAP
0CFFB0
000280
0DFF50
000920
000B00
FFFC00
ENDCHAR
STARTCHAR uni2206
ENCODING 8710
SWIDTH 600 0
DWIDTH 5 0
BBX 6 6 -1 0
BITMAP
0005B0
001990
007282
028055
091037
2FFFF9
ENDCHAR
STARTCHAR product
ENCODING 8719
SWIDTH 600 0
DWIDTH 5 0
BBX 5 7 0 -1
BITMAP
8FFFD0
8300A0
8300A0
8300A0
8300A0
8300A0
8300A0
ENDCHAR
STARTCHAR summation
ENCODING 8721
SWIDTH 600 0
DWIDTH 5 0
BBX 5 7 0 -1
BITMAP
5FFF90
1A1000
029000
007400
029000
1A0000
6FFFD0
ENDCHAR
STARTCHAR minus
ENCODING 8722
SWIDTH 600 0
DWIDTH 5 0
BBX 5 1 0 2
BITMAP
3FFF90
ENDCHAR
STARTCHAR uni2215
ENCODING 8725
SWIDTH 600 0
DWIDTH 5 0
BBX 7 5 -1 0
BITMAP
00000530
00004400
00000000
02600000
17000000
ENDCHAR
STARTCHAR uni2219
ENCODING 8729
SWIDTH 600 0
DWIDTH 5 0
BBX 2 1 1 2
BITMAP
4B
ENDCHAR
STARTCHAR radical
ENCODING 8730
SWIDTH 600 0
DWIDTH 5 0
BBX 6 9 0 -1
BITMAP
000021
000070
000080
000080
270350
162710
017800
009800
006600
ENDCHAR
STARTCHAR infinity
ENCODING 8734
SWIDTH 600 0
DWIDTH 5 0
BBX 6 4 0 1
BITMAP
8D2CC1
A3C355
A2C455
9D2CC1
ENDCHAR
STARTCHAR orthogonal
ENCODING 8735
SWIDTH 600 0
DWIDTH 5 0
BBX 5 5 0 1
BITMAP
230000
350000
350000
350000
3FFF90
ENDCHAR
STARTCHAR intersection
ENCODING 8745
SWIDTH 600 0
DWIDTH 5 0
BBX 5 4 0 1
BITMAP
08EC10
1A1570
270180
270180
ENDCHAR
STARTCHAR integral
ENCODING 8747
SWIDTH 600 0
DWIDTH 5 0
BBX 3 9 1 -2
BITMAP
05D0
0910
0900
0900
0720
0530
0540
0640
4D10
ENDCHAR
STARTCHAR uni2237
ENCODING 8759
SWIDTH 600 0
DWIDTH 5 0
BBX 5 4 0 1
BITMAP
0B54C0
000000
000000
5A0C30
ENDCHAR
STARTCHAR approxequal
ENCODING 8776
SWIDTH 600 0
DWIDTH 5 0
BBX 5 4 0 1
BITMAP
0CA270
266E30
0CA270
266E30
ENDCHAR
STARTCHAR notequal
ENCODING 8800
SWIDTH 600 0
DWIDTH 5 0
BBX 5 5 0 0
BITMAP
000620
3FFF90
007100
3FFF90
071000
ENDCHAR
STARTCHAR equivalence
ENCODING 8801
SWIDTH 600 0
DWIDTH 5 0
BBX 5 5 0 0
BITMAP
3FFF90
000000
3FFF90
000000
3FFF90
ENDCHAR
STARTCHAR lessequal
ENCODING 8804
SWIDTH 600 0
DWIDTH 5 0
BBX 5 6 0 0
BITMAP
000010
038D80
3E8200
038D80
000010
3FFF90
ENDCHAR
STARTCHAR greaterequal
ENCODING 8805
SWIDTH 600 0
DWIDTH 5 0
BBX 5 5 0 0
BITMAP
3EA510
005C90
3DA510
110000
3FFF90
ENDCHAR
STARTCHAR house
ENCODING 8962
SWIDTH 600 0
DWIDTH 5 0
BBX 5 6 0 0
BITMAP
01D500
0A5B20
5602A0
810090
810090
8FFFE0
ENDCHAR
STARTCHAR revlogicalnot
ENCODING 8976
SWIDTH 600 0
DWIDTH 5 0
BBX 5 3 0 0
BITMAP
3FFF90
350000
240000
ENDCHAR
STARTCHAR uni231C
ENCODING 8988
SWIDTH 600 0
DWIDTH 5 0
BBX 5 7 1 0
BITMAP
06FF20
091000
090000
090000
270000
540000
710000
ENDCHAR
STARTCHAR uni231D
ENCODING 8989
SWIDTH 600 0
DWIDTH 5 0
BBX 4 7 1 0
BITMAP
5FF1
0070
0070
0070
0350
0620
0800
ENDCHAR
STARTCHAR uni231E
ENCODING 8990
SWIDTH 600 0
DWIDTH 5 0
BBX 3 7 1 -1
BITMAP
0600
0800
0800
1700
3400
6100
9FC0
ENDCHAR
STARTCHAR uni231F
ENCODING 8991
SWIDTH 600 0
DWIDTH 5 0
BBX 4 7 0 -1
BITMAP
0006
0008
0008
0036
0063
0091
AFD0
ENDCHAR
STARTCHAR integraltp
ENCODING 8992
SWIDTH 600 0
DWIDTH 5 0
BBX 2 12 2 -5
BITMAP
2E
73
91
91
91
91
91
91
91
91
91
10
ENDCHAR
STARTCHAR integralbt
ENCODING 8993
SWIDTH 600 0
DWIDTH 5 0
BBX 3 11 1 -2
BITMAP
0810
0910
0910
0910
0910
0910
0910
0910
0910
0A00
8800
ENDCHAR
STARTCHAR uni2500
ENCODING 9472
SWIDTH 600 0
DWIDTH 5 0
BBX 7 1 -1 2
BITMAP
5FFFFFB0
ENDCHAR
STARTCHAR uni2501
ENCODING 9473
SWIDTH 600 0
DWIDTH 5 0
BBX 7 1 -1 2
BITMAP
5FFFFFB0
ENDCHAR
STARTCHAR uni2502
ENCODING 9474
SWIDTH 600 0
DWIDTH 5 0
BBX 2 13 2 -4
BITMAP
A1
A1
A1
A1
A1
A1
A1
A1
A1
A1
A1
A1
A1
ENDCHAR
STARTCHAR uni2503
ENCODING 9475
SWIDTH 600 0
DWIDTH 5 0
BBX 2 13 2 -4
BITMAP
F6
F6
F6
F6
F6
F6
F6
F6
F6
F6
F6
F6
F6
ENDCHAR
STARTCHAR uni2504
ENCODING 9476
SWIDTH 600 0
DWIDTH 5 0
BBX 6 1 0 2
BITMAP
B8E6F2
ENDCHAR
STARTCHAR uni2505
ENCODING 9477
SWIDTH 600 0
DWIDTH 5 0
BBX 6 1 0 2
BITMAP
B8E6F2
ENDCHAR
STARTCHAR uni2506
ENCODING 9478
SWIDTH 600 0
DWIDTH 5 0
BBX 2 10 2 -3
BITMAP
A1
A1
00
91
A1
50
30
A1
A1
10
ENDCHAR
STARTCHAR uni2507
ENCODING 9479
SWIDTH 600 0
DWIDTH 5 0
BBX 2 9 2 -2
BITMAP
F6
F6
00
F6
F6
00
00
F6
F6
ENDCHAR
STARTCHAR uni2508
ENCODING 9480
SWIDTH 600 0
DWIDTH 5 0
BBX 6 1 0 2
BITMAP
CAADC4
ENDCHAR
STARTCHAR uni2509
ENCODING 9481
SWIDTH 600 0
DWIDTH 5 0
BBX 6 1 0 2
BITMAP
CAADC4
ENDCHAR
STARTCHAR uni250A
ENCODING 9482
SWIDTH 600 0
DWIDTH 5 0
BBX 2 10 2 -2
BITMAP
A1
A1
00
A1
A1
00
A1
A1
A1
A1
ENDCHAR
STARTCHAR uni250B
ENCODING 9483
SWIDTH 600 0
DWIDTH 5 0
BBX 2 10 2 -2
BITMAP
F6
F6
00
F6
F6
00
F6
F6
F6
F6
ENDCHAR
STARTCHAR uni250C
ENCODING 9484
SWIDTH 600 0
DWIDTH 5 0
BBX 4 7 2 -4
BITMAP
AFFB
A100
A100
A100
A100
A100
9100
ENDCHAR
STARTCHAR uni250D
ENCODING 9485
SWIDTH 600 0
DWIDTH 5 0
BBX 4 7 2 -4
BITMAP
AFFB
A100
A100
A100
A100
A100
6000
ENDCHAR
STARTCHAR uni250E
ENCODING 9486
SWIDTH 600 0
DWIDTH 5 0
BBX 4 7 2 -4
BITMAP
FFFB
F600
F600
F600
F600
F600
E600
ENDCHAR
STARTCHAR uni250F
ENCODING 9487
SWIDTH 600 0
DWIDTH 5 0
BBX 4 7 2 -4
BITMAP
FFFB
F600
F600
F600
F600
F600
9400
ENDCHAR
STARTCHAR uni2510
ENCODING 9488
SWIDTH 600 0
DWIDTH 5 0
BBX 5 7 -1 -4
BITMAP
5FFF10
000A10
000A10
000A10
000A10
000A10
000910
ENDCHAR
STARTCHAR uni2511
ENCODING 9489
SWIDTH 600 0
DWIDTH 5 0
BBX 5 7 -1 -4
BITMAP
5FFF10
000A10
000A10
000A10
000A10
000A10
000600
ENDCHAR
STARTCHAR uni2512
ENCODING 9490
SWIDTH 600 0
DWIDTH 5 0
BBX 5 7 -1 -4
BITMAP
5FFF60
000F60
000F60
000F60
000F60
000F60
000E60
ENDCHAR
STARTCHAR uni2513
ENCODING 9491
SWIDTH 600 0
DWIDTH 5 0
BBX 5 7 -1 -4
BITMAP
5FFF60
000F60
000F60
000F60
000F60
000F60
000940
ENDCHAR
STARTCHAR uni2514
ENCODING 9492
SWIDTH 600 0
DWIDTH 5 0
BBX 4 7 2 2
BITMAP
9100
A100
A100
A100
A100
A100
AFFB
ENDCHAR
STARTCHAR uni2515
ENCODING 9493
SWIDTH 600 0
DWIDTH 5 0
BBX 4 7 2 2
BITMAP
6000
A100
A100
A100
A100
A100
AFFB
ENDCHAR
STARTCHAR uni2516
ENCODING 9494
SWIDTH 600 0
DWIDTH 5 0
BBX 4 7 2 2
BITMAP
E600
F600
F600
F600
F600
F600
FFFB
ENDCHAR
STARTCHAR uni2517
ENCODING 9495
SWIDTH 600 0
DWIDTH 5 0
BBX 4 7 2 2
BITMAP
9400
F600
F600
F600
F600
F600
FFFB
ENDCHAR
STARTCHAR uni2518
ENCODING 9496
SWIDTH 600 0
DWIDTH 5 0
BBX 5 7 -1 2
BITMAP
000910
000A10
000A10
000A10
000A10
000A10
5FFF10
ENDCHAR
STARTCHAR uni2519
ENCODING 9497
SWIDTH 600 0
DWIDTH 5 0
BBX 5 7 -1 2
BITMAP
000600
000A10
000A10
000A10
000A10
000A10
5FFF10
ENDCHAR
STARTCHAR uni251A
ENCODING 9498
SWIDTH 600 0
DWIDTH 5 0
BBX 5 7 -1 2
BITMAP
000E60
000F60
000F60
000F60
000F60
000F60
5FFF60
ENDCHAR
STARTCHAR uni251B
ENCODING 9499
SWIDTH 600 0
DWIDTH 5 0
BBX 5 7 -1 2
BITMAP
000940
000F60
000F60
000F60
000F60
000F60
5FFF60
ENDCHAR
STARTCHAR uni251C
ENCODING 9500
SWIDTH 600 0
DWIDTH 5 0
BBX 4 13 2 -4
BITMAP
9100
A100
A100
A100
A100
A100
AFFB
A100
A100
A100
A100
A100
9100
ENDCHAR
STARTCHAR uni251D
ENCODING 9501
SWIDTH 600 0
DWIDTH 5 0
BBX 4 13 2 -4
BITMAP
6000
A100
A100
A100
A100
A100
AFFB
A100
A100
A100
A100
A100
6000
ENDCHAR
STARTCHAR uni251E
ENCODING 9502
SWIDTH 600 0
DWIDTH 5 0
BBX 4 13 2 -4
BITMAP
E600
F600
F600
F600
F600
F600
FFFB
A100
A100
A100
A100
A100
9100
ENDCHAR
STARTCHAR uni251F
ENCODING 9503
SWIDTH 600 0
DWIDTH 5 0
BBX 4 13 2 -4
BITMAP
9100
A100
A100
A100
A100
A100
FFFB
F600
F600
F600
F600
F600
E600
ENDCHAR
STARTCHAR uni2520
ENCODING 9504
SWIDTH 600 0
DWIDTH 5 0
BBX 4 13 2 -4
BITMAP
E600
F600
F600
F600
F600
F600
FFFB
F600
F600
F600
F600
F600
E600
ENDCHAR
STARTCHAR uni2521
ENCODING 9505
SWIDTH 600 0
DWIDTH 5 0
BBX 4 13 2 -4
BITMAP
9400
F600
F600
F600
F600
F600
FFFB
A100
A100
A100
A100
A100
6000
ENDCHAR
STARTCHAR uni2522
ENCODING 9506
SWIDTH 600 0
DWIDTH 5 0
BBX 4 13 2 -4
BITMAP
6000
A100
A100
A100
A100
A100
FFFB
F600
F600
F600
F600
F600
9400
ENDCHAR
STARTCHAR uni2523
ENCODING 9507
SWIDTH 600 0
DWIDTH 5 0
BBX 4 13 2 -4
BITMAP
9400
F600
F600
F600
F600
F600
FFFB
F600
F600
F600
F600
F600
9400
ENDCHAR
STARTCHAR uni2524
ENCODING 9508
SWIDTH 600 0
DWIDTH 5 0
BBX 5 13 -1 -4
BITMAP
000910
000A10
000A10
000A10
000A10
000A10
5FFF10
000A10
000A10
000A10
000A10
000A10
000910
ENDCHAR
STARTCHAR uni2525
ENCODING 9509
SWIDTH 600 0
DWIDTH 5 0
BBX 5 13 -1 -4
BITMAP
000600
000A10
000A10
000A10
000A10
000A10
5FFF10
000A10
000A10
000A10
000A10
000A10
000600
ENDCHAR
STARTCHAR uni2526
ENCODING 9510
SWIDTH 600 0
DWIDTH 5 0
BBX 5 13 -1 -4
BITMAP
000E60
000F60
000F60
000F60
000F60
000F60
5FFF60
000A10
000A10
000A10
000A10
000A10
000910
ENDCHAR
STARTCHAR uni2527
ENCODING 9511
SWIDTH 600 0
DWIDTH 5 0
BBX 5 13 -1 -4
BITMAP
000910
000A10
000A10
000A10
000A10
000A10
5FFF60
000F60
000F60
000F60
000F60
000F60
000E60
ENDCHAR
STARTCHAR uni2528
ENCODING 9512
SWIDTH 600 0
DWIDTH 5 0
BBX 5 13 -1 -4
BITMAP
000E60
000F60
000F60
000F60
000F60
000F60
5FFF60
000F60
000F60
000F60
000F60
000F60
000E60
ENDCHAR
STARTCHAR uni2529
ENCODING 9513
SWIDTH 600 0
DWIDTH 5 0
BBX 5 13 -1 -4
BITMAP
000940
000F60
000F60
000F60
000F60
000F60
5FFF60
000A10
000A10
000A10
000A10
000A10
000600
ENDCHAR
STARTCHAR uni252A
ENCODING 9514
SWIDTH 600 0
DWIDTH 5 0
BBX 5 13 -1 -4
BITMAP
000600
000A10
000A10
000A10
000A10
000A10
5FFF60
000F60
000F60
000F60
000F60
000F60
000940
ENDCHAR
STARTCHAR uni252B
ENCODING 9515
SWIDTH 600 0
DWIDTH 5 0
BBX 5 13 -1 -4
BITMAP
000940
000F60
000F60
000F60
000F60
000F60
5FFF60
000F60
000F60
000F60
000F60
000F60
000940
ENDCHAR
STARTCHAR uni252C
ENCODING 9516
SWIDTH 600 0
DWIDTH 5 0
BBX 7 7 -1 -4
BITMAP
5FFFFFB0
000A1000
000A1000
000A1000
000A1000
000A1000
00091000
ENDCHAR
STARTCHAR uni252D
ENCODING 9517
SWIDTH 600 0
DWIDTH 5 0
BBX 7 7 -1 -4
BITMAP
5FFFFFB0
000A1000
000A1000
000A1000
000A1000
000A1000
00060000
ENDCHAR
STARTCHAR uni252E
ENCODING 9518
SWIDTH 600 0
DWIDTH 5 0
BBX 7 7 -1 -4
BITMAP
5FFFFFB0
000A1000
000A1000
000A1000
000A1000
000A1000
00060000
ENDCHAR
STARTCHAR uni252F
ENCODING 9519
SWIDTH 600 0
DWIDTH 5 0
BBX 7 7 -1 -4
BITMAP
5FFFFFB0
000A1000
000A1000
000A1000
000A1000
000A1000
00060000
ENDCHAR
STARTCHAR uni2530
ENCODING 9520
SWIDTH 600 0
DWIDTH 5 0
BBX 7 7 -1 -4
BITMAP
5FFFFFB0
000F6000
000F6000
000F6000
000F6000
000F6000
000E6000
ENDCHAR
STARTCHAR uni2531
ENCODING 9521
SWIDTH 600 0
DWIDTH 5 0
BBX 7 7 -1 -4
BITMAP
5FFFFFB0
000F6000
000F6000
000F6000
000F6000
000F6000
00094000
ENDCHAR
STARTCHAR uni2532
ENCODING 9522
SWIDTH 600 0
DWIDTH 5 0
BBX 7 7 -1 -4
BITMAP
5FFFFFB0
000F6000
000F6000
000F6000
000F6000
000F6000
00094000
ENDCHAR
STARTCHAR uni2533
ENCODING 9523
SWIDTH 600 0
DWIDTH 5 0
BBX 7 7 -1 -4
BITMAP
5FFFFFB0
000F6000
000F6000
000F6000
000F6000
000F6000
00094000
ENDCHAR
STARTCHAR uni2534
ENCODING 9524
SWIDTH 600 0
DWIDTH 5 0
BBX 7 7 -1 2
BITMAP
00091000
000A1000
000A1000
000A1000
000A1000
000A1000
5FFFFFB0
ENDCHAR
STARTCHAR uni2535
ENCODING 9525
SWIDTH 600 0
DWIDTH 5 0
BBX 7 7 -1 2
BITMAP
00060000
000A1000
000A1000
000A1000
000A1000
000A1000
5FFFFFB0
ENDCHAR
STARTCHAR uni2536
ENCODING 9526
SWIDTH 600 0
DWIDTH 5 0
BBX 7 7 -1 2
BITMAP
00060000
000A1000
000A1000
000A1000
000A1000
000A1000
5FFFFFB0
ENDCHAR
STARTCHAR uni2537
ENCODING 9527
SWIDTH 600 0
DWIDTH 5 0
BBX 7 7 -1 2
BITMAP
00060000
000A1000
000A1000
000A1000
000A1000
000A1000
5FFFFFB0
ENDCHAR
STARTCHAR uni2538
ENCODING 9528
SWIDTH 600 0
DWIDTH 5 0
BBX 7 7 -1 2
BITMAP
000E6000
000F6000
000F6000
000F6000
000F6000
000F6000
5FFFFFB0
ENDCHAR
STARTCHAR uni2539
ENCODING 9529
SWIDTH 600 0
DWIDTH 5 0
BBX 7 7 -1 2
BITMAP
00094000
000F6000
000F6000
000F6000
000F6000
000F6000
5FFFFFB0
ENDCHAR
STARTCHAR uni253A
ENCODING 9530
SWIDTH 600 0
DWIDTH 5 0
BBX 7 7 -1 2
BITMAP
00094000
000F6000
000F6000
000F6000
000F6000
000F6000
5FFFFFB0
ENDCHAR
STARTCHAR uni253B
ENCODING 9531
SWIDTH 600 0
DWIDTH 5 0
BBX 7 7 -1 2
BITMAP
00094000
000F6000
000F6000
000F6000
000F6000
000F6000
5FFFFFB0
ENDCHAR
STARTCHAR uni253C
ENCODING 9532
SWIDTH 600 0
DWIDTH 5 0
BBX 7 13 -1 -4
BITMAP
00091000
000A1000
000A1000
000A1000
000A1000
000A1000
5FFFFFB0
000A1000
000A1000
000A1000
000A1000
000A1000
00091000
ENDCHAR
STARTCHAR uni253D
ENCODING 9533
SWIDTH 600 0
DWIDTH 5 0
BBX 7 13 -1 -4
BITMAP
00060000
000A1000
000A1000
000A1000
000A1000
000A1000
5FFFFFB0
000A1000
000A1000
000A1000
000A1000
000A1000
00060000
ENDCHAR
STARTCHAR uni253E
ENCODING 9534
SWIDTH 600 0
DWIDTH 5 0
BBX 7 13 -1 -4
BITMAP
00060000
000A1000
000A1000
000A1000
000A1000
000A1000
5FFFFFB0
000A1000
000A1000
000A1000
000A1000
000A1000
00060000
ENDCHAR
STARTCHAR uni253F
ENCODING 9535
SWIDTH 600 0
DWIDTH 5 0
BBX 7 13 -1 -4
BITMAP
00060000
000A1000
000A1000
000A1000
000A1000
000A1000
5FFFFFB0
000A1000
000A1000
000A1000
000A1000
000A1000
00060000
ENDCHAR
STARTCHAR uni2540
ENCODING 9536
SWIDTH 600 0
DWIDTH 5 0
BBX 7 13 -1 -4
BITMAP
000E6000
000F6000
000F6000
000F6000
000F6000
000F6000
5FFFFFB0
000A1000
000A1000
000A1000
000A1000
000A1000
00091000
ENDCHAR
STARTCHAR uni2541
ENCODING 9537
SWIDTH 600 0
DWIDTH 5 0
BBX 7 13 -1 -4
BITMAP
00091000
000A1000
000A1000
000A1000
000A1000
000A1000
5FFFFFB0
000F6000
000F6000
000F6000
000F6000
000F6000
000E6000
ENDCHAR
STARTCHAR uni2542
ENCODING 9538
SWIDTH 600 0
DWIDTH 5 0
BBX 7 13 -1 -4
BITMAP
000E6000
000F6000
000F6000
000F6000
000F6000
000F6000
5FFFFFB0
000F6000
000F6000
000F6000
000F6000
000F6000
000E6000
ENDCHAR
STARTCHAR uni2543
ENCODING 9539
SWIDTH 600 0
DWIDTH 5 0
BBX 7 13 -1 -4
BITMAP
00094000
000F6000
000F6000
000F6000
000F6000
000F6000
5FFFFFB0
000A1000
000A1000
000A1000
000A1000
000A1000
00060000
ENDCHAR
STARTCHAR uni2544
ENCODING 9540
SWIDTH 600 0
DWIDTH 5 0
BBX 7 13 -1 -4
BITMAP
00094000
000F6000
000F6000
000F6000
000F6000
000F6000
5FFFFFB0
000A1000
000A1000
000A1000
000A1000
000A1000
00060000
ENDCHAR
STARTCHAR uni2545
ENCODING 9541
SWIDTH 600 0
DWIDTH 5 0
BBX 7 13 -1 -4
BITMAP
00060000
000A1000
000A1000
000A1000
000A1000
000A1000
5FFFFFB0
000F6000
000F6000
000F6000
000F6000
000F6000
00094000
ENDCHAR
STARTCHAR uni2546
ENCODING 9542
SWIDTH 600 0
DWIDTH 5 0
BBX 7 13 -1 -4
BITMAP
00060000
000A1000
000A1000
000A1000
000A1000
000A1000
5FFFFFB0
000F6000
000F6000
000F6000
000F6000
000F6000
00094000
ENDCHAR
STARTCHAR uni2547
ENCODING 9543
SWIDTH 600 0
DWIDTH 5 0
BBX 7 13 -1 -4
BITMAP
00094000
000F6000
000F6000
000F6000
000F6000
000F6000
5FFFFFB0
000A1000
000A1000
000A1000
000A1000
000A1000
00060000
ENDCHAR
STARTCHAR uni2548
ENCODING 9544
SWIDTH 600 0
DWIDTH 5 0
BBX 7 13 -1 -4
BITMAP
00060000
000A1000
000A1000
000A1000
000A1000
000A1000
5FFFFFB0
000F6000
000F6000
000F6000
000F6000
000F6000
00094000
ENDCHAR
STARTCHAR uni2549
ENCODING 9545
SWIDTH 600 0
DWIDTH 5 0
BBX 7 13 -1 -4
BITMAP
00094000
000F6000
000F6000
000F6000
000F6000
000F6000
5FFFFFB0
000F6000
000F6000
000F6000
000F6000
000F6000
00094000
ENDCHAR
STARTCHAR uni254A
ENCODING 9546
SWIDTH 600 0
DWIDTH 5 0
BBX 7 13 -1 -4
BITMAP
00094000
000F6000
000F6000
000F6000
000F6000
000F6000
5FFFFFB0
000F6000
000F6000
000F6000
000F6000
000F6000
00094000
ENDCHAR
STARTCHAR uni254B
ENCODING 9547
SWIDTH 600 0
DWIDTH 5 0
BBX 7 13 -1 -4
BITMAP
00094000
000F6000
000F6000
000F6000
000F6000
000F6000
5FFFFFB0
000F6000
000F6000
000F6000
000F6000
000F6000
00094000
ENDCHAR
STARTCHAR uni254C
ENCODING 9548
SWIDTH 600 0
DWIDTH 5 0
BBX 5 1 0 2
BITMAP
5F09B0
ENDCHAR
STARTCHAR uni254D
ENCODING 9549
SWIDTH 600 0
DWIDTH 5 0
BBX 5 1 0 2
BITMAP
5F09B0
ENDCHAR
STARTCHAR uni254E
ENCODING 9550
SWIDTH 600 0
DWIDTH 5 0
BBX 2 8 2 -1
BITMAP
A1
A1
70
00
00
70
A1
A1
ENDCHAR
STARTCHAR uni254F
ENCODING 9551
SWIDTH 600 0
DWIDTH 5 0
BBX 2 9 2 -2
BITMAP
F6
F6
F6
00
00
52
F6
F6
52
ENDCHAR
STARTCHAR uni2550
ENCODING 9552
SWIDTH 600 0
DWIDTH 5 0
BBX 7 3 -1 1
BITMAP
5FFFFFB0
00000000
5FFFFFB0
ENDCHAR
STARTCHAR uni2551
ENCODING 9553
SWIDTH 600 0
DWIDTH 5 0
BBX 3 13 1 -4
BITMAP
55B0
55B0
55B0
55B0
55B0
55B0
55B0
55B0
55B0
55B0
55B0
55B0
55B0
ENDCHAR
STARTCHAR uni2552
ENCODING 9554
SWIDTH 600 0
DWIDTH 5 0
BBX 4 9 2 -5
BITMAP
AFFB
A100
AFFB
A100
A100
A100
A100
A100
2000
ENDCHAR
STARTCHAR uni2553
ENCODING 9555
SWIDTH 600 0
DWIDTH 5 0
BBX 5 7 1 -4
BITMAP
5FFFB0
55B000
55B000
55B000
55B000
55B000
55A000
ENDCHAR
STARTCHAR uni2554
ENCODING 9556
SWIDTH 600 0
DWIDTH 5 0
BBX 5 9 1 -5
BITMAP
5FFFB0
550000
55EFB0
55B000
55B000
55B000
55B000
33B000
002000
ENDCHAR
STARTCHAR uni2555
ENCODING 9557
SWIDTH 600 0
DWIDTH 5 0
BBX 5 9 -1 -5
BITMAP
5FFF10
000A10
5FFF10
000A10
000A10
000A10
000A10
000A10
000200
ENDCHAR
STARTCHAR uni2556
ENCODING 9558
SWIDTH 600 0
DWIDTH 5 0
BBX 5 7 -1 -4
BITMAP
5FFFB0
0055B0
0055B0
0055B0
0055B0
0055B0
0055A0
ENDCHAR
STARTCHAR uni2557
ENCODING 9559
SWIDTH 600 0
DWIDTH 5 0
BBX 5 9 -1 -5
BITMAP
5FFFB0
0000B0
5FF5B0
0055B0
0055B0
0055B0
0055B0
005570
001100
ENDCHAR
STARTCHAR uni2558
ENCODING 9560
SWIDTH 600 0
DWIDTH 5 0
BBX 4 9 2 1
BITMAP
2000
A100
A100
A100
A100
A100
AFFB
A100
AFFB
ENDCHAR
STARTCHAR uni2559
ENCODING 9561
SWIDTH 600 0
DWIDTH 5 0
BBX 5 7 1 2
BITMAP
55A000
55B000
55B000
55B000
55B000
55B000
5FFFB0
ENDCHAR
STARTCHAR uni255A
ENCODING 9562
SWIDTH 600 0
DWIDTH 5 0
BBX 5 9 1 1
BITMAP
003000
43B000
55B000
55B000
55B000
55B000
55EFB0
550000
5FFFB0
ENDCHAR
STARTCHAR uni255B
ENCODING 9563
SWIDTH 600 0
DWIDTH 5 0
BBX 5 9 -1 1
BITMAP
000200
000A10
000A10
000A10
000A10
000A10
5FFF10
000A10
5FFF10
ENDCHAR
STARTCHAR uni255C
ENCODING 9564
SWIDTH 600 0
DWIDTH 5 0
BBX 5 7 -1 2
BITMAP
0055A0
0055B0
0055B0
0055B0
0055B0
0055B0
5FFFB0
ENDCHAR
STARTCHAR uni255D
ENCODING 9565
SWIDTH 600 0
DWIDTH 5 0
BBX 5 9 -1 1
BITMAP
001100
005570
0055B0
0055B0
0055B0
0055B0
5FF5B0
0000B0
5FFFB0
ENDCHAR
STARTCHAR uni255E
ENCODING 9566
SWIDTH 600 0
DWIDTH 5 0
BBX 4 15 2 -5
BITMAP
2000
A100
A100
A100
A100
A100
AFFB
A100
AFFB
A100
A100
A100
A100
A100
2000
ENDCHAR
STARTCHAR uni255F
ENCODING 9567
SWIDTH 600 0
DWIDTH 5 0
BBX 5 13 1 -4
BITMAP
55A000
55B000
55B000
55B000
55B000
55B000
55EFB0
55B000
55B000
55B000
55B000
55B000
33A000
ENDCHAR
STARTCHAR uni2560
ENCODING 9568
SWIDTH 600 0
DWIDTH 5 0
BBX 5 15 1 -5
BITMAP
003000
55B000
55B000
55B000
55B000
55B000
55EFB0
550000
55EFB0
55B000
55B000
55B000
55B000
33B000
002000
ENDCHAR
STARTCHAR uni2561
ENCODING 9569
SWIDTH 600 0
DWIDTH 5 0
BBX 5 15 -1 -5
BITMAP
000200
000A10
000A10
000A10
000A10
000A10
5FFF10
000A10
5FFF10
000A10
000A10
000A10
000A10
000A10
000200
ENDCHAR
STARTCHAR uni2562
ENCODING 9570
SWIDTH 600 0
DWIDTH 5 0
BBX 5 13 -1 -4
BITMAP
0055B0
0055B0
0055B0
0055B0
0055B0
0055B0
5FF5B0
0055B0
0055B0
0055B0
0055B0
0055B0
005560
ENDCHAR
STARTCHAR uni2563
ENCODING 9571
SWIDTH 600 0
DWIDTH 5 0
BBX 5 15 -1 -5
BITMAP
001100
0055B0
0055B0
0055B0
0055B0
0055B0
5FF5B0
0000B0
5FF5B0
0055B0
0055B0
0055B0
0055B0
005560
001100
ENDCHAR
STARTCHAR uni2564
ENCODING 9572
SWIDTH 600 0
DWIDTH 5 0
BBX 7 9 -1 -5
BITMAP
5FFFFFB0
00000000
5FFFFFB0
000A1000
000A1000
000A1000
000A1000
000A1000
00020000
ENDCHAR
STARTCHAR uni2565
ENCODING 9573
SWIDTH 600 0
DWIDTH 5 0
BBX 7 7 -1 -4
BITMAP
5FFFFFB0
0055B000
0055B000
0055B000
0055B000
0055B000
0055A000
ENDCHAR
STARTCHAR uni2566
ENCODING 9574
SWIDTH 600 0
DWIDTH 5 0
BBX 7 9 -1 -5
BITMAP
5FFFFFB0
00000000
5FF5EFB0
0055B000
0055B000
0055B000
0055B000
0055B000
00112000
ENDCHAR
STARTCHAR uni2567
ENCODING 9575
SWIDTH 600 0
DWIDTH 5 0
BBX 7 9 -1 1
BITMAP
00020000
000A1000
000A1000
000A1000
000A1000
000A1000
5FFFFFB0
00000000
5FFFFFB0
ENDCHAR
STARTCHAR uni2568
ENCODING 9576
SWIDTH 600 0
DWIDTH 5 0
BBX 7 7 -1 2
BITMAP
0055A000
0055B000
0055B000
0055B000
0055B000
0055B000
5FFFFFB0
ENDCHAR
STARTCHAR uni2569
ENCODING 9577
SWIDTH 600 0
DWIDTH 5 0
BBX 7 9 -1 1
BITMAP
00113000
0055B000
0055B000
0055B000
0055B000
0055B000
5FF5EFB0
00000000
5FFFFFB0
ENDCHAR
STARTCHAR uni256A
ENCODING 9578
SWIDTH 600 0
DWIDTH 5 0
BBX 7 15 -1 -5
BITMAP
00020000
000A1000
000A1000
000A1000
000A1000
000A1000
5FFFFFB0
000A1000
5FFFFFB0
000A1000
000A1000
000A1000
000A1000
000A1000
00020000
ENDCHAR
STARTCHAR uni256B
ENCODING 9579
SWIDTH 600 0
DWIDTH 5 0
BBX 7 13 -1 -4
BITMAP
0055A000
0055B000
0055B000
0055B000
0055B000
0055B000
5FFFFFB0
0055B000
0055B000
0055B000
0055B000
0055B000
0055A000
ENDCHAR
STARTCHAR uni256C
ENCODING 9580
SWIDTH 600 0
DWIDTH 5 0
BBX 7 15 -1 -5
BITMAP
00113000
0055B000
0055B000
0055B000
0055B000
0055B000
5FF5EFB0
00000000
5FF5EFB0
0055B000
0055B000
0055B000
0055B000
0055B000
00112000
ENDCHAR
STARTCHAR uni256D
ENCODING 9581
SWIDTH 600 0
DWIDTH 5 0
BBX 4 7 2 -4
BITMAP
02CB
1C40
7400
A100
A100
A100
9100
ENDCHAR
STARTCHAR uni256E
ENCODING 9582
SWIDTH 600 0
DWIDTH 5 0
BBX 5 7 -1 -4
BITMAP
5E6000
029600
000B00
000A10
000A10
000A10
000910
ENDCHAR
STARTCHAR uni256F
ENCODING 9583
SWIDTH 600 0
DWIDTH 5 0
BBX 5 7 -1 2
BITMAP
000910
000A10
000A10
000A10
000B00
029600
5E6000
ENDCHAR
STARTCHAR uni2570
ENCODING 9584
SWIDTH 600 0
DWIDTH 5 0
BBX 4 7 2 2
BITMAP
9100
A100
A100
A100
7400
1C40
02CB
ENDCHAR
STARTCHAR uni2571
ENCODING 9585
SWIDTH 600 0
DWIDTH 5 0
BBX 6 11 0 -3
BITMAP
000036
0000A1
000380
000A20
003900
00A200
039000
0A2000
390000
A20000
900000
ENDCHAR
STARTCHAR uni2572
ENCODING 9586
SWIDTH 600 0
DWIDTH 5 0
BBX 6 11 0 -3
BITMAP
900000
A20000
390000
0A2000
039000
00A200
003900
000A20
000380
0000A1
000036
ENDCHAR
STARTCHAR uni2573
ENCODING 9587
SWIDTH 600 0
DWIDTH 5 0
BBX 6 11 0 -3
BITMAP
900046
A200B1
3A0480
0A2B20
03C900
00C300
03C900
0A2B20
3A0480
A200A1
900046
ENDCHAR
STARTCHAR uni2574
ENCODING 9588
SWIDTH 600 0
DWIDTH 5 0
BBX 5 1 -1 2
BITMAP
5FFF10
ENDCHAR
STARTCHAR uni2575
ENCODING 9589
SWIDTH 600 0
DWIDTH 5 0
BBX 2 7 2 2
BITMAP
A1
A1
A1
A1
A1
A1
A1
ENDCHAR
STARTCHAR uni2576
ENCODING 9590
SWIDTH 600 0
DWIDTH 5 0
BBX 4 1 2 2
BITMAP
AFFB
ENDCHAR
STARTCHAR uni2577
ENCODING 9591
SWIDTH 600 0
DWIDTH 5 0
BBX 2 7 2 -4
BITMAP
A1
A1
A1
A1
A1
A1
A1
ENDCHAR
STARTCHAR uni2578
ENCODING 9592
SWIDTH 600 0
DWIDTH 5 0
BBX 5 1 -1 2
BITMAP
5FFF10
ENDCHAR
STARTCHAR uni2579
ENCODING 9593
SWIDTH 600 0
DWIDTH 5 0
BBX 2 7 2 2
BITMAP
F6
F6
F6
F6
F6
F6
F6
ENDCHAR
STARTCHAR uni257A
ENCODING 9594
SWIDTH 600 0
DWIDTH 5 0
BBX 4 1 2 2
BITMAP
AFFB
ENDCHAR
STARTCHAR uni257B
ENCODING 9595
SWIDTH 600 0
DWIDTH 5 0
BBX 2 7 2 -4
BITMAP
F6
F6
F6
F6
F6
F6
F6
ENDCHAR
STARTCHAR uni257C
ENCODING 9596
SWIDTH 600 0
DWIDTH 5 0
BBX 7 3 -1 1
BITMAP
00045540
5FFFFFB0
00035540
ENDCHAR
STARTCHAR uni257D
ENCODING 9597
SWIDTH 600 0
DWIDTH 5 0
BBX 2 13 2 -4
BITMAP
A1
A1
A1
A1
A1
A1
E5
F6
F6
F6
F6
F6
F6
ENDCHAR
STARTCHAR uni257E
ENCODING 9598
SWIDTH 600 0
DWIDTH 5 0
BBX 7 3 -1 1
BITMAP
25550000
5FFFFFB0
25550000
ENDCHAR
STARTCHAR uni257F
ENCODING 9599
SWIDTH 600 0
DWIDTH 5 0
BBX 2 13 2 -4
BITMAP
F6
F6
F6
F6
F6
F6
E5
A1
A1
A1
A1
A1
A1
ENDCHAR
STARTCHAR uni2580
ENCODING 9600
SWIDTH 600 0
DWIDTH 5 0
BBX 6 6 0 3
BITMAP
FFFFF6
FFFFF6
FFFFF6
FFFFF6
FFFFF6
FFFFF6
ENDCHAR
STARTCHAR uni2581
ENCODING 9601
SWIDTH 600 0
DWIDTH 5 0
BBX 6 2 0 -4
BITMAP
FFFFF6
FFFFF6
ENDCHAR
STARTCHAR uni2582
ENCODING 9602
SWIDTH 600 0
DWIDTH 5 0
BBX 6 4 0 -4
BITMAP
FFFFF6
FFFFF6
FFFFF6
FFFFF6
ENDCHAR
STARTCHAR uni2583
ENCODING 9603
SWIDTH 600 0
DWIDTH 5 0
BBX 6 5 0 -4
BITMAP
FFFFF6
FFFFF6
FFFFF6
FFFFF6
FFFFF6
ENDCHAR
STARTCHAR uni2584
ENCODING 9604
SWIDTH 600 0
DWIDTH 5 0
BBX 6 7 0 -4
BITMAP
FFFFF6
FFFFF6
FFFFF6
FFFFF6
FFFFF6
FFFFF6
FFFFF6
ENDCHAR
STARTCHAR uni2585
ENCODING 9605
SWIDTH 600 0
DWIDTH 5 0
BBX 6 8 0 -4
BITMAP
FFFFF6
FFFFF6
FFFFF6
FFFFF6
FFFFF6
FFFFF6
FFFFF6
FFFFF6
ENDCHAR
STARTCHAR uni2586
ENCODING 9606
SWIDTH 600 0
DWIDTH 5 0
BBX 6 10 0 -4
BITMAP
FFFFF6
FFFFF6
FFFFF6
FFFFF6
FFFFF6
FFFFF6
FFFFF6
FFFFF6
FFFFF6
FFFFF6
ENDCHAR
STARTCHAR uni2587
ENCODING 9607
SWIDTH 600 0
DWIDTH 5 0
BBX 6 11 0 -4
BITMAP
FFFFF6
FFFFF6
FFFFF6
FFFFF6
FFFFF6
FFFFF6
FFFFF6
FFFFF6
FFFFF6
FFFFF6
FFFFF6
ENDCHAR
STARTCHAR uni2588
ENCODING 9608
SWIDTH 600 0
DWIDTH 5 0
BBX 6 13 0 -4
BITMAP
FFFFF6
FFFFF6
FFFFF6
FFFFF6
FFFFF6
FFFFF6
FFFFF6
FFFFF6
FFFFF6
FFFFF6
FFFFF6
FFFFF6
FFFFF6
ENDCHAR
STARTCHAR uni2589
ENCODING 9609
SWIDTH 600 0
DWIDTH 5 0
BBX 5 13 0 -4
BITMAP
FFFFB0
FFFFB0
FFFFB0
FFFFB0
FFFFB0
FFFFB0
FFFFB0
FFFFB0
FFFFB0
FFFFB0
FFFFB0
FFFFB0
FFFFB0
ENDCHAR
STARTCHAR uni258A
ENCODING 9610
SWIDTH 600 0
DWIDTH 5 0
BBX 5 13 0 -4
BITMAP
FFFF10
FFFF10
FFFF10
FFFF10
FFFF10
FFFF10
FFFF10
FFFF10
FFFF10
FFFF10
FFFF10
FFFF10
FFFF10
ENDCHAR
STARTCHAR uni258B
ENCODING 9611
SWIDTH 600 0
DWIDTH 5 0
BBX 4 13 0 -4
BITMAP
FFF6
FFF6
FFF6
FFF6
FFF6
FFF6
FFF6
FFF6
FFF6
FFF6
FFF6
FFF6
FFF6
ENDCHAR
STARTCHAR uni258C
ENCODING 9612
SWIDTH 600 0
DWIDTH 5 0
BBX 3 13 0 -4
BITMAP
FFB0
FFB0
FFB0
FFB0
FFB0
FFB0
FFB0
FFB0
FFB0
FFB0
FFB0
FFB0
FFB0
ENDCHAR
STARTCHAR uni258D
ENCODING 9613
SWIDTH 600 0
DWIDTH 5 0
BBX 2 13 0 -4
BITMAP
FF
FF
FF
FF
FF
FF
FF
FF
FF
FF
FF
FF
FF
ENDCHAR
STARTCHAR uni258E
ENCODING 9614
SWIDTH 600 0
DWIDTH 5 0
BBX 2 13 0 -4
BITMAP
F5
F5
F5
F5
F5
F5
F5
F5
F5
F5
F5
F5
F5
ENDCHAR
STARTCHAR uni258F
ENCODING 9615
SWIDTH 600 0
DWIDTH 5 0
BBX 1 13 0 -4
BITMAP
A0
A0
A0
A0
A0
A0
A0
A0
A0
A0
A0
A0
A0
ENDCHAR
STARTCHAR uni2590
ENCODING 9616
SWIDTH 600 0
DWIDTH 5 0
BBX 4 13 2 -4
BITMAP
4FF6
4FF6
4FF6
4FF6
4FF6
4FF6
4FF6
4FF6
4FF6
4FF6
4FF6
4FF6
4FF6
ENDCHAR
STARTCHAR uni2591
ENCODING 9617
SWIDTH 600 0
DWIDTH 5 0
BBX 6 12 -1 -4
BITMAP
143424
031405
112020
031405
112020
031404
122121
032313
032313
122121
031405
112020
ENDCHAR
STARTCHAR uni2592
ENCODING 9618
SWIDTH 600 0
DWIDTH 5 0
BBX 6 13 -1 -4
BITMAP
07491A
223040
064829
234241
06491A
234241
064829
245444
154636
154636
245444
064829
234241
ENDCHAR
STARTCHAR uni2593
ENCODING 9619
SWIDTH 600 0
DWIDTH 5 0
BBX 7 13 -1 -4
BITMAP
0A7D6D20
47879600
1B9D8E20
5AA8B700
0B8E7F20
59A8B700
1B9E8E20
4999A810
2B9B9B10
2A9B9B10
4999A810
1B9D8E20
58A7B500
ENDCHAR
STARTCHAR uni2594
ENCODING 9620
SWIDTH 600 0
DWIDTH 5 0
BBX 6 2 0 7
BITMAP
FFFFF6
FFFFF6
ENDCHAR
STARTCHAR uni2595
ENCODING 9621
SWIDTH 600 0
DWIDTH 5 0
BBX 2 13 4 -4
BITMAP
46
46
46
46
46
46
46
46
46
46
46
46
46
ENDCHAR
STARTCHAR uni2596
ENCODING 9622
SWIDTH 600 0
DWIDTH 5 0
BBX 3 7 0 -4
BITMAP
FFB0
FFB0
FFB0
FFB0
FFB0
FFB0
FFB0
ENDCHAR
STARTCHAR uni2597
ENCODING 9623
SWIDTH 600 0
DWIDTH 5 0
BBX 4 7 2 -4
BITMAP
4FF6
4FF6
4FF6
4FF6
4FF6
4FF6
4FF6
ENDCHAR
STARTCHAR uni2598
ENCODING 9624
SWIDTH 600 0
DWIDTH 5 0
BBX 3 6 0 3
BITMAP
FFB0
FFB0
FFB0
FFB0
FFB0
FFB0
ENDCHAR
STARTCHAR uni2599
ENCODING 9625
SWIDTH 600 0
DWIDTH 5 0
BBX 6 13 0 -4
BITMAP
FFB000
FFB000
FFB000
FFB000
FFB000
FFB000
FFFFF6
FFFFF6
FFFFF6
FFFFF6
FFFFF6
FFFFF6
FFFFF6
ENDCHAR
STARTCHAR uni259A
ENCODING 9626
SWIDTH 600 0
DWIDTH 5 0
BBX 6 13 0 -4
BITMAP
FFB000
FFB000
FFB000
FFB000
FFB000
FFB000
004FF6
004FF6
004FF6
004FF6
004FF6
004FF6
004FF6
ENDCHAR
STARTCHAR uni259B
ENCODING 9627
SWIDTH 600 0
DWIDTH 5 0
BBX 6 13 0 -4
BITMAP
FFFFF6
FFFFF6
FFFFF6
FFFFF6
FFFFF6
FFFFF6
FFB000
FFB000
FFB000
FFB000
FFB000
FFB000
FFB000
ENDCHAR
STARTCHAR uni259C
ENCODING 9628
SWIDTH 600 0
DWIDTH 5 0
BBX 6 13 0 -4
BITMAP
FFFFF6
FFFFF6
FFFFF6
FFFFF6
FFFFF6
FFFFF6
004FF6
004FF6
004FF6
004FF6
004FF6
004FF6
004FF6
ENDCHAR
STARTCHAR uni259D
ENCODING 9629
SWIDTH 600 0
DWIDTH 5 0
BBX 4 6 2 3
BITMAP
4FF6
4FF6
4FF6
4FF6
4FF6
4FF6
ENDCHAR
STARTCHAR uni259E
ENCODING 9630
SWIDTH 600 0
DWIDTH 5 0
BBX 6 13 0 -4
BITMAP
004FF6
004FF6
004FF6
004FF6
004FF6
004FF6
FFB000
FFB000
FFB000
FFB000
FFB000
FFB000
FFB000
ENDCHAR
STARTCHAR uni259F
ENCODING 9631
SWIDTH 600 0
DWIDTH 5 0
BBX 6 13 0 -4
BITMAP
004FF6
004FF6
004FF6
004FF6
004FF6
004FF6
FFFFF6
FFFFF6
FFFFF6
FFFFF6
FFFFF6
FFFFF6
FFFFF6
ENDCHAR
STARTCHAR uni25A0
ENCODING 9632
SWIDTH 600 0
DWIDTH 5 0
BBX 5 4 0 1
BITMAP
3FFF90
3FFF90
3FFF90
3FFF90
ENDCHAR
STARTCHAR uni25A1
ENCODING 9633
SWIDTH 600 0
DWIDTH 5 0
BBX 5 4 0 1
BITMAP
5FFFB0
520070
520070
5FFFB0
ENDCHAR
STARTCHAR uni25AA
ENCODING 9642
SWIDTH 600 0
DWIDTH 5 0
BBX 3 2 1 1
BITMAP
8FE0
8FE0
ENDCHAR
STARTCHAR uni25AB
ENCODING 9643
SWIDTH 600 0
DWIDTH 5 0
BBX 3 3 1 1
BITMAP
9FF0
6060
9FF0
ENDCHAR
STARTCHAR filledrect
ENCODING 9644
SWIDTH 600 0
DWIDTH 5 0
BBX 6 1 0 2
BITMAP
FFFFF6
ENDCHAR
STARTCHAR triagup
ENCODING 9650
SWIDTH 600 0
DWIDTH 5 0
BBX 5 4 0 1
BITMAP
008100
02F800
0AFE10
3FFF90
ENDCHAR
STARTCHAR uni25B3
ENCODING 9651
SWIDTH 600 0
DWIDTH 5 0
BBX 5 5 0 1
BITMAP
001000
003100
020200
030110
3FFF90
ENDCHAR
STARTCHAR uni25B4
ENCODING 9652
SWIDTH 600 0
DWIDTH 5 0
BBX 3 3 1 1
BITMAP
0700
1E60
8FD0
ENDCHAR
STARTCHAR uni25B5
ENCODING 9653
SWIDTH 600 0
DWIDTH 5 0
BBX 4 3 1 1
BITMAP
0100
1010
AFE1
ENDCHAR
STARTCHAR uni25B6
ENCODING 9654
SWIDTH 600 0
DWIDTH 5 0
BBX 5 5 0 0
BITMAP
682000
7FF920
7FFD60
7C5000
100000
ENDCHAR
STARTCHAR uni25B7
ENCODING 9655
SWIDTH 600 0
DWIDTH 5 0
BBX 5 5 0 0
BITMAP
631000
601320
605A60
6A5000
100000
ENDCHAR
STARTCHAR uni25B8
ENCODING 9656
SWIDTH 600 0
DWIDTH 5 0
BBX 3 3 1 1
BITMAP
6700
7FB0
6700
ENDCHAR
STARTCHAR uni25B9
ENCODING 9657
SWIDTH 600 0
DWIDTH 5 0
BBX 4 3 1 1
BITMAP
6500
5191
6500
ENDCHAR
STARTCHAR triagrt
ENCODING 9658
SWIDTH 600 0
DWIDTH 5 0
BBX 6 5 0 0
BITMAP
A72000
CFFB50
CFFE92
CB6100
100000
ENDCHAR
STARTCHAR triagdn
ENCODING 9660
SWIDTH 600 0
DWIDTH 5 0
BBX 5 5 0 0
BITMAP
3FFF90
0BFF20
04FA00
00B200
002000
ENDCHAR
STARTCHAR uni25BD
ENCODING 9661
SWIDTH 600 0
DWIDTH 5 0
BBX 5 5 0 0
BITMAP
3FFF90
020110
020200
003100
001000
ENDCHAR
STARTCHAR uni25BE
ENCODING 9662
SWIDTH 600 0
DWIDTH 5 0
BBX 3 3 1 1
BITMAP
8FD0
1E60
0700
ENDCHAR
STARTCHAR uni25BF
ENCODING 9663
SWIDTH 600 0
DWIDTH 5 0
BBX 4 3 1 1
BITMAP
AFE2
1010
0100
ENDCHAR
STARTCHAR uni25C0
ENCODING 9664
SWIDTH 600 0
DWIDTH 5 0
BBX 5 5 0 0
BITMAP
0006A0
06DFD0
2AFFD0
002AC0
000010
ENDCHAR
STARTCHAR uni25C1
ENCODING 9665
SWIDTH 600 0
DWIDTH 5 0
BBX 5 5 0 0
BITMAP
000370
033060
298260
0029B0
000010
ENDCHAR
STARTCHAR uni25C2
ENCODING 9666
SWIDTH 600 0
DWIDTH 5 0
BBX 3 3 1 1
BITMAP
03A0
5FD0
03A0
ENDCHAR
STARTCHAR uni25C3
ENCODING 9667
SWIDTH 600 0
DWIDTH 5 0
BBX 3 3 1 1
BITMAP
0390
7560
0490
ENDCHAR
STARTCHAR triaglf
ENCODING 9668
SWIDTH 600 0
DWIDTH 5 0
BBX 6 5 0 0
BITMAP
0005B3
28EFF3
6CFFF3
0039E3
000011
ENDCHAR
STARTCHAR uni25C6
ENCODING 9670
SWIDTH 600 0
DWIDTH 5 0
BBX 5 5 0 1
BITMAP
01A300
0BFE30
7FFFD0
0BFE30
01A300
ENDCHAR
STARTCHAR uni25C9
ENCODING 9673
SWIDTH 600 0
DWIDTH 5 0
BBX 5 5 0 1
BITMAP
09EC20
571390
74E970
5EFF90
0AFF20
ENDCHAR
STARTCHAR lozenge
ENCODING 9674
SWIDTH 600 0
DWIDTH 5 0
BBX 4 6 1 0
BITMAP
0D40
67A0
A064
A064
67A0
0D40
ENDCHAR
STARTCHAR uni25CB
ENCODING 9675
SWIDTH 600 0
DWIDTH 5 0
BBX 5 4 0 1
BITMAP
09EC30
561290
560290
09EC30
ENDCHAR
STARTCHAR uni25CC
ENCODING 9676
SWIDTH 600 0
DWIDTH 5 0
BBX 5 4 0 0
BITMAP
077700
B200D0
420060
077700
ENDCHAR
STARTCHAR uni25CF
ENCODING 9679
SWIDTH 600 0
DWIDTH 5 0
BBX 5 4 0 1
BITMAP
08EC20
3FFF90
3FFF90
09EC20
ENDCHAR
STARTCHAR invbullet
ENCODING 9688
SWIDTH 600 0
DWIDTH 5 0
BBX 3 3 1 1
BITMAP
9FF0
5150
9FF0
ENDCHAR
STARTCHAR invcircle
ENCODING 9689
SWIDTH 600 0
DWIDTH 5 0
BBX 5 4 0 1
BITMAP
6887A0
2BFF40
2BFF40
689890
ENDCHAR
STARTCHAR uni25E6
ENCODING 9702
SWIDTH 600 0
DWIDTH 5 0
BBX 3 3 1 1
BITMAP
4EB0
9190
8E70
ENDCHAR
STARTCHAR uni2610
ENCODING 9744
SWIDTH 600 0
DWIDTH 5 0
BBX 7 6 -1 0
BITMAP
2EFFFF90
32000190
32000190
32000190
32000190
3FFFFF80
ENDCHAR
STARTCHAR uni2611
ENCODING 9745
SWIDTH 600 0
DWIDTH 5 0
BBX 8 7 -1 0
BITMAP
00000092
2EFFFFA0
32903A90
3267B190
320D4190
32000190
3FFFFF80
ENDCHAR
STARTCHAR uni2615
ENCODING 9749
SWIDTH 600 0
DWIDTH 5 0
BBX 7 6 -1 0
BITMAP
07EEB100
3DFFD700
48EE8940
24000190
0A317E50
03CE9000
ENDCHAR
STARTCHAR smileface
ENCODING 9786
SWIDTH 600 0
DWIDTH 5 0
BBX 6 6 0 0
BITMAP
19EC30
8A8FA1
700043
751543
89FBA1
19EC30
ENDCHAR
STARTCHAR invsmileface
ENCODING 9787
SWIDTH 600 0
DWIDTH 5 0
BBX 6 5 0 0
BITMAP
1AEC30
8DB9D0
AAEAF1
8C16D0
1AEC30
ENDCHAR
STARTCHAR sun
ENCODING 9788
SWIDTH 600 0
DWIDTH 5 0
BBX 6 6 0 0
BITMAP
008000
45E360
091540
FA15F6
0DFD50
329040
ENDCHAR
STARTCHAR female
ENCODING 9792
SWIDTH 600 0
DWIDTH 5 0
BBX 5 8 0 -1
BITMAP
08EC20
391490
620090
391490
08FC20
0DFF40
008000
001000
ENDCHAR
STARTCHAR male
ENCODING 9794
SWIDTH 600 0
DWIDTH 5 0
BBX 7 7 -1 0
BITMAP
00007840
00001970
04DEB170
0B22B110
18006200
0B22B100
04DD5000
ENDCHAR
STARTCHAR spade
ENCODING 9824
SWIDTH 600 0
DWIDTH 5 0
BBX 6 6 0 0
BITMAP
02C500
2DFF60
BFFFF2
CFDDF3
04D710
1FFF70
ENDCHAR
STARTCHAR club
ENCODING 9827
SWIDTH 600 0
DWIDTH 5 0
BBX 6 6 0 0
BITMAP
05EB00
08FE00
7CFDB1
CFDEF3
14D720
1FFF70
ENDCHAR
STARTCHAR heart
ENCODING 9829
SWIDTH 600 0
DWIDTH 5 0
BBX 6 6 0 0
BITMAP
8E7DD1
DFFFF4
CFFFF3
6FFFC0
0AFE20
01B400
ENDCHAR
STARTCHAR diamond
ENCODING 9830
SWIDTH 600 0
DWIDTH 5 0
BBX 6 6 0 0
BITMAP
00A300
0AFE20
8FFFD1
8FFFD1
0AFE20
00A300
ENDCHAR
STARTCHAR musicalnote
ENCODING 9834
SWIDTH 600 0
DWIDTH 5 0
BBX 5 6 0 0
BITMAP
005910
005580
005260
005200
1CF200
2EA000
ENDCHAR
STARTCHAR musicalnotedbl
ENCODING 9835
SWIDTH 600 0
DWIDTH 5 0
BBX 6 7 0 0
BITMAP
00ACE5
01FFE5
018135
017035
017035
9E6AF3
CD2DA0
ENDCHAR
STARTCHAR uni2713
ENCODING 10003
SWIDTH 600 0
DWIDTH 5 0
BBX 6 8 0 -1
BITMAP
000033
000290
000910
204500
919000
396000
0D2000
010000
ENDCHAR
STARTCHAR uni2752
ENCODING 10066
SWIDTH 600 0
DWIDTH 5 0
BBX 5 4 0 1
BITMAP
3FFFB0
500090
500090
5FFF90
ENDCHAR
STARTCHAR uni2764
ENCODING 10084
SWIDTH 600 0
DWIDTH 5 0
BBX 7 6 -1 0
BITMAP
3DE5CE70
9FFFFFF0
8FFFFFE0
2EFFFF70
02CFE600
000A3000
ENDCHAR
STARTCHAR uni27E6
ENCODING 10214
SWIDTH 600 0
DWIDTH 5 0
BBX 6 9 0 -2
BITMAP
00BFF2
009600
019400
049100
067000
076000
076000
094000
2FFA00
ENDCHAR
STARTCHAR uni27E7
ENCODING 10215
SWIDTH 600 0
DWIDTH 5 0
BBX 5 9 0 -2
BITMAP
05FF60
000940
003910
006800
007700
007700
008600
039300
CFF000
ENDCHAR
STARTCHAR uni2E18
ENCODING 11800
SWIDTH 600 0
DWIDTH 5 0
BBX 4 6 0 -2
BITMAP
004A
0000
0082
06B0
3816
1DE5
ENDCHAR
STARTCHAR uni2E22
ENCODING 11810
SWIDTH 600 0
DWIDTH 5 0
BBX 4 5 2 2
BITMAP
6FF2
8100
9000
9000
4000
ENDCHAR
STARTCHAR uni2E23
ENCODING 11811
SWIDTH 600 0
DWIDTH 5 0
BBX 4 5 1 2
BITMAP
5FF1
0070
0070
0070
0130
ENDCHAR
STARTCHAR uni2E24
ENCODING 11812
SWIDTH 600 0
DWIDTH 5 0
BBX 3 5 1 -2
BITMAP
1300
4400
6100
7000
CFA0
ENDCHAR
STARTCHAR uni2E25
ENCODING 11813
SWIDTH 600 0
DWIDTH 5 0
BBX 4 5 0 -2
BITMAP
0022
0063
0080
0090
CFA0
ENDCHAR
STARTCHAR uniE0A0
ENCODING 57504
SWIDTH 600 0
DWIDTH 5 0
BBX 6 12 0 -2
BITMAP
190000
190240
191CE2
190470
190470
190560
121B20
03B400
0C1000
1A0000
190000
190000
ENDCHAR
STARTCHAR uniE0A1
ENCODING 57505
SWIDTH 600 0
DWIDTH 5 0
BBX 5 10 0 -2
BITMAP
460000
460000
460000
4FF600
000000
04A0A0
04B1A0
047790
046880
046490
ENDCHAR
STARTCHAR uniE0A2
ENCODING 57506
SWIDTH 600 0
DWIDTH 5 0
BBX 5 9 0 -1
BITMAP
04EA00
0A1920
090630
080630
8FFFE0
9F2AF0
9F6EF0
9F5DF0
8FFFE0
ENDCHAR
STARTCHAR uniE0B0
ENCODING 57520
SWIDTH 600 0
DWIDTH 5 0
BBX 6 12 0 -3
BITMAP
700000
F50000
FF4000
FFE300
FFFE20
FFFFD1
FFFFD1
FFFE20
FFE300
FF4000
F50000
700000
ENDCHAR
STARTCHAR uniE0B1
ENCODING 57521
SWIDTH 600 0
DWIDTH 5 0
BBX 6 11 0 -2
BITMAP
910000
290000
039000
003800
000480
000084
000480
003800
029000
290000
910000
ENDCHAR
STARTCHAR uniE0B2
ENCODING 57522
SWIDTH 600 0
DWIDTH 5 0
BBX 6 12 0 -3
BITMAP
000016
0001C8
000BF8
00AFF8
09FFF8
8FFFF8
8FFFF8
09FFF8
00AFF8
000BF8
0001C8
000016
ENDCHAR
STARTCHAR uniE0B3
ENCODING 57523
SWIDTH 600 0
DWIDTH 5 0
BBX 6 11 0 -2
BITMAP
000063
000560
005700
048000
380000
B00000
380000
048000
005700
000560
000063
ENDCHAR
STARTCHAR f_i
ENCODING 64257
SWIDTH 600 0
DWIDTH 5 0
BBX 6 6 0 0
BITMAP
01DAA2
066000
2FF290
0A0460
1A0830
460A00
ENDCHAR
STARTCHAR f_l
ENCODING 64258
SWIDTH 600 0
DWIDTH 5 0
BBX 5 6 0 0
BITMAP
01DAA0
0661A0
2FF470
0A0640
1A0910
460A40
ENDCHAR
STARTCHAR uniFE0E
ENCODING 65038
SWIDTH 600 0
DWIDTH 5 0
BBX 6 6 0 0
BITMAP
788991
C00083
7C0991
080800
080800
088B00
ENDCHAR
STARTCHAR uniFE0F
ENCODING 65039
SWIDTH 600 0
DWIDTH 5 0
BBX 6 6 0 0
BITMAP
048800
040040
88BD53
F806C6
484470
048800
ENDCHAR
STARTCHAR uniFEFF
ENCODING 65279
SWIDTH 600 0
DWIDTH 5 0
BBX 1 1 0 0
BITMAP
00
ENDCHAR
STARTCHAR u1F3B5
ENCODING 127925
SWIDTH 600 0
DWIDTH 5 0
BBX 5 7 0 0
BITMAP
004400
005D50
005280
005250
005200
1CF200
2EA000
ENDCHAR
STARTCHAR u1F3B6
ENCODING 127926
SWIDTH 600 0
DWIDTH 5 0
BBX 6 7 0 0
BITMAP
00ACE5
01FFE5
018135
017035
017035
9E6AF3
CD2DA0
ENDCHAR
STARTCHAR u1F4A9
ENCODING 128169
SWIDTH 600 0
DWIDTH 5 0
BBX 6 6 0 0
BITMAP
015400
0AFF10
5FFFB0
8FFFD1
FA15F5
8EFEC2
ENDCHAR
STARTCHAR u1F512
ENCODING 128274
SWIDTH 600 0
DWIDTH 5 0
BBX 5 9 0 -1
BITMAP
04EA00
0A1920
090630
080630
8FFFE0
9F2AF0
9F6EF0
9F5DF0
8FFFE0
ENDCHAR
STARTCHAR u1F916
ENCODING 129302
SWIDTH 600 0
DWIDTH 5 0
BBX 7 6 -1 0
BITMAP
01BED500
09BFEB10
29996880
2ABFE780
08582A10
01AED300
ENDCHAR
STARTCHAR .notdef
ENCODING -1
SWIDTH 600 0
DWIDTH 5 0
BBX 5 6 0 0
BITMAP
6FFFC0
671690
63A580
639680
680690
6FFFC0
ENDCHAR
STARTCHAR uni00470303
ENCODING -1
SWIDTH 600 0
DWIDTH 5 0
BBX 6 8 0 0
BITMAP
008C54
0075D1
01BE80
0B6160
480000
650FC0
5A1280
0AED30
ENDCHAR
STARTCHAR uni004C00B7004C
ENCODING -1
SWIDTH 600 0
DWIDTH 5 0
BBX 5 6 0 0
BITMAP
0A0370
270640
57C910
810900
900900
EF5FE0
ENDCHAR
STARTCHAR uni01320301
ENCODING -1
SWIDTH 600 0
DWIDTH 5 0
BBX 6 10 0 -2
BITMAP
027237
000000
0830A0
0A00B0
0B02A0
290470
560740
830A10
001C00
00E600
ENDCHAR
STARTCHAR uni00670303
ENCODING -1
SWIDTH 600 0
DWIDTH 5 0
BBX 5 9 0 -2
BITMAP
007660
0167A0
000000
07EDA0
3A13A0
740770
3EED40
423B10
6ED500
ENDCHAR
STARTCHAR uni006C00B7006C
ENCODING -1
SWIDTH 600 0
DWIDTH 5 0
BBX 5 6 0 0
BITMAP
FC3F90
080350
38C610
710800
A10A10
9E2CD0
ENDCHAR
STARTCHAR uni01330301
ENCODING -1
SWIDTH 600 0
DWIDTH 5 0
BBX 6 9 0 -2
BITMAP
008246
055190
000000
091460
0A0830
190B00
460B00
005800
05E200
ENDCHAR
STARTCHAR uni014A.a
ENCODING -1
SWIDTH 600 0
DWIDTH 5 0
BBX 6 8 0 -2
BITMAP
0A4082
0A80A0
1890A0
466490
731B60
A00B40
001B10
00C900
ENDCHAR
STARTCHAR a.a
ENCODING -1
SWIDTH 600 0
DWIDTH 5 0
BBX 5 4 0 0
BITMAP
04DE60
052290
2AFF60
6ECA30
ENDCHAR
STARTCHAR agrave.a
ENCODING -1
SWIDTH 600 0
DWIDTH 5 0
BBX 5 7 0 0
BITMAP
006400
001900
000000
04DE60
052290
2AFF60
6ECA30
ENDCHAR
STARTCHAR aacute.a
ENCODING -1
SWIDTH 600 0
DWIDTH 5 0
BBX 5 7 0 0
BITMAP
000560
002800
000000
04DE60
052290
2AFF60
6ECA30
ENDCHAR
STARTCHAR acircumflex.a
ENCODING -1
SWIDTH 600 0
DWIDTH 5 0
BBX 5 7 0 0
BITMAP
005D10
008160
000000
04DE60
052290
2AFF60
6ECA30
ENDCHAR
STARTCHAR atilde.a
ENCODING -1
SWIDTH 600 0
DWIDTH 5 0
BBX 5 7 0 0
BITMAP
008560
025990
000000
04DE60
052290
2AFF60
6ECA30
ENDCHAR
STARTCHAR adieresis.a
ENCODING -1
SWIDTH 600 0
DWIDTH 5 0
BBX 5 6 0 0
BITMAP
00A270
000000
04DE60
052290
2AFF60
6ECA30
ENDCHAR
STARTCHAR amacron.a
ENCODING -1
SWIDTH 600 0
DWIDTH 5 0
BBX 5 6 0 0
BITMAP
00DF70
000000
04DE60
052290
2AFF60
6ECA30
ENDCHAR
STARTCHAR abreve.a
ENCODING -1
SWIDTH 600 0
DWIDTH 5 0
BBX 5 7 0 0
BITMAP
009190
009E30
000000
04DE60
052290
2AFF60
6ECA30
ENDCHAR
STARTCHAR aring.a
ENCODING -1
SWIDTH 600 0
DWIDTH 5 0
BBX 5 8 0 0
BITMAP
004E20
008540
006D10
000000
04DE60
052290
2AFF60
6ECA30
ENDCHAR
STARTCHAR aringacute.a
ENCODING -1
SWIDTH 600 0
DWIDTH 5 0
BBX 5 8 0 0
BITMAP
000530
005F30
006E20
000000
04DE60
0CEE90
673860
5ECA30
ENDCHAR
STARTCHAR uni01CE.a
ENCODING -1
SWIDTH 600 0
DWIDTH 5 0
BBX 5 7 0 0
BITMAP
008170
006C10
000000
04DE60
052290
2AFF60
6ECA30
ENDCHAR
STARTCHAR uni1EA1.a
ENCODING -1
SWIDTH 600 0
DWIDTH 5 0
BBX 5 6 0 -2
BITMAP
04DE60
052290
2AFF60
6ECA30
000000
057000
ENDCHAR
STARTCHAR uni1EA3.a
ENCODING -1
SWIDTH 600 0
DWIDTH 5 0
BBX 5 8 0 0
BITMAP
002C00
000A10
001900
000000
04DE60
052290
2AFF60
6ECA30
ENDCHAR
STARTCHAR uni1EA5.a
ENCODING -1
SWIDTH 600 0
DWIDTH 5 0
BBX 6 7 0 0
BITMAP
000053
006830
000000
04DE60
052290
2AFF60
6ECA30
ENDCHAR
STARTCHAR uni1EA7.a
ENCODING -1
SWIDTH 600 0
DWIDTH 5 0
BBX 5 7 0 0
BITMAP
052000
006830
000000
04DE60
052290
2AFF60
6ECA30
ENDCHAR
STARTCHAR uni1EA9.a
ENCODING -1
SWIDTH 600 0
DWIDTH 5 0
BBX 6 8 0 0
BITMAP
0000A2
000064
0068A1
000000
04DE60
052290
2AFF60
6ECA30
ENDCHAR
STARTCHAR uni1EAB.a
ENCODING -1
SWIDTH 600 0
DWIDTH 5 0
BBX 5 8 0 0
BITMAP
006860
006970
006830
000000
04DE60
052290
2AFF60
6ECA30
ENDCHAR
STARTCHAR uni1EAD.a
ENCODING -1
SWIDTH 600 0
DWIDTH 5 0
BBX 5 9 0 -2
BITMAP
005D10
008160
000000
04DE60
052290
2AFF60
6ECA30
000000
057000
ENDCHAR
STARTCHAR uni1EAF.a
ENCODING -1
SWIDTH 600 0
DWIDTH 5 0
BBX 5 8 0 0
BITMAP
000530
009180
009E30
000000
04DE60
052290
2AFF60
6ECA30
ENDCHAR
STARTCHAR uni1EB1.a
ENCODING -1
SWIDTH 600 0
DWIDTH 5 0
BBX 5 8 0 0
BITMAP
001600
009180
009E30
000000
04DE60
052290
2AFF60
6ECA30
ENDCHAR
STARTCHAR uni1EB3.a
ENCODING -1
SWIDTH 600 0
DWIDTH 5 0
BBX 5 10 0 0
BITMAP
000C10
000830
000900
009180
009E30
000000
04DE60
052290
2AFF60
6ECA30
ENDCHAR
STARTCHAR uni1EB5.a
ENCODING -1
SWIDTH 600 0
DWIDTH 5 0
BBX 5 8 0 0
BITMAP
006870
00FBF0
008D20
000000
04DE60
052290
2AFF60
6ECA30
ENDCHAR
STARTCHAR uni1EB7.a
ENCODING -1
SWIDTH 600 0
DWIDTH 5 0
BBX 5 9 0 -2
BITMAP
009190
009E30
000000
04DE60
052290
2AFF60
6ECA30
000000
057000
ENDCHAR
STARTCHAR aogonek.a
ENCODING -1
SWIDTH 600 0
DWIDTH 5 0
BBX 5 6 0 -2
BITMAP
04DE60
052290
2AFF60
6ECA30
003400
006D00
ENDCHAR
STARTCHAR g.a
ENCODING -1
SWIDTH 600 0
DWIDTH 5 0
BBX 6 6 0 -2
BITMAP
07EFF1
0C1840
1BEB10
3EFB10
911B20
AFE800
ENDCHAR
STARTCHAR uni01F5.a
ENCODING -1
SWIDTH 600 0
DWIDTH 5 0
BBX 6 9 0 -2
BITMAP
000560
002800
000000
07EFF1
0C1840
1BEB10
3EFB10
911B20
AFE800
ENDCHAR
STARTCHAR gcircumflex.a
ENCODING -1
SWIDTH 600 0
DWIDTH 5 0
BBX 6 9 0 -2
BITMAP
005D10
008160
000000
07EFF1
0C1840
1BEB10
3EFB10
911B20
AFE800
ENDCHAR
STARTCHAR gbreve.a
ENCODING -1
SWIDTH 600 0
DWIDTH 5 0
BBX 6 9 0 -2
BITMAP
009190
009E30
000000
07EFF1
0C1840
1BEB10
3EFB10
911B20
AFE800
ENDCHAR
STARTCHAR gdotaccent.a
ENCODING -1
SWIDTH 600 0
DWIDTH 5 0
BBX 6 8 0 -2
BITMAP
002B00
000000
07EFF1
0C1840
1BEB10
3EFB10
911B20
AFE800
ENDCHAR
STARTCHAR uni0123.a
ENCODING -1
SWIDTH 600 0
DWIDTH 5 0
BBX 6 9 0 -2
BITMAP
000920
003700
000000
07EFF1
0C1840
1BEB10
3EFB10
911B20
AFE800
ENDCHAR
STARTCHAR gcaron.a
ENCODING -1
SWIDTH 600 0
DWIDTH 5 0
BBX 6 9 0 -2
BITMAP
008170
006C10
000000
07EFF1
0C1840
1BEB10
3EFB10
911B20
AFE800
ENDCHAR
STARTCHAR uni1E21.a
ENCODING -1
SWIDTH 600 0
DWIDTH 5 0
BBX 6 8 0 -2
BITMAP
00DF70
000000
07EFF1
0C1840
1BEB10
3EFB10
911B20
AFE800
ENDCHAR
STARTCHAR uni00670303.a
ENCODING -1
SWIDTH 600 0
DWIDTH 5 0
BBX 6 9 0 -2
BITMAP
008560
025990
000000
07EFF1
0C1840
1BEB10
3EFB10
911B20
AFE800
ENDCHAR
STARTCHAR iogonek.d
ENCODING -1
SWIDTH 600 0
DWIDTH 5 0
BBX 4 6 1 -2
BITMAP
FF30
0800
0A11
0CB1
0410
08B0
ENDCHAR
STARTCHAR uni0268.d
ENCODING -1
SWIDTH 600 0
DWIDTH 5 0
BBX 5 4 0 0
BITMAP
0FF200
3FFF50
00B110
00CE20
ENDCHAR
STARTCHAR uni029D.d
ENCODING -1
SWIDTH 600 0
DWIDTH 5 0
BBX 4 7 0 -3
BITMAP
0BFD
0009
0056
9EC2
A3E0
AD94
0025
ENDCHAR
STARTCHAR zero.a
ENCODING -1
SWIDTH 600 0
DWIDTH 5 0
BBX 5 6 0 0
BITMAP
03DE40
0B42B0
4560A0
633390
570A50
1BE800
ENDCHAR
STARTCHAR one.a
ENCODING -1
SWIDTH 600 0
DWIDTH 5 0
BBX 5 7 0 0
BITMAP
000100
008B00
046800
006500
009200
00A000
9FFF40
ENDCHAR
STARTCHAR zero.onum
ENCODING -1
SWIDTH 600 0
DWIDTH 5 0
BBX 5 5 0 0
BITMAP
06DD40
2B22A0
64A1A0
661770
1CE900
ENDCHAR
STARTCHAR one.onum
ENCODING -1
SWIDTH 600 0
DWIDTH 5 0
BBX 5 5 0 0
BITMAP
029900
004600
008200
00A000
9FFF40
ENDCHAR
STARTCHAR two.onum
ENCODING -1
SWIDTH 600 0
DWIDTH 5 0
BBX 5 5 0 0
BITMAP
05ED20
071830
002600
055000
AFFF40
ENDCHAR
STARTCHAR three.onum
ENCODING -1
SWIDTH 600 0
DWIDTH 5 0
BBX 5 6 0 -1
BITMAP
04DE30
061660
04E800
014B10
721B20
2CE800
ENDCHAR
STARTCHAR four.onum
ENCODING -1
SWIDTH 600 0
DWIDTH 5 0
BBX 5 6 0 -1
BITMAP
000A50
017920
140900
CFFF90
001800
004600
ENDCHAR
STARTCHAR five.onum
ENCODING -1
SWIDTH 600 0
DWIDTH 5 0
BBX 5 6 0 -1
BITMAP
08FFB0
0A0000
0CEC10
000850
621A30
2CE800
ENDCHAR
STARTCHAR six.onum
ENCODING -1
SWIDTH 600 0
DWIDTH 5 0
BBX 5 6 0 0
BITMAP
02BE70
0B4150
3BDD30
5A2480
571760
0AEA00
ENDCHAR
STARTCHAR seven.onum
ENCODING -1
SWIDTH 600 0
DWIDTH 5 0
BBX 5 6 1 -1
BITMAP
FFFF10
004600
028000
0A1000
380000
830000
ENDCHAR
STARTCHAR eight.onum
ENCODING -1
SWIDTH 600 0
DWIDTH 5 0
BBX 5 6 0 0
BITMAP
04DE50
0631A0
099690
592810
660750
1BFC20
ENDCHAR
STARTCHAR nine.onum
ENCODING -1
SWIDTH 600 0
DWIDTH 5 0
BBX 5 6 0 -1
BITMAP
06ED30
2A1290
4818A0
1CE970
512C20
4ED400
ENDCHAR
STARTCHAR zero.b
ENCODING -1
SWIDTH 600 0
DWIDTH 5 0
BBX 5 5 0 0
BITMAP
06DD40
2A43B0
636090
661870
1CE900
ENDCHAR
STARTCHAR one.b
ENCODING -1
SWIDTH 600 0
DWIDTH 5 0
BBX 5 6 0 0
BITMAP
002600
04B800
016500
009200
00A000
9FFF40
ENDCHAR
STARTCHAR zero.cap
ENCODING -1
SWIDTH 600 0
DWIDTH 5 0
BBX 5 6 0 0
BITMAP
03DE40
0C32B0
4600A0
6393A0
571950
1BE800
ENDCHAR
STARTCHAR one.cap
ENCODING -1
SWIDTH 600 0
DWIDTH 5 0
BBX 5 12 0 0
BITMAP
001400
018B00
001800
002500
004200
004000
007F50
008F50
00AF40
00BF40
00CF40
8DCA20
ENDCHAR
STARTCHAR two.cap
ENCODING -1
SWIDTH 600 0
DWIDTH 5 0
BBX 5 6 0 0
BITMAP
02DE30
072570
000520
004400
173000
9FFF60
ENDCHAR
STARTCHAR three.cap
ENCODING -1
SWIDTH 600 0
DWIDTH 5 0
BBX 5 6 0 0
BITMAP
02DE60
042590
01FB10
001930
631940
1CE900
ENDCHAR
STARTCHAR four.cap
ENCODING -1
SWIDTH 600 0
DWIDTH 5 0
BBX 5 6 0 0
BITMAP
000980
019750
281810
BFFFC0
000A00
001900
ENDCHAR
STARTCHAR five.cap
ENCODING -1
SWIDTH 600 0
DWIDTH 5 0
BBX 5 6 0 0
BITMAP
06FFC0
091000
0BDD20
000670
631840
2CE800
ENDCHAR
STARTCHAR six.cap
ENCODING -1
SWIDTH 600 0
DWIDTH 5 0
BBX 5 6 0 0
BITMAP
02BE70
0B4150
3BDD30
5A2480
571660
0AEA00
ENDCHAR
STARTCHAR seven.cap
ENCODING -1
SWIDTH 600 0
DWIDTH 5 0
BBX 5 6 1 0
BITMAP
DFFF30
004700
029000
091000
290000
740000
ENDCHAR
STARTCHAR eight.cap
ENCODING -1
SWIDTH 600 0
DWIDTH 5 0
BBX 5 6 0 0
BITMAP
04DE60
0652A0
09FE40
592930
660760
1BEB10
ENDCHAR
STARTCHAR nine.cap
ENCODING -1
SWIDTH 600 0
DWIDTH 5 0
BBX 5 6 0 0
BITMAP
05DD30
0B13A0
2A15B0
0AEA90
422A30
2DD500
ENDCHAR
STARTCHAR zero.c
ENCODING -1
SWIDTH 600 0
DWIDTH 5 0
BBX 5 6 0 0
BITMAP
03DE40
0C32B0
4560A0
633390
580A50
1BE800
ENDCHAR
STARTCHAR one.c
ENCODING -1
SWIDTH 600 0
DWIDTH 5 0
BBX 5 6 0 0
BITMAP
000500
02AA00
024600
008300
00A000
9FFF40
ENDCHAR
STARTCHAR at.case
ENCODING -1
SWIDTH 600 0
DWIDTH 5 0
BBX 6 6 0 0
BITMAP
02BEB0
1B4162
733BE1
80A5D0
75DF90
1BE900
ENDCHAR
STARTCHAR asterisk.a
ENCODING -1
SWIDTH 600 0
DWIDTH 5 0
BBX 4 3 1 3
BITMAP
57A5
0C90
3CC0
ENDCHAR
STARTCHAR hyphen.a
ENCODING -1
SWIDTH 600 0
DWIDTH 5 0
BBX 4 1 1 2
BITMAP
DFF1
ENDCHAR
STARTCHAR uni00AD.a
ENCODING -1
SWIDTH 600 0
DWIDTH 5 0
BBX 4 1 1 2
BITMAP
DFF1
ENDCHAR
STARTCHAR uni2010.a
ENCODING -1
SWIDTH 600 0
DWIDTH 5 0
BBX 4 1 1 2
BITMAP
DFF1
ENDCHAR
STARTCHAR dollar.a
ENCODING -1
SWIDTH 600 0
DWIDTH 5 0
BBX 5 8 0 -1
BITMAP
000340
05EF10
092A70
007600
00A300
3B6740
08FC20
070000
ENDCHAR
STARTCHAR period.sups
ENCODING -1
SWIDTH 600 0
DWIDTH 5 0
BBX 2 1 2 3
BITMAP
72
ENDCHAR
STARTCHAR comma.sups
ENCODING -1
SWIDTH 600 0
DWIDTH 5 0
BBX 2 3 2 1
BITMAP
73
63
80
ENDCHAR
STARTCHAR period.subs
ENCODING -1
SWIDTH 600 0
DWIDTH 5 0
BBX 2 1 1 -2
BITMAP
36
ENDCHAR
STARTCHAR comma.subs
ENCODING -1
SWIDTH 600 0
DWIDTH 5 0
BBX 2 3 1 -4
BITMAP
27
27
61
ENDCHAR
STARTCHAR zero.dnom
ENCODING -1
SWIDTH 600 0
DWIDTH 5 0
BBX 3 3 1 0
BITMAP
5E80
9290
9E30
ENDCHAR
STARTCHAR one.dnom
ENCODING -1
SWIDTH 600 0
DWIDTH 5 0
BBX 3 3 1 0
BITMAP
2D10
0700
0800
ENDCHAR
STARTCHAR two.dnom
ENCODING -1
SWIDTH 600 0
DWIDTH 5 0
BBX 3 3 1 0
BITMAP
3E40
3410
CF60
ENDCHAR
STARTCHAR three.dnom
ENCODING -1
SWIDTH 600 0
DWIDTH 5 0
BBX 3 3 1 0
BITMAP
1D60
4E30
6E30
ENDCHAR
STARTCHAR four.dnom
ENCODING -1
SWIDTH 600 0
DWIDTH 5 0
BBX 3 3 1 0
BITMAP
0600
5520
DF80
ENDCHAR
STARTCHAR five.dnom
ENCODING -1
SWIDTH 600 0
DWIDTH 5 0
BBX 3 3 1 0
BITMAP
3F90
8E40
8E30
ENDCHAR
STARTCHAR six.dnom
ENCODING -1
SWIDTH 600 0
DWIDTH 5 0
BBX 3 3 1 0
BITMAP
3D80
AE60
7E40
ENDCHAR
STARTCHAR seven.dnom
ENCODING -1
SWIDTH 600 0
DWIDTH 5 0
BBX 3 3 1 0
BITMAP
6FC0
0530
1700
ENDCHAR
STARTCHAR eight.dnom
ENCODING -1
SWIDTH 600 0
DWIDTH 5 0
BBX 3 3 1 0
BITMAP
4E60
5F40
9E40
ENDCHAR
STARTCHAR nine.dnom
ENCODING -1
SWIDTH 600 0
DWIDTH 5 0
BBX 3 3 1 0
BITMAP
6E50
8E80
9D20
ENDCHAR
STARTCHAR parenleft.dnom
ENCODING -1
SWIDTH 600 0
DWIDTH 5 0
BBX 3 4 1 -1
BITMAP
0540
0800
2600
0800
ENDCHAR
STARTCHAR parenright.dnom
ENCODING -1
SWIDTH 600 0
DWIDTH 5 0
BBX 3 4 1 -1
BITMAP
0800
0710
0800
5400
ENDCHAR
STARTCHAR period.dnom
ENCODING -1
SWIDTH 600 0
DWIDTH 5 0
BBX 2 1 1 0
BITMAP
17
ENDCHAR
STARTCHAR comma.dnom
ENCODING -1
SWIDTH 600 0
DWIDTH 5 0
BBX 2 3 1 -2
BITMAP
19
18
63
ENDCHAR
STARTCHAR zero.numr
ENCODING -1
SWIDTH 600 0
DWIDTH 5 0
BBX 4 3 1 3
BITMAP
0BE2
4673
2EA0
ENDCHAR
STARTCHAR one.numr
ENCODING -1
SWIDTH 600 0
DWIDTH 5 0
BBX 2 3 2 3
BITMAP
78
16
53
ENDCHAR
STARTCHAR two.numr
ENCODING -1
SWIDTH 600 0
DWIDTH 5 0
BBX 3 3 1 3
BITMAP
09C0
0530
4FE0
ENDCHAR
STARTCHAR three.numr
ENCODING -1
SWIDTH 600 0
DWIDTH 5 0
BBX 3 3 1 3
BITMAP
07D0
19B0
0CB0
ENDCHAR
STARTCHAR four.numr
ENCODING -1
SWIDTH 600 0
DWIDTH 5 0
BBX 4 3 1 3
BITMAP
0340
0750
5FF1
ENDCHAR
STARTCHAR five.numr
ENCODING -1
SWIDTH 600 0
DWIDTH 5 0
BBX 4 3 1 3
BITMAP
0AF2
1EC0
1EB0
ENDCHAR
STARTCHAR six.numr
ENCODING -1
SWIDTH 600 0
DWIDTH 5 0
BBX 4 3 1 3
BITMAP
09E2
2EE0
1DC0
ENDCHAR
STARTCHAR seven.numr
ENCODING -1
SWIDTH 600 0
DWIDTH 5 0
BBX 3 3 2 3
BITMAP
CF50
1700
7100
ENDCHAR
STARTCHAR eight.numr
ENCODING -1
SWIDTH 600 0
DWIDTH 5 0
BBX 4 3 1 3
BITMAP
0AE1
0CC0
1EB0
ENDCHAR
STARTCHAR nine.numr
ENCODING -1
SWIDTH 600 0
DWIDTH 5 0
BBX 4 3 1 3
BITMAP
0CD0
1EE1
2E80
ENDCHAR
STARTCHAR parenleft.numr
ENCODING -1
SWIDTH 600 0
DWIDTH 5 0
BBX 2 4 2 2
BITMAP
08
62
80
53
ENDCHAR
STARTCHAR parenright.numr
ENCODING -1
SWIDTH 600 0
DWIDTH 5 0
BBX 2 4 2 2
BITMAP
35
08
26
80
ENDCHAR
STARTCHAR period.numr
ENCODING -1
SWIDTH 600 0
DWIDTH 5 0
BBX 2 1 2 3
BITMAP
71
ENDCHAR
STARTCHAR comma.numr
ENCODING -1
SWIDTH 600 0
DWIDTH 5 0
BBX 2 3 2 1
BITMAP
73
73
90
ENDCHAR
STARTCHAR ordfeminine.a
ENCODING -1
SWIDTH 600 0
DWIDTH 5 0
BBX 4 3 1 3
BITMAP
06E4
0305
3EC2
ENDCHAR
STARTCHAR q.sups
ENCODING -1
SWIDTH 600 0
DWIDTH 5 0
BBX 4 4 1 2
BITMAP
0BC6
5654
3EC1
0050
ENDCHAR
STARTCHAR egrave.sups
ENCODING -1
SWIDTH 600 0
DWIDTH 5 0
BBX 4 6 1 3
BITMAP
0010
0080
0000
0AE4
3FF7
1DB0
ENDCHAR
STARTCHAR eacute.sups
ENCODING -1
SWIDTH 600 0
DWIDTH 5 0
BBX 4 5 1 3
BITMAP
0062
0000
0AE4
3FF7
1DB0
ENDCHAR
STARTCHAR a.supa
ENCODING -1
SWIDTH 600 0
DWIDTH 5 0
BBX 4 3 1 3
BITMAP
06E4
0305
3EC2
ENDCHAR
STARTCHAR g.supa
ENCODING -1
SWIDTH 600 0
DWIDTH 5 0
BBX 4 4 1 2
BITMAP
0BFC
1DE2
3FF4
8FC1
ENDCHAR
STARTCHAR colon.sups
ENCODING -1
SWIDTH 600 0
DWIDTH 5 0
BBX 2 3 2 3
BITMAP
53
00
90
ENDCHAR
STARTCHAR hyphen.sups
ENCODING -1
SWIDTH 600 0
DWIDTH 5 0
BBX 2 1 2 5
BITMAP
8C
ENDCHAR
STARTCHAR endash.sups
ENCODING -1
SWIDTH 600 0
DWIDTH 5 0
BBX 3 1 2 5
BITMAP
FF50
ENDCHAR
STARTCHAR emdash.sups
ENCODING -1
SWIDTH 600 0
DWIDTH 5 0
BBX 5 1 1 5
BITMAP
FFFF40
ENDCHAR
STARTCHAR slash.frac
ENCODING -1
SWIDTH 600 0
DWIDTH 5 0
BBX 7 5 -1 0
BITMAP
00000530
00004400
00000000
02600000
17000000
ENDCHAR
STARTCHAR uni0300.cap
ENCODING -1
SWIDTH 600 0
DWIDTH 5 0
BBX 2 2 2 6
BITMAP
64
09
ENDCHAR
STARTCHAR uni0301.cap
ENCODING -1
SWIDTH 600 0
DWIDTH 5 0
BBX 2 1 3 7
BITMAP
64
ENDCHAR
STARTCHAR uni0302.cap
ENCODING -1
SWIDTH 600 0
DWIDTH 5 0
BBX 3 1 2 6
BITMAP
5750
ENDCHAR
STARTCHAR uni0303.cap
ENCODING -1
SWIDTH 600 0
DWIDTH 5 0
BBX 5 2 1 6
BITMAP
0AA710
178B00
ENDCHAR
STARTCHAR uni0304.cap
ENCODING -1
SWIDTH 600 0
DWIDTH 5 0
BBX 3 1 2 6
BITMAP
AFA0
ENDCHAR
STARTCHAR uni0305.cap
ENCODING -1
SWIDTH 600 0
DWIDTH 5 0
BBX 3 1 2 6
BITMAP
AFA0
ENDCHAR
STARTCHAR uni0306.c
ENCODING -1
SWIDTH 600 0
DWIDTH 5 0
BBX 3 2 2 5
BITMAP
9370
7D10
ENDCHAR
STARTCHAR uni0306.cap
ENCODING -1
SWIDTH 600 0
DWIDTH 5 0
BBX 3 2 2 6
BITMAP
8190
6E50
ENDCHAR
STARTCHAR uni0306.ccap
ENCODING -1
SWIDTH 600 0
DWIDTH 5 0
BBX 3 2 2 6
BITMAP
9190
5E40
ENDCHAR
STARTCHAR uni0307.cap
ENCODING -1
SWIDTH 600 0
DWIDTH 5 0
BBX 1 1 3 6
BITMAP
A0
ENDCHAR
STARTCHAR uni0308.cap
ENCODING -1
SWIDTH 600 0
DWIDTH 5 0
BBX 3 1 2 6
BITMAP
8090
ENDCHAR
STARTCHAR uni0309.cap
ENCODING -1
SWIDTH 600 0
DWIDTH 5 0
BBX 3 3 2 6
BITMAP
1C00
0A10
1900
ENDCHAR
STARTCHAR uni0310.cap
ENCODING -1
SWIDTH 600 0
DWIDTH 5 0
BBX 3 3 2 6
BITMAP
0820
8290
6E50
ENDCHAR
STARTCHAR uni030A.cap
ENCODING -1
SWIDTH 600 0
DWIDTH 5 0
BBX 3 3 2 6
BITMAP
1D40
4560
2E20
ENDCHAR
STARTCHAR uni030B.cap
ENCODING -1
SWIDTH 600 0
DWIDTH 5 0
BBX 4 2 2 6
BITMAP
0844
4480
ENDCHAR
STARTCHAR uni030C.cap
ENCODING -1
SWIDTH 600 0
DWIDTH 5 0
BBX 3 1 2 7
BITMAP
5760
ENDCHAR
STARTCHAR uni030C.a
ENCODING -1
SWIDTH 600 0
DWIDTH 5 0
BBX 2 2 2 5
BITMAP
09
26
ENDCHAR
STARTCHAR uni030F.cap
ENCODING -1
SWIDTH 600 0
DWIDTH 5 0
BBX 4 2 1 6
BITMAP
2680
0752
ENDCHAR
STARTCHAR uni0311.cap
ENCODING -1
SWIDTH 600 0
DWIDTH 5 0
BBX 3 2 2 6
BITMAP
4E60
9190
ENDCHAR
STARTCHAR uni0326.a
ENCODING -1
SWIDTH 600 0
DWIDTH 5 0
BBX 3 2 2 5
BITMAP
0A20
4600
ENDCHAR
STARTCHAR uni0327.cap
ENCODING -1
SWIDTH 600 0
DWIDTH 5 0
BBX 3 4 0 -4
BITMAP
0340
0760
0380
1D20
ENDCHAR
STARTCHAR uni0328.cap
ENCODING -1
SWIDTH 600 0
DWIDTH 5 0
BBX 2 2 1 -2
BITMAP
52
B8
ENDCHAR
STARTCHAR uni0342.cap
ENCODING -1
SWIDTH 600 0
DWIDTH 5 0
BBX 5 2 1 6
BITMAP
0AA710
178B00
ENDCHAR
STARTCHAR uni03080301
ENCODING -1
SWIDTH 600 0
DWIDTH 5 0
BBX 3 2 2 5
BITMAP
0520
8260
ENDCHAR
STARTCHAR uni03080301.cap
ENCODING -1
SWIDTH 600 0
DWIDTH 5 0
BBX 3 3 2 6
BITMAP
0440
0000
8080
ENDCHAR
STARTCHAR uni03080300
ENCODING -1
SWIDTH 600 0
DWIDTH 5 0
BBX 3 2 2 5
BITMAP
1600
8260
ENDCHAR
STARTCHAR uni03080300.cap
ENCODING -1
SWIDTH 600 0
DWIDTH 5 0
BBX 3 3 2 6
BITMAP
1700
0000
8080
ENDCHAR
STARTCHAR uni03080303
ENCODING -1
SWIDTH 600 0
DWIDTH 5 0
BBX 3 4 2 5
BITMAP
8960
6980
0000
8260
ENDCHAR
STARTCHAR uni03080304
ENCODING -1
SWIDTH 600 0
DWIDTH 5 0
BBX 3 3 2 5
BITMAP
9FA0
0000
8260
ENDCHAR
STARTCHAR uni03080304.cap
ENCODING -1
SWIDTH 600 0
DWIDTH 5 0
BBX 3 3 2 6
BITMAP
7FC0
0000
8080
ENDCHAR
STARTCHAR uni0308030C
ENCODING -1
SWIDTH 600 0
DWIDTH 5 0
BBX 3 3 2 5
BITMAP
4850
0000
8260
ENDCHAR
STARTCHAR uni0308030C.cap
ENCODING -1
SWIDTH 600 0
DWIDTH 5 0
BBX 3 3 2 6
BITMAP
2860
0000
8080
ENDCHAR
STARTCHAR uni03020301
ENCODING -1
SWIDTH 600 0
DWIDTH 5 0
BBX 4 2 2 5
BITMAP
0053
6820
ENDCHAR
STARTCHAR uni03020301.cap
ENCODING -1
SWIDTH 600 0
DWIDTH 5 0
BBX 4 2 2 6
BITMAP
0044
4840
ENDCHAR
STARTCHAR uni03020300
ENCODING -1
SWIDTH 600 0
DWIDTH 5 0
BBX 4 2 1 5
BITMAP
5200
0682
ENDCHAR
STARTCHAR uni03020300.cap
ENCODING -1
SWIDTH 600 0
DWIDTH 5 0
BBX 4 2 1 6
BITMAP
1600
0484
ENDCHAR
STARTCHAR uni03020309
ENCODING -1
SWIDTH 600 0
DWIDTH 5 0
BBX 4 3 2 5
BITMAP
00A2
0064
68A1
ENDCHAR
STARTCHAR uni03020309.cap
ENCODING -1
SWIDTH 600 0
DWIDTH 5 0
BBX 4 3 2 6
BITMAP
0084
0037
48B2
ENDCHAR
STARTCHAR uni03020303
ENCODING -1
SWIDTH 600 0
DWIDTH 5 0
BBX 3 3 2 5
BITMAP
6860
7970
6830
ENDCHAR
STARTCHAR uni03020303.cap
ENCODING -1
SWIDTH 600 0
DWIDTH 5 0
BBX 3 3 2 6
BITMAP
5B60
66B0
4840
ENDCHAR
STARTCHAR uni03060301
ENCODING -1
SWIDTH 600 0
DWIDTH 5 0
BBX 3 3 2 5
BITMAP
0630
9180
9D30
ENDCHAR
STARTCHAR uni03060301.cap
ENCODING -1
SWIDTH 600 0
DWIDTH 5 0
BBX 3 3 2 6
BITMAP
0440
8190
5E40
ENDCHAR
STARTCHAR uni03060300
ENCODING -1
SWIDTH 600 0
DWIDTH 5 0
BBX 3 3 2 5
BITMAP
1600
9180
9D30
ENDCHAR
STARTCHAR uni03060300.cap
ENCODING -1
SWIDTH 600 0
DWIDTH 5 0
BBX 3 3 2 6
BITMAP
1700
8190
5E40
ENDCHAR
STARTCHAR uni03060309
ENCODING -1
SWIDTH 600 0
DWIDTH 5 0
BBX 3 5 2 5
BITMAP
0C10
0820
0900
9180
9D30
ENDCHAR
STARTCHAR uni03060309.cap
ENCODING -1
SWIDTH 600 0
DWIDTH 5 0
BBX 3 5 2 6
BITMAP
0A20
0540
0710
8190
5E40
ENDCHAR
STARTCHAR uni03060303
ENCODING -1
SWIDTH 600 0
DWIDTH 5 0
BBX 3 3 2 5
BITMAP
7860
FBE0
8D20
ENDCHAR
STARTCHAR uni03060303.cap
ENCODING -1
SWIDTH 600 0
DWIDTH 5 0
BBX 3 3 2 6
BITMAP
5B60
E7F0
5E40
ENDCHAR
STARTCHAR uni03020306
ENCODING -1
SWIDTH 600 0
DWIDTH 5 0
BBX 3 3 2 5
BITMAP
5640
0200
6720
ENDCHAR
STARTCHAR uni03040301
ENCODING -1
SWIDTH 600 0
DWIDTH 5 0
BBX 3 3 2 5
BITMAP
0520
0000
DF60
ENDCHAR
STARTCHAR uni03040301.cap
ENCODING -1
SWIDTH 600 0
DWIDTH 5 0
BBX 3 3 2 6
BITMAP
0350
0000
AFA0
ENDCHAR
STARTCHAR space.frac
ENCODING -1
SWIDTH 600 0
DWIDTH 5 0
BBX 1 1 0 0
BITMAP
00
ENDCHAR
STARTCHAR nbspace.frac
ENCODING -1
SWIDTH 600 0
DWIDTH 5 0
BBX 1 1 0 0
BITMAP
00
ENDCHAR
STARTCHAR u1F3B5_uniFE0F
ENCODING -1
SWIDTH 600 0
DWIDTH 5 0
BBX 5 7 0 0
BITMAP
004400
005D50
005280
005250
005200
1CF200
2EA000
ENDCHAR
STARTCHAR u1F3B6_uniFE0F
ENCODING -1
SWIDTH 600 0
DWIDTH 5 0
BBX 6 7 0 0
BITMAP
00ACE5
01FFE5
018135
017035
017035
9E6AF3
CD2DA0
ENDCHAR
STARTCHAR uni2611_uniFE0F
ENCODING -1
SWIDTH 600 0
DWIDTH 5 0
BBX 8 7 -1 0
BITMAP
00000092
2EFFFF90
32001990
32608290
32477190
32061190
3FFFFF80
ENDCHAR
STARTCHAR uni2713_uniFE0F
ENCODING -1
SWIDTH 600 0
DWIDTH 5 0
BBX 6 8 0 -1
BITMAP
000033
000290
000910
204500
919000
396000
0D2000
010000
ENDCHAR
STARTCHAR uni2665_uniFE0F
ENCODING -1
SWIDTH 600 0
DWIDTH 5 0
BBX 6 6 0 0
BITMAP
8E7DD1
DFFFF4
CFFFF3
6FFFC0
0AFE20
01B400
ENDCHAR
STARTCHAR uni2663_uniFE0F
ENCODING -1
SWIDTH 600 0
DWIDTH 5 0
BBX 6 6 0 0
BITMAP
05EB00
08FE00
7CFDB1
CFDEF3
14D720
1FFF70
ENDCHAR
STARTCHAR uni2666_uniFE0F
ENCODING -1
SWIDTH 600 0
DWIDTH 5 0
BBX 6 6 0 0
BITMAP
00A300
0AFE20
8FFFD1
8FFFD1
0AFE20
00A300
ENDCHAR
STARTCHAR uni2660_uniFE0F
ENCODING -1
SWIDTH 600 0
DWIDTH 5 0
BBX 6 6 0 0
BITMAP
02C500
2DFF60
BFFFF2
CFDDF3
04D710
1FFF70
ENDCHAR
STARTCHAR uni263A_uniFE0F
ENCODING -1
SWIDTH 600 0
DWIDTH 5 0
BBX 6 6 0 0
BITMAP
048800
040040
88BD53
F806C6
484470
048800
ENDCHAR
STARTCHAR uni263B_uniFE0F
ENCODING -1
SWIDTH 600 0
DWIDTH 5 0
BBX 6 5 0 0
BITMAP
1AEC30
8DB9D0
AAEAF1
8C16D0
1AEC30
ENDCHAR
STARTCHAR uni2764_uniFE0F
ENCODING -1
SWIDTH 600 0
DWIDTH 5 0
BBX 7 6 -1 0
BITMAP
3DE5CE70
9FFFFFF0
8FFFFFE0
2EFFFF70
02CFE600
000A3000
ENDCHAR
STARTCHAR uni2615_uniFE0F
ENCODING -1
SWIDTH 600 0
DWIDTH 5 0
BBX 7 6 -1 0
BITMAP
07EEB100
3DFFD700
48EE8940
24000190
0A317E50
03CE9000
ENDCHAR
STARTCHAR u1F4A9_uniFE0F
ENCODING -1
SWIDTH 600 0
DWIDTH 5 0
BBX 6 6 0 0
BITMAP
015400
0AFF10
5FFFB0
8FFFD1
FA15F5
8EFEC2
ENDCHAR
STARTCHAR u1F916_uniFE0F
ENCODING -1
SWIDTH 600 0
DWIDTH 5 0
BBX 7 6 -1 0
BITMAP
01BED500
09BFEB10
29996880
2ABFE780
08582A10
01AED300
ENDCHAR
STARTCHAR u1F512_uniFE0F
ENCODING -1
SWIDTH 600 0
DWIDTH 5 0
BBX 5 9 0 -1
BITMAP
06EB00
0A2930
080630
8FFFE0
9F2BF0
9F3BF0
9F6FF0
9F5DF0
8FFFE0
ENDCHAR
ENDFONT
